<svg width="328" height="323" viewBox="0 0 328 323" fill="none" xmlns="http://www.w3.org/2000/svg">
<path d="M67.938 304.781C122.437 329.073 210.795 329.073 265.293 304.781C319.792 280.489 319.8 241.098 265.293 216.806C210.786 192.514 122.437 192.506 67.938 216.806C13.4396 241.105 13.4564 280.503 67.938 304.781Z" fill="#FAFAFA"/>
<path d="M195.488 248.511C179.853 254.876 154.505 254.876 138.87 248.511C123.235 242.146 123.227 231.847 138.87 225.482C154.513 219.117 179.853 219.124 195.488 225.482C211.123 231.84 211.097 242.153 195.488 248.511Z" fill="#F0F0F0"/>
<path d="M237.514 275.875C249.145 280.611 268.01 280.611 279.641 275.875C291.272 271.138 291.272 263.474 279.641 258.744C268.01 254.015 249.145 254.015 237.514 258.744C225.883 263.474 225.883 271.145 237.514 275.875Z" fill="#F0F0F0"/>
<path d="M53.0351 276.7C64.4394 281.336 82.9252 281.336 94.3295 276.7C105.734 272.064 105.734 264.543 94.3295 259.9C82.9252 255.257 64.4394 255.264 53.0351 259.9C41.6308 264.536 41.6308 272.064 53.0351 276.7Z" fill="#F0F0F0"/>
<path d="M287.421 52.7105L290.642 53.7726V47.7085C290.642 42.9003 295.141 41.7521 300.019 44.1203C304.897 46.5172 308.85 52.366 308.85 57.167V58.0497C309.536 57.8696 310.261 57.8245 310.97 57.9177C311.68 58.011 312.355 58.2401 312.946 58.5879C314.796 59.6176 316.335 61.0047 317.44 62.6367C318.545 64.2688 319.183 66.0999 319.304 67.9818V68.3837L323.795 70.594C325.017 71.2699 326.035 72.1825 326.765 73.2574C327.496 74.3323 327.919 75.5393 328 76.78C328 79.0621 326.125 79.9807 323.795 78.8468L287.421 60.9059C286.2 60.2307 285.182 59.3193 284.452 58.2457C283.721 57.1721 283.298 55.9665 283.215 54.727C283.232 52.4952 285.108 51.5766 287.421 52.7105Z" fill="#F0F0F0"/>
<path d="M43.6829 52.5311L36.2398 56.1982C36.2831 55.9198 36.3056 55.6394 36.3071 55.3586V53.5214C36.3071 50.249 33.6074 48.9213 30.2853 50.5576C28.856 51.3059 27.6337 52.3097 26.7026 53.4999C26.1559 49.3806 22.3713 47.8449 17.7793 50.1126C12.8004 52.5598 8.7719 58.5162 8.7719 63.4176V66.1662C8.74014 67.2664 9.00184 68.3584 9.53723 69.3597L3.3641 72.4025C2.38839 72.9405 1.57522 73.6674 0.990672 74.5241C0.406128 75.3807 0.0667085 76.343 0 77.3326C0 79.1483 1.49703 79.8874 3.3641 78.976L43.6913 59.1118C44.667 58.5738 45.4802 57.8469 46.0647 56.9902C46.6493 56.1335 46.9887 55.1713 47.0554 54.1816C47.0217 52.366 45.5247 51.6268 43.6829 52.5311Z" fill="#F0F0F0"/>
<path d="M214.874 110.358C219.992 110.358 224.142 106.818 224.142 102.45C224.142 98.0824 219.992 94.5417 214.874 94.5417C209.755 94.5417 205.606 98.0824 205.606 102.45C205.606 106.818 209.755 110.358 214.874 110.358Z" fill="#076372"/>
<path d="M156.725 128.4C164.231 128.4 170.316 123.208 170.316 116.803C170.316 110.398 164.231 105.206 156.725 105.206C149.219 105.206 143.134 110.398 143.134 116.803C143.134 123.208 149.219 128.4 156.725 128.4Z" fill="#076372"/>
<path d="M135.058 106.247C143.371 99.154 143.371 87.6536 135.058 80.5603C126.745 73.4671 113.267 73.4671 104.954 80.5603C96.6417 87.6536 96.6417 99.154 104.954 106.247C113.267 113.341 126.745 113.341 135.058 106.247Z" fill="#076372"/>
<path d="M143.428 76.895C151.246 76.895 157.583 71.4875 157.583 64.8171C157.583 58.1467 151.246 52.7393 143.428 52.7393C135.611 52.7393 129.274 58.1467 129.274 64.8171C129.274 71.4875 135.611 76.895 143.428 76.895Z" fill="#076372"/>
<path d="M186.153 70.0343C196.706 70.0343 205.261 62.7345 205.261 53.7296C205.261 44.7247 196.706 37.4249 186.153 37.4249C175.6 37.4249 167.045 44.7247 167.045 53.7296C167.045 62.7345 175.6 70.0343 186.153 70.0343Z" fill="#076372"/>
<path d="M190.072 135.49L186.64 140.176C185.777 141.358 184.409 142.207 182.825 142.543C181.241 142.88 179.566 142.677 178.154 141.978L174.79 140.313C173.779 139.721 172.94 138.94 172.337 138.03C171.734 137.12 171.382 136.104 171.308 135.06L170.964 123.628C170.929 123.335 170.805 123.055 170.604 122.816C170.404 122.577 170.133 122.386 169.82 122.264C168.964 121.896 168.019 121.705 167.061 121.705C166.103 121.705 165.158 121.896 164.303 122.264C163.987 122.384 163.715 122.574 163.514 122.813C163.313 123.053 163.19 123.334 163.159 123.628L162.436 147.41C162.377 149.391 161.426 150.553 160.308 150.008L158.289 149.01C157.306 148.529 156.445 147.886 155.755 147.118C155.065 146.351 154.56 145.474 154.269 144.54L152.007 137.363C151.863 136.903 151.511 136.51 151.027 136.271C150.544 136.032 149.969 135.967 149.429 136.089C148.889 136.212 148.429 136.513 148.149 136.925C147.869 137.338 147.793 137.828 147.936 138.289L150.199 145.465C150.633 146.855 151.384 148.157 152.411 149.298C153.437 150.438 154.717 151.394 156.178 152.111L159.189 153.596C160.871 154.414 162.15 156.682 162.091 158.663L159.795 234.503C159.795 235.414 160.501 236.333 161.914 237.029C163.503 237.715 165.259 238.073 167.04 238.073C168.821 238.073 170.577 237.715 172.166 237.029C173.579 236.311 174.294 235.414 174.286 234.495L171.628 146.434C171.569 144.453 172.536 143.348 173.79 143.965L176.052 145.085C178.407 146.249 181.201 146.586 183.842 146.025C186.483 145.464 188.766 144.049 190.206 142.078L193.638 137.392C193.933 136.988 194.029 136.501 193.903 136.038C193.778 135.574 193.442 135.172 192.969 134.92C192.496 134.667 191.925 134.586 191.382 134.693C190.839 134.8 190.367 135.087 190.072 135.49Z" fill="#37474F"/>
<path d="M249.276 56.908C253.303 42.0937 242.494 27.2986 225.132 23.8622C207.771 20.4257 190.432 29.6492 186.405 44.4634C182.377 59.2776 193.187 74.0727 210.548 77.5092C227.909 80.9457 245.248 71.7222 249.276 56.908Z" fill="#076372"/>
<path opacity="0.2" d="M250.121 50.4931V50.737C250.127 54.9975 248.975 59.2011 246.754 63.0171C244.534 66.8331 241.306 70.1573 237.324 72.7283C233.343 75.2993 228.716 77.0468 223.809 77.8335C218.902 78.6202 213.848 78.4245 209.045 77.2618C204.241 76.0991 199.819 74.0012 196.127 71.1331C192.435 68.265 189.573 64.705 187.767 60.7331C185.96 56.7612 185.259 52.4858 185.717 48.2433C186.175 44.0008 187.781 39.9069 190.408 36.2838C188.968 42.8138 190.45 49.5671 194.56 55.2105C198.671 60.8539 205.111 64.9772 212.611 66.7663C220.11 68.5553 228.123 67.8802 235.068 64.874C242.012 61.8679 247.383 56.7494 250.121 50.5289V50.4931Z" fill="black"/>
<path d="M187.616 60.3175C189.126 63.7712 191.433 66.9311 194.4 69.6098C197.367 72.2886 200.935 74.4317 204.891 75.9121C208.847 77.3925 213.112 78.1801 217.431 78.2281C221.751 78.2761 226.037 77.5836 230.037 76.1917C229.136 72.3932 227.177 68.8355 224.326 65.8187C221.475 62.8019 217.815 60.4146 213.656 58.8581C209.497 57.3016 204.959 56.6217 200.427 56.8757C195.895 57.1297 191.501 58.3102 187.616 60.3175Z" fill="#076372"/>
<path opacity="0.1" d="M187.616 60.3175C189.126 63.7712 191.433 66.9311 194.4 69.6098C197.367 72.2886 200.935 74.4317 204.891 75.9121C208.847 77.3925 213.112 78.1801 217.431 78.2281C221.751 78.2761 226.037 77.5836 230.037 76.1917C229.136 72.3932 227.177 68.8355 224.326 65.8187C221.475 62.8019 217.815 60.4146 213.656 58.8581C209.497 57.3016 204.959 56.6217 200.427 56.8757C195.895 57.1297 191.501 58.3102 187.616 60.3175Z" fill="black"/>
<path d="M219.314 39.3481C222.3 39.3481 222.678 39.3481 223.831 39.4055C224.54 39.4147 225.242 39.5263 225.908 39.7356C226.389 39.895 226.826 40.1381 227.191 40.4495C227.556 40.7608 227.84 41.1336 228.027 41.5441C228.269 42.1102 228.397 42.707 228.406 43.3095C228.465 44.3141 228.473 44.6156 228.473 47.1632C228.473 49.7108 228.473 50.0337 228.406 51.0169C228.397 51.6193 228.269 52.2161 228.027 52.7823C227.84 53.1927 227.556 53.5655 227.191 53.8768C226.826 54.1882 226.389 54.4313 225.908 54.5907C225.242 54.8001 224.54 54.9117 223.831 54.9208C222.653 54.9639 222.3 54.9783 219.314 54.9783C216.329 54.9783 215.95 54.9783 214.806 54.9208C214.097 54.9125 213.394 54.8009 212.729 54.5907C212.246 54.4341 211.808 54.1919 211.442 53.8802C211.077 53.5685 210.793 53.1943 210.61 52.7823C210.364 52.2168 210.233 51.6198 210.223 51.0169C210.172 50.0122 210.164 49.7108 210.164 47.1632C210.164 44.6156 210.164 44.2926 210.223 43.3095C210.233 42.7065 210.364 42.1095 210.61 41.5441C210.793 41.132 211.077 40.7578 211.442 40.4461C211.808 40.1344 212.246 39.8923 212.729 39.7356C213.394 39.5255 214.097 39.4138 214.806 39.4055C215.984 39.3624 216.337 39.3481 219.314 39.3481ZM219.314 37.6329C216.287 37.6329 215.95 37.6329 214.714 37.6903C213.785 37.7045 212.866 37.855 211.997 38.1353C211.256 38.3797 210.583 38.7537 210.021 39.2332C209.459 39.7127 209.021 40.2872 208.734 40.9197C208.41 41.6597 208.234 42.4408 208.213 43.2305C208.162 44.2496 208.145 44.5725 208.145 47.1632C208.145 49.7538 208.145 50.0768 208.213 51.0958C208.234 51.8855 208.41 52.6666 208.734 53.4066C209.021 54.0392 209.459 54.6136 210.021 55.0931C210.583 55.5726 211.256 55.9466 211.997 56.1911C212.866 56.4713 213.785 56.6218 214.714 56.636C215.908 56.6791 216.287 56.6934 219.314 56.6934C222.342 56.6934 222.729 56.6934 223.923 56.636C224.849 56.622 225.765 56.4715 226.631 56.1911C227.379 55.9535 228.057 55.5786 228.616 55.0931C229.18 54.6152 229.619 54.0403 229.903 53.4066C230.227 52.667 230.401 51.8854 230.416 51.0958C230.475 50.0768 230.483 49.7538 230.483 47.1632C230.483 44.5725 230.483 44.2496 230.416 43.2305C230.401 42.4409 230.227 41.6593 229.903 40.9197C229.616 40.2937 229.177 39.7264 228.616 39.2548C228.057 38.7692 227.379 38.3944 226.631 38.1568C225.765 37.8764 224.849 37.7258 223.923 37.7119C222.729 37.6688 222.35 37.6545 219.314 37.6545" fill="white"/>
<path d="M219.314 42.2689C218.179 42.2689 217.069 42.5563 216.126 43.0947C215.182 43.6331 214.447 44.3984 214.013 45.2935C213.58 46.1887 213.467 47.1735 213.69 48.1233C213.913 49.0731 214.461 49.9451 215.264 50.629C216.068 51.3129 217.092 51.7779 218.206 51.9652C219.319 52.1524 220.473 52.0534 221.521 51.6808C222.569 51.3081 223.463 50.6786 224.092 49.8718C224.72 49.0651 225.053 48.1174 225.05 47.1488C225.05 45.8508 224.446 44.6059 223.37 43.688C222.294 42.7702 220.835 42.2545 219.314 42.2545M219.314 50.3279C218.577 50.3279 217.857 50.1415 217.244 49.7922C216.632 49.4428 216.154 48.9463 215.872 48.3654C215.59 47.7845 215.516 47.1453 215.66 46.5286C215.804 45.9119 216.159 45.3454 216.68 44.9008C217.201 44.4562 217.865 44.1534 218.587 44.0308C219.31 43.9081 220.059 43.971 220.74 44.2117C221.421 44.4523 222.003 44.8598 222.412 45.3826C222.821 45.9054 223.04 46.52 223.04 47.1488C223.04 47.992 222.647 48.8006 221.949 49.3968C221.25 49.993 220.302 50.3279 219.314 50.3279Z" fill="white"/>
<path d="M226.623 42.0751C226.624 42.3025 226.547 42.5252 226.4 42.715C226.253 42.9048 226.044 43.053 225.798 43.1411C225.552 43.2291 225.281 43.2528 225.02 43.2093C224.758 43.1658 224.518 43.0571 224.329 42.8968C224.14 42.7365 224.011 42.5319 223.958 42.309C223.905 42.086 223.932 41.8548 224.033 41.6446C224.135 41.4343 224.307 41.2546 224.529 41.1281C224.75 41.0016 225.011 40.9341 225.277 40.9341C225.633 40.9341 225.974 41.0541 226.226 41.2679C226.478 41.4816 226.621 41.7718 226.623 42.0751Z" fill="white"/>
<path d="M262.689 97.1436C265.354 85.8687 256.802 74.8856 243.589 72.6122C230.375 70.3388 217.504 77.6359 214.839 88.9108C212.175 100.186 220.727 111.169 233.94 113.442C247.154 115.716 260.025 108.418 262.689 97.1436Z" fill="#076372"/>
<path d="M263.191 92.8911V93.0777C263.18 96.2902 262.298 99.4569 260.613 102.33C258.928 105.203 256.487 107.704 253.481 109.638C250.474 111.571 246.984 112.885 243.283 113.475C239.582 114.065 235.772 113.917 232.15 113.041C228.527 112.164 225.192 110.585 222.405 108.425C219.618 106.266 217.454 103.585 216.084 100.593C214.714 97.6004 214.174 94.3782 214.507 91.1782C214.839 87.9783 216.036 84.8876 218.002 82.1481C217.663 83.5336 217.491 84.9452 217.489 86.3606C217.491 91.1008 219.46 95.6873 223.049 99.306C226.637 102.925 231.612 105.342 237.09 106.128C242.568 106.914 248.196 106.019 252.974 103.601C257.752 101.183 261.372 97.3988 263.191 92.9198V92.8911Z" fill="#076372"/>
<path opacity="0.1" d="M263.191 92.8911V93.0777C263.18 96.2902 262.298 99.4569 260.613 102.33C258.928 105.203 256.487 107.704 253.481 109.638C250.474 111.571 246.984 112.885 243.283 113.475C239.582 114.065 235.772 113.917 232.15 113.041C228.527 112.164 225.192 110.585 222.405 108.425C219.618 106.266 217.454 103.585 216.084 100.593C214.714 97.6004 214.174 94.3782 214.507 91.1782C214.839 87.9783 216.036 84.8876 218.002 82.1481C217.663 83.5336 217.491 84.9452 217.489 86.3606C217.491 91.1008 219.46 95.6873 223.049 99.306C226.637 102.925 231.612 105.342 237.09 106.128C242.568 106.914 248.196 106.019 252.974 103.601C257.752 101.183 261.372 97.3988 263.191 92.9198V92.8911Z" fill="black"/>
<path d="M214.386 93.0777C214.398 98.432 216.836 103.575 221.19 107.43C226.632 103.578 230.187 98.1266 231.154 92.1494C232.121 86.1722 230.429 80.1027 226.413 75.1367C222.75 76.9743 219.714 79.5964 217.605 82.7432C215.495 85.89 214.386 89.4524 214.386 93.0777Z" fill="#076372"/>
<path opacity="0.1" d="M214.386 93.0777C214.398 98.432 216.836 103.575 221.19 107.43C226.632 103.578 230.187 98.1266 231.154 92.1494C232.121 86.1722 230.429 80.1027 226.413 75.1367C222.75 76.9743 219.714 79.5964 217.605 82.7432C215.495 85.89 214.386 89.4524 214.386 93.0777Z" fill="black"/>
<path d="M248.195 86.1669C245.849 86.1023 244.267 87.2361 243.435 89.5541C243.826 89.4031 244.25 89.3225 244.68 89.3173C245.521 89.3173 245.924 89.7335 245.823 90.5588C245.627 91.338 245.237 92.0721 244.68 92.7117C243.973 93.6662 243.443 94.147 243.09 94.147C242.737 94.147 242.249 93.4294 241.837 91.9438C241.711 91.5133 241.484 90.4081 241.156 88.6427C240.853 87.0017 240.043 86.2338 238.725 86.3391C237.765 86.5714 236.894 87.0172 236.202 87.6308C235.361 88.2552 234.57 88.8867 233.738 89.5111L234.537 90.3866C234.933 90.0931 235.378 89.8512 235.857 89.6689C236.438 89.6689 236.984 90.444 237.489 92.0013L238.851 96.264C239.535 97.8237 240.376 98.6011 241.374 98.5964C242.972 98.5964 244.918 97.3214 247.211 94.7713C249.454 92.3314 250.603 90.4177 250.659 89.0302C250.749 87.1739 249.928 86.2195 248.195 86.1669Z" fill="white"/>
<path d="M156.801 58.387C175.696 58.387 191.014 45.3167 191.014 29.1935C191.014 13.0704 175.696 0 156.801 0C137.906 0 122.588 13.0704 122.588 29.1935C122.588 45.3167 137.906 58.387 156.801 58.387Z" fill="#076372"/>
<path opacity="0.5" d="M191.005 28.9782V29.2079C191.003 33.7201 189.774 38.1703 187.416 42.2092C185.059 46.248 181.636 49.7656 177.417 52.4857C173.198 55.2057 168.297 57.0542 163.1 57.8861C157.902 58.7179 152.55 58.5104 147.462 57.2799C142.375 56.0493 137.691 53.8293 133.778 50.794C129.865 47.7587 126.83 43.9908 124.911 39.7861C122.993 35.5815 122.242 31.0545 122.719 26.5607C123.196 22.0669 124.887 17.7285 127.659 13.8863C127.174 15.8278 126.929 17.8073 126.928 19.7925C126.925 26.441 129.685 32.875 134.716 37.9517C139.747 43.0283 146.725 46.419 154.408 47.5213C162.092 48.6237 169.985 47.3664 176.686 43.9728C183.386 40.5792 188.459 35.269 191.005 28.9854V28.9782Z" fill="#076372"/>
<path opacity="0.1" d="M191.005 28.9782V29.2079C191.003 33.7201 189.774 38.1703 187.416 42.2092C185.059 46.248 181.636 49.7656 177.417 52.4857C173.198 55.2057 168.297 57.0542 163.1 57.8861C157.902 58.7179 152.55 58.5104 147.462 57.2799C142.375 56.0493 137.691 53.8293 133.778 50.794C129.865 47.7587 126.83 43.9908 124.911 39.7861C122.993 35.5815 122.242 31.0545 122.719 26.5607C123.196 22.0669 124.887 17.7285 127.659 13.8863C127.174 15.8278 126.929 17.8073 126.928 19.7925C126.925 26.441 129.685 32.875 134.716 37.9517C139.747 43.0283 146.725 46.419 154.408 47.5213C162.092 48.6237 169.985 47.3664 176.686 43.9728C183.386 40.5792 188.459 35.269 191.005 28.9854V28.9782Z" fill="black"/>
<path d="M185.589 44.9959C183.392 41.2128 179.761 38.1749 175.285 36.376C170.808 34.5772 165.75 34.1231 160.933 35.0877C156.116 36.0523 151.823 38.3788 148.752 41.689C145.681 44.9992 144.012 49.0985 144.017 53.3205C144.018 54.3572 144.122 55.3919 144.328 56.4135C151.692 58.8796 159.83 59.0894 167.354 57.0073C174.878 54.9251 181.323 50.6799 185.589 44.9959Z" fill="#076372"/>
<path opacity="0.1" d="M185.589 44.9959C183.392 41.2128 179.761 38.1749 175.285 36.376C170.808 34.5772 165.75 34.1231 160.933 35.0877C156.116 36.0523 151.823 38.3788 148.752 41.689C145.681 44.9992 144.012 49.0985 144.017 53.3205C144.018 54.3572 144.122 55.3919 144.328 56.4135C151.692 58.8796 159.83 59.0894 167.354 57.0073C174.878 54.9251 181.323 50.6799 185.589 44.9959Z" fill="black"/>
<path d="M154.118 32.7458H159.08V22.1463H162.537L162.907 18.6012H159.08V16.5846C159.08 15.745 159.273 15.4149 160.224 15.4149H162.907V11.7334H159.475C155.783 11.7334 154.118 13.1184 154.118 15.7737V18.6012H151.544V22.1894H154.118V32.7458Z" fill="white"/>
<path d="M143.003 69.8056C146.085 53.3844 132.983 37.9402 113.739 35.31C94.4941 32.6798 76.3945 43.8595 73.312 60.2806C70.2295 76.7018 83.3314 92.146 102.576 94.7762C121.82 97.4064 139.92 86.2267 143.003 69.8056Z" fill="#076372"/>
<path opacity="0.7" d="M143.429 64.8171V65.0468C143.449 69.7156 142.198 74.3246 139.774 78.5104C137.351 82.6962 133.82 86.3443 129.462 89.1671C125.104 91.9899 120.037 93.9102 114.66 94.7765C109.284 95.6429 103.745 95.4316 98.4803 94.1594C93.2158 92.8871 88.3697 90.5887 84.324 87.4454C80.2783 84.302 77.1437 80.3997 75.1673 76.046C73.191 71.6924 72.427 67.0065 72.9355 62.3579C73.444 57.7093 75.2112 53.225 78.0977 49.2587C77.5965 51.2615 77.3428 53.3036 77.3407 55.3515C77.3383 62.2084 80.1841 68.8441 85.3727 74.08C90.5612 79.316 97.7567 82.8134 105.681 83.951C113.606 85.0886 121.746 83.7928 128.657 80.2937C135.568 76.7946 140.801 71.3187 143.429 64.8387V64.8171Z" fill="#076372"/>
<path opacity="0.1" d="M143.429 64.8171V65.0468C143.449 69.7156 142.198 74.3246 139.774 78.5104C137.351 82.6962 133.82 86.3443 129.462 89.1671C125.104 91.9899 120.037 93.9102 114.66 94.7765C109.284 95.6429 103.745 95.4316 98.4803 94.1594C93.2158 92.8871 88.3697 90.5887 84.324 87.4454C80.2783 84.302 77.1437 80.3997 75.1673 76.046C73.191 71.6924 72.427 67.0065 72.9355 62.3579C73.444 57.7093 75.2112 53.225 78.0977 49.2587C77.5965 51.2615 77.3428 53.3036 77.3407 55.3515C77.3383 62.2084 80.1841 68.8441 85.3727 74.08C90.5612 79.316 97.7567 82.8134 105.681 83.951C113.606 85.0886 121.746 83.7928 128.657 80.2937C135.568 76.7946 140.801 71.3187 143.429 64.8387V64.8171Z" fill="black"/>
<path d="M91.8905 75.1941C86.5793 75.1987 81.4686 76.9251 77.593 80.0238C81.0651 85.2163 86.2766 89.4049 92.5586 92.0519C98.8406 94.6988 105.906 95.6833 112.849 94.8789C112.916 94.3048 112.95 93.7164 112.95 93.1279C112.949 90.77 112.403 88.4355 111.344 86.2578C110.284 84.08 108.732 82.1018 106.777 80.4362C104.821 78.7706 102.499 77.4503 99.945 76.5509C97.3907 75.6514 94.6537 75.1903 91.8905 75.1941Z" fill="#076372"/>
<path opacity="0.1" d="M91.8905 75.1941C86.5793 75.1987 81.4686 76.9251 77.593 80.0238C81.0651 85.2163 86.2766 89.4049 92.5586 92.0519C98.8406 94.6988 105.906 95.6833 112.849 94.8789C112.916 94.3048 112.95 93.7164 112.95 93.1279C112.949 90.77 112.403 88.4355 111.344 86.2578C110.284 84.08 108.732 82.1018 106.777 80.4362C104.821 78.7706 102.499 77.4503 99.945 76.5509C97.3907 75.6514 94.6537 75.1903 91.8905 75.1941Z" fill="black"/>
<path d="M143.429 65.3912C139.583 65.612 135.842 66.5578 132.476 68.1604C129.109 69.763 126.202 71.9826 123.962 74.6593C121.721 77.336 120.205 80.4033 119.521 83.6402C118.837 86.8772 119.002 90.2033 120.006 93.3791C126.789 91.3086 132.668 87.5179 136.854 82.5154C141.041 77.5129 143.335 71.5377 143.429 65.3912Z" fill="#076372"/>
<path opacity="0.1" d="M143.429 65.3912C139.583 65.612 135.842 66.5578 132.476 68.1604C129.109 69.763 126.202 71.9826 123.962 74.6593C121.721 77.336 120.205 80.4033 119.521 83.6402C118.837 86.8772 119.002 90.2033 120.006 93.3791C126.789 91.3086 132.668 87.5179 136.854 82.5154C141.041 77.5129 143.335 71.5377 143.429 65.3912Z" fill="black"/>
<path d="M97.2983 68.4627C99.2536 69.5319 101.516 70.1219 103.838 70.168C106.159 70.2141 108.451 69.7147 110.463 68.7242C112.474 67.7338 114.128 66.2905 115.243 64.5522C116.358 62.8139 116.891 60.8475 116.785 58.8679C117.654 58.3285 118.406 57.6629 119.005 56.9016C118.204 57.2073 117.353 57.4081 116.482 57.4972C117.412 57.0237 118.106 56.2756 118.433 55.3945C117.561 55.8393 116.605 56.1525 115.607 56.3203C114.934 55.7194 114.048 55.3234 113.086 55.193C112.123 55.0625 111.137 55.2048 110.279 55.598C109.42 55.9912 108.736 56.6137 108.331 57.3701C107.927 58.1266 107.824 58.9753 108.038 59.7865C106.268 59.7121 104.536 59.3203 102.955 58.6365C101.374 57.9527 99.9795 56.9923 98.8626 55.8179C98.2942 56.6542 98.1196 57.6437 98.3741 58.5857C98.6286 59.5278 99.2933 60.3521 100.233 60.8916C99.5256 60.8697 98.8338 60.7049 98.215 60.4108C98.2039 61.2964 98.5546 62.1576 99.2069 62.8465C99.8592 63.5354 100.772 64.0088 101.789 64.1856C101.134 64.3406 100.446 64.3627 99.7793 64.2502C100.062 65.0066 100.616 65.6682 101.363 66.1419C102.11 66.6157 103.012 66.8777 103.942 66.8911C103.012 67.5153 101.946 67.9756 100.805 68.2454C99.6645 68.5152 98.4725 68.5891 97.2983 68.4627Z" fill="white"/>
<path d="M138.495 135.746C149.311 126.517 149.311 111.554 138.495 102.325C127.679 93.0967 110.144 93.0967 99.3284 102.325C88.5129 111.554 88.5129 126.517 99.3284 135.746C110.144 144.975 127.679 144.975 138.495 135.746Z" fill="#076372"/>
<path opacity="0.3" d="M122.79 95.6396C122.635 96.6341 122.556 97.6361 122.554 98.6394C122.551 102.048 123.447 105.413 125.177 108.486C126.906 111.558 129.425 114.259 132.546 116.387C131.033 117.96 129.897 119.773 129.205 121.721C128.513 123.669 128.278 125.715 128.512 127.741C128.746 129.766 129.446 131.733 130.571 133.528C131.696 135.323 133.224 136.912 135.069 138.203C139.552 135.449 142.967 131.614 144.875 127.191C146.784 122.768 147.098 117.959 145.778 113.382C144.457 108.806 141.563 104.67 137.466 101.509C133.37 98.3469 128.259 96.3029 122.79 95.6396Z" fill="#076372"/>
<path opacity="0.1" d="M122.79 95.6396C122.635 96.6341 122.556 97.6361 122.554 98.6394C122.551 102.048 123.447 105.413 125.177 108.486C126.906 111.558 129.425 114.259 132.546 116.387C131.033 117.96 129.897 119.773 129.205 121.721C128.513 123.669 128.278 125.715 128.512 127.741C128.746 129.766 129.446 131.733 130.571 133.528C131.696 135.323 133.224 136.912 135.069 138.203C139.552 135.449 142.967 131.614 144.875 127.191C146.784 122.768 147.098 117.959 145.778 113.382C144.457 108.806 141.563 104.67 137.466 101.509C133.37 98.3469 128.259 96.3029 122.79 95.6396Z" fill="black"/>
<path d="M146.599 118.855V119.035C146.591 122.684 145.593 126.282 143.682 129.547C141.771 132.813 139 135.656 135.586 137.854C132.172 140.052 128.208 141.546 124.004 142.218C119.8 142.89 115.471 142.722 111.356 141.727C107.241 140.732 103.452 138.938 100.285 136.485C97.1192 134.031 94.6619 130.985 93.1063 127.586C91.5506 124.186 90.9388 120.525 91.3188 116.89C91.6988 113.255 93.0603 109.745 95.2966 106.634C93.8288 112.317 94.9682 118.264 98.4806 123.252C101.993 128.24 107.612 131.89 114.181 133.453C120.751 135.015 127.772 134.37 133.801 131.651C139.831 128.932 144.411 124.345 146.599 118.834V118.855Z" fill="#076372"/>
<path d="M146.599 118.855V119.035C146.591 122.684 145.593 126.282 143.682 129.547C141.771 132.813 139 135.656 135.586 137.854C132.172 140.052 128.208 141.546 124.004 142.218C119.8 142.89 115.471 142.722 111.356 141.727C107.241 140.732 103.452 138.938 100.285 136.485C97.1192 134.031 94.6619 130.985 93.1063 127.586C91.5506 124.186 90.9388 120.525 91.3188 116.89C91.6988 113.255 93.0603 109.745 95.2966 106.634C93.8288 112.317 94.9682 118.264 98.4806 123.252C101.993 128.24 107.612 131.89 114.181 133.453C120.751 135.015 127.772 134.37 133.801 131.651C139.831 128.932 144.411 124.345 146.599 118.834V118.855Z" fill="#076372"/>
<g opacity="0.1">
<path d="M146.599 118.855V119.035C146.591 122.684 145.593 126.282 143.682 129.547C141.771 132.813 139 135.656 135.586 137.854C132.172 140.052 128.208 141.546 124.004 142.218C119.8 142.89 115.471 142.722 111.356 141.727C107.241 140.732 103.452 138.938 100.285 136.485C97.1192 134.031 94.6619 130.985 93.1063 127.586C91.5506 124.186 90.9388 120.525 91.3188 116.89C91.6988 113.255 93.0603 109.745 95.2966 106.634C93.8288 112.317 94.9682 118.264 98.4806 123.252C101.993 128.24 107.612 131.89 114.181 133.453C120.751 135.015 127.772 134.37 133.801 131.651C139.831 128.932 144.411 124.345 146.599 118.834V118.855Z" fill="black"/>
<path d="M146.599 118.855V119.035C146.591 122.684 145.593 126.282 143.682 129.547C141.771 132.813 139 135.656 135.586 137.854C132.172 140.052 128.208 141.546 124.004 142.218C119.8 142.89 115.471 142.722 111.356 141.727C107.241 140.732 103.452 138.938 100.285 136.485C97.1192 134.031 94.6619 130.985 93.1063 127.586C91.5506 124.186 90.9388 120.525 91.3188 116.89C91.6988 113.255 93.0603 109.745 95.2966 106.634C93.8288 112.317 94.9682 118.264 98.4806 123.252C101.993 128.24 107.612 131.89 114.181 133.453C120.751 135.015 127.772 134.37 133.801 131.651C139.831 128.932 144.411 124.345 146.599 118.834V118.855Z" fill="black"/>
</g>
<path d="M113.816 123.068C114.34 122.98 114.834 122.794 115.263 122.522C115.723 122.213 116.095 121.819 116.35 121.369C116.605 120.918 116.737 120.424 116.734 119.924C116.753 119.361 116.581 118.806 116.238 118.324C115.884 117.872 115.363 117.533 114.758 117.362C115.128 117.214 115.459 117.004 115.734 116.745C116.148 116.286 116.357 115.716 116.322 115.138C116.341 114.544 116.137 113.961 115.742 113.473C115.336 113.07 114.825 112.754 114.249 112.552C113.673 112.35 113.049 112.267 112.428 112.31H106.255V123.218H112.008C112.615 123.222 113.221 123.171 113.816 123.068ZM108.77 114.205H111.545C112.057 114.193 112.569 114.251 113.059 114.377C113.284 114.46 113.471 114.603 113.594 114.784C113.716 114.965 113.768 115.174 113.74 115.382C113.764 115.567 113.729 115.754 113.639 115.923C113.548 116.092 113.406 116.237 113.227 116.343C112.812 116.535 112.344 116.627 111.873 116.609H108.77V114.205ZM108.77 121.324V118.417H111.915C112.349 118.403 112.781 118.464 113.185 118.597C113.452 118.691 113.677 118.855 113.828 119.065C113.979 119.275 114.048 119.521 114.026 119.767C114.062 120.04 114.002 120.316 113.852 120.559C113.702 120.802 113.469 121.001 113.185 121.13C112.779 121.276 112.339 121.342 111.898 121.324H108.77Z" fill="white"/>
<path d="M118.896 122.501C119.844 123.162 121.036 123.513 122.26 123.491C122.916 123.523 123.572 123.435 124.184 123.232C124.797 123.029 125.351 122.716 125.809 122.314C126.288 121.932 126.609 121.429 126.726 120.879H124.203C124.032 121.175 123.761 121.422 123.426 121.586C123.09 121.751 122.705 121.827 122.319 121.805C121.839 121.818 121.365 121.71 120.956 121.496C120.633 121.31 120.372 121.055 120.198 120.757C120.024 120.459 119.943 120.128 119.964 119.795H126.852C126.871 119.261 126.843 118.726 126.768 118.195C126.668 117.599 126.413 117.03 126.019 116.53C125.619 116.006 125.049 115.593 124.379 115.339C123.679 115.079 122.922 114.949 122.159 114.958C121.539 114.941 120.92 115.031 120.342 115.223C119.764 115.415 119.237 115.706 118.795 116.078C118.338 116.513 117.988 117.021 117.766 117.574C117.543 118.126 117.453 118.71 117.5 119.293C117.434 119.883 117.526 120.478 117.767 121.033C118.009 121.589 118.395 122.09 118.896 122.501ZM120.662 117.14C120.857 116.981 121.088 116.858 121.342 116.779C121.595 116.7 121.865 116.667 122.134 116.681C122.67 116.665 123.193 116.819 123.606 117.111C123.81 117.275 123.974 117.473 124.087 117.693C124.2 117.912 124.259 118.149 124.262 118.389H120.006C120.055 117.922 120.286 117.482 120.662 117.14Z" fill="white"/>
<path d="M124.749 112.942H119.199V114.04H124.749V112.942Z" fill="white"/>
<path d="M195.471 107.753C211.097 107.753 223.763 96.945 223.763 83.6121C223.763 70.2792 211.097 59.4707 195.471 59.4707C179.846 59.4707 167.179 70.2792 167.179 83.6121C167.179 96.945 179.846 107.753 195.471 107.753Z" fill="#076372"/>
<path opacity="0.2" d="M223.755 83.4326V83.612C223.753 87.3437 222.738 91.0243 220.788 94.3647C218.838 97.7051 216.008 100.614 212.518 102.864C209.029 105.114 204.976 106.642 200.677 107.33C196.379 108.018 191.952 107.846 187.745 106.828C183.537 105.81 179.664 103.973 176.428 101.463C173.192 98.9521 170.683 95.8355 169.097 92.3579C167.511 88.8802 166.891 85.1361 167.287 81.4197C167.682 77.7032 169.082 74.1156 171.376 70.9385C170.977 72.5453 170.774 74.1831 170.77 75.8256C170.768 81.323 173.05 86.6431 177.209 90.841C181.369 95.039 187.138 97.843 193.491 98.7552C199.845 99.6673 206.371 98.6285 211.912 95.8232C217.452 93.018 221.649 88.6279 223.755 83.4326Z" fill="black"/>
<path d="M171.157 71.2687C167.644 76.3061 166.4 82.2625 167.656 88.0255C168.913 93.7886 172.585 98.9643 177.986 102.586C179.999 100.162 181.42 97.4184 182.167 94.5169C182.914 91.6155 182.971 88.6156 182.334 85.6952C181.697 82.7747 180.38 79.993 178.46 77.5149C176.54 75.0368 174.057 72.9128 171.157 71.2687Z" fill="#076372"/>
<path opacity="0.1" d="M171.157 71.2687C167.644 76.3061 166.4 82.2625 167.656 88.0255C168.913 93.7886 172.585 98.9643 177.986 102.586C179.999 100.162 181.42 97.4184 182.167 94.5169C182.914 91.6155 182.971 88.6156 182.334 85.6952C181.697 82.7747 180.38 79.993 178.46 77.5149C176.54 75.0368 174.057 72.9128 171.157 71.2687Z" fill="#076372"/>
<g opacity="0.1">
<path d="M171.157 71.2687C167.644 76.3061 166.4 82.2625 167.656 88.0255C168.913 93.7886 172.585 98.9643 177.986 102.586C179.999 100.162 181.42 97.4184 182.167 94.5169C182.914 91.6155 182.971 88.6156 182.334 85.6952C181.697 82.7747 180.38 79.993 178.46 77.5149C176.54 75.0368 174.057 72.9128 171.157 71.2687Z" fill="black"/>
<path opacity="0.1" d="M171.157 71.2687C167.644 76.3061 166.4 82.2625 167.656 88.0255C168.913 93.7886 172.585 98.9643 177.986 102.586C179.999 100.162 181.42 97.4184 182.167 94.5169C182.914 91.6155 182.971 88.6156 182.334 85.6952C181.697 82.7747 180.38 79.993 178.46 77.5149C176.54 75.0368 174.057 72.9128 171.157 71.2687Z" fill="black"/>
</g>
<path d="M192.216 82.959C192.284 82.9894 192.358 83.0058 192.434 83.0068C192.51 83.0078 192.586 82.9933 192.654 82.9646C192.722 82.9358 192.781 82.8936 192.827 82.8415C192.872 82.7894 192.902 82.7288 192.914 82.6647C192.982 82.4566 193.133 81.9471 193.2 81.7103C193.254 81.5963 193.263 81.4706 193.227 81.3518C193.191 81.233 193.111 81.1272 192.999 81.05C192.368 80.3979 192.041 79.5699 192.082 78.7249C192.071 77.9628 192.242 77.2067 192.584 76.5029C192.927 75.799 193.434 75.1621 194.075 74.6309C194.715 74.0997 195.476 73.6855 196.31 73.4134C197.145 73.1413 198.035 73.0171 198.928 73.0484C202.654 73.0484 204.706 74.9932 204.706 77.591C204.706 81.0142 202.931 83.8991 200.299 83.8991C199.962 83.9136 199.626 83.8605 199.317 83.7438C199.009 83.6272 198.737 83.4504 198.523 83.2276C198.31 83.0049 198.16 82.7424 198.088 82.4614C198.015 82.1804 198.02 81.8887 198.104 81.6098C198.524 80.1099 199.332 78.4881 199.332 77.4044C199.364 77.1793 199.34 76.9508 199.26 76.7344C199.18 76.518 199.047 76.3187 198.869 76.15C198.691 75.9813 198.473 75.8471 198.229 75.7565C197.986 75.6659 197.722 75.6209 197.456 75.6247C195.976 75.6247 194.782 76.938 194.782 78.6962C194.772 79.3405 194.924 79.9792 195.227 80.5692L193.436 87.028C193.12 88.5147 193.106 90.0367 193.394 91.5276C193.4 91.5578 193.416 91.5859 193.44 91.6084C193.464 91.631 193.496 91.6471 193.53 91.6547C193.565 91.6623 193.602 91.6611 193.636 91.6513C193.67 91.6414 193.7 91.6234 193.722 91.5993C194.827 90.4435 195.681 89.1287 196.245 87.7169C196.413 87.193 197.221 84.4588 197.221 84.4588C197.592 84.9252 198.095 85.3047 198.682 85.5629C199.27 85.8211 199.924 85.9498 200.585 85.9372C205.059 85.9372 208.087 82.4638 208.087 77.8135C208.087 74.2899 204.596 71.0175 199.289 71.0175C192.687 71.0175 189.357 75.0578 189.357 78.4235C189.374 80.4688 190.282 82.3131 192.216 82.959Z" fill="white"/>
<path d="M224.886 137.066C234.417 128.933 234.417 115.747 224.886 107.614C215.354 99.4807 199.901 99.4807 190.37 107.614C180.838 115.747 180.838 128.933 190.37 137.066C199.901 145.199 215.354 145.199 224.886 137.066Z" fill="#076372"/>
<path d="M232.022 122.185V122.343C232.011 125.555 231.129 128.722 229.445 131.595C227.76 134.468 225.319 136.969 222.312 138.903C219.306 140.836 215.815 142.15 212.115 142.74C208.414 143.331 204.603 143.182 200.981 142.306C197.359 141.43 194.024 139.85 191.237 137.69C188.449 135.531 186.286 132.85 184.916 129.858C183.545 126.866 183.005 123.643 183.338 120.443C183.671 117.244 184.867 114.153 186.834 111.413C186.488 112.798 186.313 114.21 186.312 115.626C186.308 120.37 188.275 124.961 191.864 128.584C195.453 132.207 200.431 134.627 205.914 135.414C211.396 136.201 217.028 135.303 221.808 132.881C226.589 130.459 230.208 126.669 232.022 122.185Z" fill="#076372"/>
<path opacity="0.2" d="M232.022 122.185V122.343C232.011 125.555 231.129 128.722 229.445 131.595C227.76 134.468 225.319 136.969 222.312 138.903C219.306 140.836 215.815 142.15 212.115 142.74C208.414 143.331 204.603 143.182 200.981 142.306C197.359 141.43 194.024 139.85 191.237 137.69C188.449 135.531 186.286 132.85 184.916 129.858C183.545 126.866 183.005 123.643 183.338 120.443C183.671 117.244 184.867 114.153 186.834 111.413C186.488 112.798 186.313 114.21 186.312 115.626C186.308 120.37 188.275 124.961 191.864 128.584C195.453 132.207 200.431 134.627 205.914 135.414C211.396 136.201 217.028 135.303 221.808 132.881C226.589 130.459 230.208 126.669 232.022 122.185Z" fill="black"/>
<path d="M183.209 122.343C183.191 126.524 184.657 130.612 187.414 134.069C190.903 133.202 194.055 131.549 196.538 129.285C199.021 127.021 200.744 124.228 201.526 121.2C202.309 118.172 202.122 115.02 200.986 112.074C199.85 109.129 197.805 106.499 195.067 104.459C191.446 106.31 188.45 108.931 186.371 112.065C184.293 115.2 183.203 118.741 183.209 122.343Z" fill="#076372"/>
<path opacity="0.1" d="M183.209 122.343C183.191 126.524 184.657 130.612 187.414 134.069C190.903 133.202 194.055 131.549 196.538 129.285C199.021 127.021 200.744 124.228 201.526 121.2C202.309 118.172 202.122 115.02 200.986 112.074C199.85 109.129 197.805 106.499 195.067 104.459C191.446 106.31 188.45 108.931 186.371 112.065C184.293 115.2 183.203 118.741 183.209 122.343Z" fill="black"/>
<path d="M209.222 117.786H205.934V126.857H209.222V117.786Z" fill="white"/>
<path d="M207.557 116.602C207.945 116.605 208.326 116.509 208.65 116.327C208.974 116.145 209.228 115.885 209.379 115.58C209.53 115.274 209.571 114.938 209.498 114.613C209.424 114.287 209.239 113.988 208.965 113.753C208.692 113.517 208.343 113.357 207.962 113.291C207.582 113.225 207.187 113.258 206.828 113.384C206.469 113.51 206.162 113.724 205.945 113.999C205.729 114.275 205.614 114.599 205.614 114.93C205.614 115.371 205.818 115.794 206.182 116.107C206.546 116.42 207.04 116.598 207.557 116.602Z" fill="white"/>
<path d="M214.462 122.099C214.462 120.822 215.151 120.061 216.472 120.061C217.792 120.061 218.255 120.778 218.255 122.099V126.857H221.535V121.116C221.535 118.69 219.92 117.528 217.666 117.528C217.025 117.52 216.394 117.654 215.832 117.917C215.271 118.18 214.798 118.563 214.462 119.027V117.8H211.308V126.871H214.462V122.099Z" fill="white"/>
<path d="M179.744 131.421C190.232 131.421 198.734 124.166 198.734 115.217C198.734 106.267 190.232 99.0125 179.744 99.0125C169.256 99.0125 160.754 106.267 160.754 115.217C160.754 124.166 169.256 131.421 179.744 131.421Z" fill="#076372"/>
<path d="M198.734 115.095V115.217C198.732 117.721 198.05 120.191 196.741 122.432C195.433 124.674 193.533 126.626 191.191 128.136C188.849 129.645 186.129 130.671 183.245 131.133C180.36 131.594 177.389 131.479 174.566 130.796C171.742 130.113 169.142 128.881 166.971 127.197C164.799 125.512 163.114 123.421 162.049 121.088C160.984 118.754 160.567 116.242 160.831 113.748C161.095 111.254 162.033 108.846 163.571 106.713C163.303 107.791 163.167 108.89 163.167 109.992C163.176 113.678 164.713 117.242 167.506 120.054C170.299 122.865 174.167 124.743 178.427 125.354C182.686 125.965 187.062 125.27 190.779 123.393C194.496 121.515 197.314 118.575 198.734 115.095Z" fill="#076372"/>
<path opacity="0.2" d="M198.734 115.095V115.217C198.732 117.721 198.05 120.191 196.741 122.432C195.433 124.674 193.533 126.626 191.191 128.136C188.849 129.645 186.129 130.671 183.245 131.133C180.36 131.594 177.389 131.479 174.566 130.796C171.742 130.113 169.142 128.881 166.971 127.197C164.799 125.512 163.114 123.421 162.049 121.088C160.984 118.754 160.567 116.242 160.831 113.748C161.095 111.254 162.033 108.846 163.571 106.713C163.303 107.791 163.167 108.89 163.167 109.992C163.176 113.678 164.713 117.242 167.506 120.054C170.299 122.865 174.167 124.743 178.427 125.354C182.686 125.965 187.062 125.27 190.779 123.393C194.496 121.515 197.314 118.575 198.734 115.095Z" fill="black"/>
<path d="M170.619 109.756L175.186 112.231L179.744 109.756L175.186 107.273L170.619 109.756Z" fill="white"/>
<path d="M179.736 109.756L184.302 112.231L188.869 109.756L184.302 107.273L179.736 109.756Z" fill="white"/>
<path d="M170.619 114.679L175.186 117.162L179.744 114.679L175.186 112.196L170.619 114.679Z" fill="white"/>
<path d="M184.302 112.196L179.736 114.679L184.302 117.162L188.869 114.679L184.302 112.196Z" fill="white"/>
<path d="M175.211 117.98L179.778 120.463L184.336 117.98L179.778 115.504L175.211 117.98Z" fill="white"/>
<path d="M169.109 106.859C179.277 98.1824 179.277 84.1147 169.109 75.438C158.94 66.7613 142.454 66.7613 132.285 75.438C122.117 84.1147 122.117 98.1824 132.285 106.859C142.454 115.536 158.94 115.536 169.109 106.859Z" fill="#076372"/>
<path opacity="0.7" d="M176.733 90.9822V91.1473C176.75 94.5945 175.827 97.9979 174.039 101.089C172.25 104.18 169.644 106.874 166.426 108.958C163.208 111.043 159.467 112.461 155.497 113.1C151.527 113.739 147.437 113.583 143.551 112.643C139.664 111.702 136.086 110.004 133.1 107.682C130.114 105.36 127.801 102.478 126.344 99.2624C124.887 96.0471 124.326 92.5869 124.704 89.1548C125.083 85.7227 126.391 82.4125 128.526 79.4857C127.183 84.814 128.274 90.3787 131.577 95.0437C134.879 99.7087 140.144 103.122 146.296 104.588C152.448 106.053 159.023 105.459 164.68 102.928C170.336 100.397 174.648 96.1192 176.733 90.9679V90.9822Z" fill="#076372"/>
<g opacity="0.1">
<path opacity="0.7" d="M176.733 90.9822V91.1473C176.75 94.5945 175.827 97.9979 174.039 101.089C172.25 104.18 169.644 106.874 166.426 108.958C163.208 111.043 159.467 112.461 155.497 113.1C151.527 113.739 147.437 113.583 143.551 112.643C139.664 111.702 136.086 110.004 133.1 107.682C130.114 105.36 127.801 102.478 126.344 99.2624C124.887 96.0471 124.326 92.5869 124.704 89.1548C125.083 85.7227 126.391 82.4125 128.526 79.4857C127.183 84.814 128.274 90.3787 131.577 95.0437C134.879 99.7087 140.144 103.122 146.296 104.588C152.448 106.053 159.023 105.459 164.68 102.928C170.336 100.397 174.648 96.1192 176.733 90.9679V90.9822Z" fill="black"/>
</g>
<path d="M151.284 79.8014C148.927 79.7957 146.621 80.3868 144.658 81.5C142.695 82.6131 141.164 84.1981 140.257 86.0545C139.351 87.9108 139.11 89.9549 139.566 91.9279C140.022 93.901 141.153 95.7143 142.817 97.1384C144.481 98.5624 146.603 99.5331 148.914 99.9275C151.225 100.322 153.622 100.122 155.8 99.3541C157.978 98.5858 159.84 97.2834 161.15 95.6117C162.46 93.94 163.159 91.9742 163.159 89.9631C163.159 87.273 161.909 84.6927 159.683 82.7878C157.457 80.8829 154.436 79.809 151.284 79.8014ZM156.759 94.513C156.711 94.5857 156.647 94.6492 156.569 94.6996C156.491 94.7499 156.402 94.786 156.308 94.8055C156.213 94.8251 156.114 94.8277 156.018 94.8131C155.922 94.7986 155.831 94.7673 155.75 94.7211C152.949 93.2427 149.442 92.9413 145.27 93.7523C145.082 93.7897 144.884 93.7636 144.718 93.6793C144.552 93.595 144.43 93.4591 144.379 93.3001C144.335 93.1386 144.365 92.9687 144.464 92.8258C144.562 92.6828 144.722 92.5777 144.909 92.5323C149.442 91.6711 153.369 92.0299 156.464 93.6518C156.554 93.6884 156.633 93.7407 156.697 93.8053C156.761 93.8698 156.809 93.9451 156.837 94.0264C156.864 94.1076 156.872 94.1929 156.858 94.2767C156.845 94.3606 156.811 94.4411 156.759 94.513ZM158.189 91.7213C158.133 91.8136 158.055 91.8945 157.959 91.9584C157.863 92.0224 157.752 92.0679 157.634 92.0917C157.516 92.1156 157.393 92.1173 157.274 92.0967C157.154 92.0762 157.042 92.0338 156.944 91.9725C155.157 91.1183 153.19 90.5756 151.156 90.376C149.121 90.1764 147.061 90.3239 145.094 90.8099C144.978 90.8463 144.855 90.8621 144.732 90.8566C144.609 90.851 144.488 90.8242 144.378 90.7777C144.267 90.7311 144.169 90.6659 144.089 90.586C144.009 90.506 143.949 90.413 143.912 90.3126C143.876 90.2122 143.864 90.1065 143.877 90.0019C143.889 89.8973 143.927 89.7961 143.987 89.7043C144.047 89.6125 144.129 89.5322 144.226 89.4681C144.324 89.404 144.436 89.3576 144.555 89.3316C146.783 88.7898 149.116 88.632 151.416 88.8673C153.716 89.1027 155.938 89.7265 157.953 90.7023C158.137 90.8075 158.266 90.9706 158.31 91.1561C158.354 91.3416 158.31 91.5344 158.189 91.6926V91.7213ZM158.306 88.8508C154.496 86.9203 148.13 86.6979 144.497 87.681C144.36 87.7192 144.215 87.734 144.072 87.7245C143.928 87.7151 143.788 87.6816 143.659 87.6259C143.531 87.5703 143.417 87.4936 143.323 87.4002C143.229 87.3069 143.158 87.1987 143.113 87.0818C143.068 86.965 143.051 86.8417 143.062 86.7192C143.073 86.5966 143.113 86.4771 143.178 86.3674C143.243 86.2578 143.333 86.1602 143.442 86.0803C143.552 86.0003 143.678 85.9395 143.815 85.9013C148.021 84.832 155.009 85.0401 159.416 87.272C159.674 87.4024 159.862 87.6131 159.94 87.8595C160.019 88.106 159.982 88.3688 159.837 88.5924C159.653 88.7758 159.402 88.9009 159.124 88.9478C158.846 88.9946 158.558 88.9605 158.306 88.8508Z" fill="white"/>
<path d="M149.963 143.097C159.769 143.097 167.717 136.314 167.717 127.948C167.717 119.581 159.769 112.798 149.963 112.798C140.158 112.798 132.209 119.581 132.209 127.948C132.209 136.314 140.158 143.097 149.963 143.097Z" fill="#076372"/>
<path d="M167.717 127.833V127.948C167.717 130.29 167.08 132.6 165.857 134.697C164.634 136.793 162.858 138.619 160.668 140.032C158.479 141.444 155.935 142.404 153.237 142.835C150.54 143.267 147.761 143.16 145.121 142.521C142.48 141.882 140.049 140.729 138.018 139.154C135.987 137.578 134.413 135.622 133.417 133.439C132.422 131.256 132.034 128.906 132.282 126.574C132.531 124.242 133.41 121.99 134.85 119.996C134.599 121.004 134.472 122.031 134.472 123.061C134.478 126.506 135.914 129.839 138.524 132.468C141.134 135.097 144.751 136.852 148.733 137.424C152.715 137.996 156.806 137.346 160.281 135.591C163.755 133.835 166.39 131.087 167.717 127.833Z" fill="#076372"/>
<path opacity="0.2" d="M167.717 127.833V127.948C167.717 130.29 167.08 132.6 165.857 134.697C164.634 136.793 162.858 138.619 160.668 140.032C158.479 141.444 155.935 142.404 153.237 142.835C150.54 143.267 147.761 143.16 145.121 142.521C142.48 141.882 140.049 140.729 138.018 139.154C135.987 137.578 134.413 135.622 133.417 133.439C132.422 131.256 132.034 128.906 132.282 126.574C132.531 124.242 133.41 121.99 134.85 119.996C134.599 121.004 134.472 122.031 134.472 123.061C134.478 126.506 135.914 129.839 138.524 132.468C141.134 135.097 144.751 136.852 148.733 137.424C152.715 137.996 156.806 137.346 160.281 135.591C163.755 133.835 166.39 131.087 167.717 127.833Z" fill="#076372"/>
<g opacity="0.1">
<path d="M167.717 127.833V127.948C167.717 130.29 167.08 132.6 165.857 134.697C164.634 136.793 162.858 138.619 160.668 140.032C158.479 141.444 155.935 142.404 153.237 142.835C150.54 143.267 147.761 143.16 145.121 142.521C142.48 141.882 140.049 140.729 138.018 139.154C135.987 137.578 134.413 135.622 133.417 133.439C132.422 131.256 132.034 128.906 132.282 126.574C132.531 124.242 133.41 121.99 134.85 119.996C134.599 121.004 134.472 122.031 134.472 123.061C134.478 126.506 135.914 129.839 138.524 132.468C141.134 135.097 144.751 136.852 148.733 137.424C152.715 137.996 156.806 137.346 160.281 135.591C163.755 133.835 166.39 131.087 167.717 127.833Z" fill="black"/>
<path opacity="0.2" d="M167.717 127.833V127.948C167.717 130.29 167.08 132.6 165.857 134.697C164.634 136.793 162.858 138.619 160.668 140.032C158.479 141.444 155.935 142.404 153.237 142.835C150.54 143.267 147.761 143.16 145.121 142.521C142.48 141.882 140.049 140.729 138.018 139.154C135.987 137.578 134.413 135.622 133.417 133.439C132.422 131.256 132.034 128.906 132.282 126.574C132.531 124.242 133.41 121.99 134.85 119.996C134.599 121.004 134.472 122.031 134.472 123.061C134.478 126.506 135.914 129.839 138.524 132.468C141.134 135.097 144.751 136.852 148.733 137.424C152.715 137.996 156.806 137.346 160.281 135.591C163.755 133.835 166.39 131.087 167.717 127.833Z" fill="black"/>
</g>
<path d="M142.815 126.807C142.813 127.7 143.019 128.585 143.419 129.411C143.82 130.237 144.407 130.987 145.147 131.619C145.888 132.251 146.767 132.752 147.735 133.094C148.703 133.435 149.74 133.611 150.787 133.61C151.287 133.61 151.786 133.569 152.276 133.488C152.982 133.852 153.789 134.049 154.613 134.059C155.438 134.07 156.251 133.893 156.969 133.547C157.687 133.2 158.285 132.697 158.7 132.089C159.115 131.481 159.333 130.79 159.332 130.086C159.336 129.348 159.094 128.624 158.634 127.998C158.715 127.605 158.757 127.206 158.76 126.807C158.758 125.003 157.917 123.274 156.423 121.998C154.928 120.723 152.901 120.005 150.787 120.003C150.293 120.004 149.801 120.045 149.316 120.125C148.425 119.681 147.386 119.501 146.362 119.616C145.339 119.73 144.389 120.132 143.663 120.757C142.936 121.383 142.474 122.197 142.35 123.071C142.225 123.946 142.445 124.831 142.974 125.587C142.878 125.988 142.824 126.397 142.815 126.807ZM150.872 121.977C153.445 122.106 154.951 123.068 155.077 123.972C155.099 124.111 155.084 124.253 155.033 124.386C154.983 124.519 154.897 124.641 154.782 124.742C154.668 124.843 154.529 124.92 154.374 124.968C154.22 125.017 154.054 125.034 153.891 125.02C152.73 125.02 152.613 123.692 150.611 123.692C149.711 123.692 148.929 124.015 148.929 124.711C148.929 126.146 155.346 125.321 155.346 128.515C155.346 130.359 153.613 131.565 151.031 131.565C148.761 131.565 146.481 130.689 146.49 129.175C146.483 128.954 146.576 128.74 146.75 128.577C146.924 128.413 147.165 128.314 147.423 128.299C148.761 128.299 148.752 130 150.88 130C152.377 130 152.882 129.283 152.882 128.816C152.882 127.065 146.431 128.141 146.431 124.848C146.465 123.053 148.18 121.826 150.872 121.963V121.977Z" fill="white"/>
<path d="M108.935 99.4069C111.574 89.7617 104.55 80.1174 93.2461 77.8658C81.9425 75.6142 70.64 81.6079 68.0013 91.2531C65.3625 100.898 72.3868 110.543 83.6903 112.794C94.9939 115.046 106.296 109.052 108.935 99.4069Z" fill="#076372"/>
<path opacity="0.5" d="M109.485 95.2306V95.367C109.478 98.1398 108.718 100.873 107.264 103.353C105.811 105.833 103.704 107.992 101.108 109.66C98.5122 111.328 95.4986 112.46 92.3039 112.967C89.1091 113.475 85.8201 113.343 82.6951 112.583C79.57 111.822 76.694 110.455 74.2927 108.586C71.8915 106.718 70.0304 104.4 68.8556 101.815C67.6808 99.2299 67.2243 96.4475 67.5218 93.6863C67.8193 90.9252 68.8629 88.2604 70.5705 85.9013C70.2756 87.0954 70.1262 88.3123 70.1247 89.5326C70.1227 93.6167 71.8174 97.5693 74.9077 100.688C77.9981 103.807 82.284 105.89 87.0041 106.567C91.7242 107.244 96.5729 106.472 100.689 104.387C104.805 102.303 107.921 99.0405 109.485 95.1804V95.2306Z" fill="#076372"/>
<path opacity="0.1" d="M109.485 95.2306V95.367C109.478 98.1398 108.718 100.873 107.264 103.353C105.811 105.833 103.704 107.992 101.108 109.66C98.5122 111.328 95.4986 112.46 92.3039 112.967C89.1091 113.475 85.8201 113.343 82.6951 112.583C79.57 111.822 76.694 110.455 74.2927 108.586C71.8915 106.718 70.0304 104.4 68.8556 101.815C67.6808 99.2299 67.2243 96.4475 67.5218 93.6863C67.8193 90.9252 68.8629 88.2604 70.5705 85.9013C70.2756 87.0954 70.1262 88.3123 70.1247 89.5326C70.1227 93.6167 71.8174 97.5693 74.9077 100.688C77.9981 103.807 82.284 105.89 87.0041 106.567C91.7242 107.244 96.5729 106.472 100.689 104.387C104.805 102.303 107.921 99.0405 109.485 95.1804V95.2306Z" fill="black"/>
<path fill-rule="evenodd" clip-rule="evenodd" d="M96.5161 96.5582C96.3514 96.4841 96.1761 96.4286 95.9946 96.3931C95.1398 96.1443 94.3925 95.6817 93.85 95.0655C93.5466 94.7346 93.3029 94.367 93.1267 93.9747C93.0825 93.9027 93.0594 93.8227 93.0594 93.7414C93.0594 93.6602 93.0825 93.5802 93.1267 93.5082C93.3201 93.3184 93.5745 93.1811 93.8584 93.1135C94.2197 93.0245 94.5569 92.8758 94.8508 92.6758C94.9127 92.6367 94.9619 92.5848 94.9938 92.525C94.995 92.5035 94.995 92.482 94.9938 92.4605C95.0105 92.4264 95.019 92.3898 95.019 92.3528C95.019 92.3159 95.0105 92.2793 94.9938 92.2452C94.9145 92.1218 94.7906 92.0237 94.6406 91.9653C94.5505 91.9222 94.4509 91.8955 94.3482 91.8869C94.2454 91.8782 94.1417 91.8878 94.0435 91.9151C93.8704 91.97 93.6934 92.0156 93.5136 92.0514C93.3156 92.0989 93.1061 92.0989 92.9081 92.0514C92.9111 92.0156 92.9111 91.9796 92.9081 91.9438C92.9081 91.6352 92.9081 91.3122 92.9081 90.9821C92.958 90.4687 92.958 89.9526 92.9081 89.4392C92.6949 88.5629 92.092 87.7912 91.226 87.2863C90.6161 86.9091 89.8987 86.6786 89.1487 86.6189C88.9021 86.6083 88.6551 86.6083 88.4086 86.6189C87.3935 86.6038 86.4007 86.8736 85.5827 87.3868C84.9827 87.79 84.5112 88.3157 84.2119 88.9153C83.9797 89.5186 83.9022 90.1573 83.9848 90.7884C84.0221 91.1968 84.0221 91.6071 83.9848 92.0155C83.7487 92.0546 83.506 92.0546 83.2699 92.0155C83.0847 91.9822 82.9022 91.939 82.7233 91.8863C82.6317 91.8694 82.5369 91.8696 82.4454 91.8869C82.3539 91.9043 82.2679 91.9384 82.1934 91.9868C82.1137 92.0225 82.0457 92.0748 81.9957 92.1387C81.9458 92.2027 81.9154 92.2763 81.9075 92.3528C81.936 92.4513 82.0009 92.5393 82.0925 92.604L82.2775 92.7188C82.6277 92.8914 83.0003 93.0287 83.3877 93.1279C83.5011 93.1614 83.6049 93.2152 83.6919 93.2858C83.7789 93.3563 83.8473 93.442 83.8923 93.5369C83.9181 93.7885 83.8473 94.0404 83.6904 94.2546C83.3004 94.9142 82.7219 95.4794 82.0084 95.8979C81.6287 96.1193 81.2078 96.2843 80.7637 96.3859C80.5893 96.4089 80.4308 96.4855 80.3179 96.6012C80.3216 96.6154 80.3216 96.6301 80.3179 96.6443C80.2997 96.6943 80.2963 96.7473 80.308 96.7987C80.3198 96.85 80.3463 96.8981 80.3852 96.9385C80.4369 96.9939 80.5032 97.0382 80.5786 97.0677C80.9396 97.2267 81.3245 97.3426 81.7224 97.4122C81.965 97.4463 82.204 97.4967 82.4373 97.5629C82.4373 97.5629 82.4373 97.6346 82.513 97.7279C82.5887 97.8212 82.6055 98.1083 82.6812 98.3236C82.693 98.3533 82.7142 98.3797 82.7423 98.4C82.7705 98.4202 82.8046 98.4335 82.841 98.4384C82.9279 98.4653 83.0232 98.4653 83.1101 98.4384C83.7023 98.3163 84.3172 98.2968 84.9183 98.381C85.5168 98.5775 86.0824 98.8405 86.6004 99.1632C87.0025 99.4049 87.4727 99.551 87.9628 99.5866C88.3465 99.6083 88.7314 99.6083 89.1151 99.5866C89.4347 99.5572 89.7423 99.4665 90.0149 99.3211C90.5832 99.0042 91.1699 98.712 91.7727 98.4456C92.003 98.3933 92.2409 98.3691 92.4792 98.3738C92.9738 98.3593 93.469 98.3809 93.9594 98.4384H94.0098C94.076 98.4275 94.1356 98.397 94.178 98.3523C94.1928 98.3416 94.205 98.3284 94.2136 98.3136C94.2223 98.2988 94.2274 98.2827 94.2285 98.2662C94.2285 98.2016 94.2285 98.2231 94.2285 98.2662C94.233 98.2545 94.233 98.2419 94.2285 98.2303C94.2794 98.0093 94.3762 97.7978 94.5144 97.6059C94.6039 97.549 94.7142 97.521 94.8256 97.527C95.2288 97.4705 95.6236 97.3766 96.003 97.2471C96.1897 97.1964 96.3558 97.1019 96.4824 96.9744C96.5088 96.9417 96.5272 96.9048 96.5364 96.8658C96.5456 96.8269 96.5455 96.7868 96.5361 96.7479C96.5267 96.709 96.5081 96.6722 96.4815 96.6396C96.455 96.6069 96.421 96.5793 96.3815 96.5582H96.5161Z" fill="white"/>
<path d="M185.336 64.6162C188.534 54.6503 181.657 44.3597 169.978 41.6315C158.299 38.9032 146.239 44.7705 143.041 54.7364C139.844 64.7023 146.72 74.993 158.4 77.7212C170.079 80.4495 182.139 74.5821 185.336 64.6162Z" fill="#076372"/>
<path opacity="0.5" d="M186.102 59.5281V59.6716C186.097 62.5619 185.307 65.4119 183.795 67.998C182.282 70.5841 180.088 72.8361 177.385 74.5772C174.681 76.3183 171.541 77.5012 168.212 78.0331C164.883 78.5651 161.454 78.4316 158.195 77.6431C154.937 76.8547 151.936 75.4327 149.43 73.4887C146.923 71.5447 144.978 69.1316 143.748 66.4387C142.518 63.7458 142.036 60.8463 142.339 57.9677C142.643 55.089 143.724 52.3095 145.497 49.8472C144.382 54.3292 145.309 59.0055 148.091 62.9249C150.872 66.8443 155.299 69.7123 160.471 70.9456C165.642 72.1789 171.17 71.6848 175.93 69.5638C180.69 67.4428 184.324 63.8543 186.094 59.5281H186.102Z" fill="#076372"/>
<path opacity="0.1" d="M186.102 59.5281V59.6716C186.097 62.5619 185.307 65.4119 183.795 67.998C182.282 70.5841 180.088 72.8361 177.385 74.5772C174.681 76.3183 171.541 77.5012 168.212 78.0331C164.883 78.5651 161.454 78.4316 158.195 77.6431C154.937 76.8547 151.936 75.4327 149.43 73.4887C146.923 71.5447 144.978 69.1316 143.748 66.4387C142.518 63.7458 142.036 60.8463 142.339 57.9677C142.643 55.089 143.724 52.3095 145.497 49.8472C144.382 54.3292 145.309 59.0055 148.091 62.9249C150.872 66.8443 155.299 69.7123 160.471 70.9456C165.642 72.1789 171.17 71.6848 175.93 69.5638C180.69 67.4428 184.324 63.8543 186.094 59.5281H186.102Z" fill="#076372"/>
<g opacity="0.1">
<path opacity="0.5" d="M186.102 59.5281V59.6716C186.097 62.5619 185.307 65.4119 183.795 67.998C182.282 70.5841 180.088 72.8361 177.385 74.5772C174.681 76.3183 171.541 77.5012 168.212 78.0331C164.883 78.5651 161.454 78.4316 158.195 77.6431C154.937 76.8547 151.936 75.4327 149.43 73.4887C146.923 71.5447 144.978 69.1316 143.748 66.4387C142.518 63.7458 142.036 60.8463 142.339 57.9677C142.643 55.089 143.724 52.3095 145.497 49.8472C144.382 54.3292 145.309 59.0055 148.091 62.9249C150.872 66.8443 155.299 69.7123 160.471 70.9456C165.642 72.1789 171.17 71.6848 175.93 69.5638C180.69 67.4428 184.324 63.8543 186.094 59.5281H186.102Z" fill="black"/>
<path opacity="0.1" d="M186.102 59.5281V59.6716C186.097 62.5619 185.307 65.4119 183.795 67.998C182.282 70.5841 180.088 72.8361 177.385 74.5772C174.681 76.3183 171.541 77.5012 168.212 78.0331C164.883 78.5651 161.454 78.4316 158.195 77.6431C154.937 76.8547 151.936 75.4327 149.43 73.4887C146.923 71.5447 144.978 69.1316 143.748 66.4387C142.518 63.7458 142.036 60.8463 142.339 57.9677C142.643 55.089 143.724 52.3095 145.497 49.8472C144.382 54.3292 145.309 59.0055 148.091 62.9249C150.872 66.8443 155.299 69.7123 160.471 70.9456C165.642 72.1789 171.17 71.6848 175.93 69.5638C180.69 67.4428 184.324 63.8543 186.094 59.5281H186.102Z" fill="black"/>
</g>
<path fill-rule="evenodd" clip-rule="evenodd" d="M172.057 57.4541C171.984 55.8034 171.169 54.24 169.781 53.0888C168.393 51.9375 166.538 51.2869 164.602 51.2721C162.667 51.2573 160.799 51.8795 159.386 53.0094C157.974 54.1392 157.127 55.6899 157.019 57.3393C157.019 57.4325 157.019 57.5258 157.019 57.6191C157.018 58.7782 157.391 59.9152 158.096 60.9059L156.742 64.3291L160.905 63.1952C162.021 63.7178 163.274 63.9918 164.547 63.9918C165.531 63.9946 166.506 63.832 167.416 63.5133C168.327 63.1946 169.155 62.7259 169.853 62.1342C170.551 61.5424 171.106 60.8391 171.485 60.0644C171.865 59.2897 172.062 58.4588 172.065 57.6191L172.057 57.4541ZM164.538 62.9727C163.3 62.9762 162.088 62.6665 161.056 62.0828L158.626 62.7502L159.416 60.7552C158.631 59.8467 158.207 58.7479 158.205 57.6191C158.205 57.4397 158.205 57.2675 158.205 57.0953C158.36 55.7515 159.099 54.506 160.277 53.6039C161.454 52.7019 162.985 52.2086 164.567 52.2212C166.149 52.2338 167.669 52.7513 168.826 53.672C169.984 54.5927 170.695 55.8498 170.821 57.1957C170.821 57.3393 170.821 57.4756 170.821 57.6191C170.81 59.0373 170.144 60.3946 168.968 61.3968C167.792 62.399 166.2 62.9652 164.538 62.9727Z" fill="white"/>
<path fill-rule="evenodd" clip-rule="evenodd" d="M167.986 58.9037C167.801 58.8248 166.893 58.4444 166.725 58.3942C166.557 58.344 166.431 58.3153 166.304 58.4731C166.178 58.631 165.825 58.9827 165.724 59.0831C165.623 59.1836 165.505 59.198 165.32 59.119C164.775 58.9409 164.273 58.6781 163.84 58.344C163.435 58.0329 163.088 57.6697 162.814 57.2675C162.794 57.2428 162.78 57.2148 162.773 57.1853C162.766 57.1558 162.766 57.1253 162.773 57.0958C162.78 57.0663 162.794 57.0383 162.814 57.0135C162.834 56.9887 162.86 56.9677 162.89 56.9518C162.982 56.88 163.075 56.7652 163.176 56.6719L163.243 56.6001C163.285 56.5427 163.31 56.4853 163.352 56.4135C163.38 56.3718 163.394 56.3249 163.394 56.2772C163.394 56.2294 163.38 56.1825 163.352 56.1408C163.302 56.0619 162.932 55.294 162.781 54.9783C162.629 54.6625 162.469 54.7199 162.36 54.7199H162.015C161.922 54.7225 161.829 54.741 161.744 54.7742C161.659 54.8075 161.583 54.8549 161.519 54.9137C161.311 55.0813 161.146 55.284 161.035 55.5088C160.923 55.7336 160.868 55.9757 160.871 56.2198C160.875 56.4 160.909 56.5788 160.972 56.7508C161.113 57.1427 161.335 57.5097 161.628 57.8345C162.396 58.8583 163.486 59.6767 164.774 60.1955C166.658 60.8198 166.658 60.6117 166.994 60.583C167.25 60.546 167.493 60.4629 167.707 60.3391C167.922 60.2153 168.103 60.0538 168.239 59.8654C168.352 59.6392 168.389 59.391 168.348 59.1477C168.289 59.0186 168.205 58.9827 167.986 58.9037Z" fill="white"/>
<path d="M292.432 134.773C294.991 129.642 294.308 124.481 290.906 123.245C287.503 122.01 282.671 125.168 280.112 130.3C277.554 135.431 278.237 140.592 281.639 141.827C285.041 143.063 289.874 139.904 292.432 134.773Z" fill="#076372"/>
<path opacity="0.2" d="M292.432 134.773C294.991 129.642 294.308 124.481 290.906 123.245C287.503 122.01 282.671 125.168 280.112 130.3C277.554 135.431 278.237 140.592 281.639 141.827C285.041 143.063 289.874 139.904 292.432 134.773Z" fill="black"/>
<path d="M285.318 143.664L281.273 141.676L291.382 123.434L295.452 125.465L285.318 143.664Z" fill="#076372"/>
<path opacity="0.2" d="M285.318 143.664L281.273 141.676L291.382 123.434L295.452 125.465L285.318 143.664Z" fill="black"/>
<path d="M290.162 146.901L286.109 144.906L286.066 143.047H290.162V146.901Z" fill="#076372"/>
<path d="M290.162 146.901L286.109 144.906L286.066 143.047H290.162V146.901Z" fill="#076372"/>
<path d="M290.162 146.901L286.109 144.906L286.066 143.047H290.162V146.901Z" fill="#076372"/>
<path opacity="0.2" d="M290.162 146.901L286.109 144.906L286.066 143.047H290.162V146.901Z" fill="black"/>
<path d="M288.581 143.951L290.087 146.822C290.105 146.864 290.139 146.9 290.182 146.926C290.226 146.952 290.278 146.965 290.33 146.965C290.383 146.965 290.435 146.952 290.479 146.926C290.522 146.9 290.556 146.864 290.574 146.822L292.172 142.207V140.442L288.581 142.207V143.951Z" fill="#076372"/>
<path d="M284.485 141.927L285.991 144.798C286.009 144.84 286.043 144.877 286.086 144.902C286.13 144.928 286.182 144.942 286.235 144.942C286.288 144.942 286.339 144.928 286.383 144.902C286.426 144.877 286.46 144.84 286.479 144.798L288.068 140.191V138.425L284.485 140.191V141.927Z" fill="#076372"/>
<path opacity="0.2" d="M284.485 141.927L285.991 144.798C286.009 144.84 286.043 144.877 286.086 144.902C286.13 144.928 286.182 144.942 286.235 144.942C286.288 144.942 286.339 144.928 286.383 144.902C286.426 144.877 286.46 144.84 286.479 144.798L288.068 140.191V138.425L284.485 140.191V141.927Z" fill="black"/>
<path d="M298.085 130.761C298.085 135.605 294.637 141.231 290.373 143.327C286.109 145.422 282.669 143.198 282.669 138.353C282.669 133.509 286.117 127.89 290.373 125.788C294.628 123.685 298.085 125.917 298.085 130.761Z" fill="#076372"/>
<path d="M293.922 132.455C294.103 132.317 294.249 132.149 294.351 131.961C294.454 131.774 294.511 131.571 294.519 131.364C294.519 130.912 294.191 130.703 293.795 130.897L291.642 131.959C291.722 131.85 291.781 131.732 291.819 131.608L291.945 131.184C292.152 130.493 292.248 129.781 292.231 129.067C292.231 128.73 291.97 128.579 291.668 128.73C291.526 128.813 291.404 128.919 291.31 129.042C291.216 129.165 291.152 129.303 291.121 129.448L290.894 130.452C290.869 130.543 290.835 130.632 290.793 130.718L289.363 133.517C288.923 134.008 288.603 134.569 288.421 135.167V138.461C288.421 138.691 288.833 138.798 289.035 138.698L291.701 137.449L293.493 136.595C293.682 136.484 293.838 136.336 293.949 136.165C294.06 135.993 294.123 135.801 294.132 135.605C294.132 135.304 293.972 135.138 293.728 135.16C293.888 135.04 294.017 134.893 294.108 134.729C294.199 134.565 294.25 134.387 294.258 134.206C294.268 134.124 294.254 134.043 294.217 133.967C294.18 133.892 294.122 133.826 294.048 133.775C294.283 133.529 294.418 133.224 294.435 132.907C294.435 132.548 294.216 132.39 293.922 132.455Z" fill="white"/>
<path d="M285.772 140.779L287.454 139.904C287.528 139.849 287.585 139.78 287.622 139.703C287.658 139.625 287.673 139.542 287.664 139.459V135.354C287.664 135.182 287.513 135.103 287.362 135.174L285.747 136.057C285.595 136.129 285.646 136.33 285.646 136.502V140.6C285.68 140.772 285.621 140.851 285.772 140.779Z" fill="white"/>
<path d="M48.6583 141.835C52.0604 140.6 52.7441 135.439 50.1853 130.308C47.6265 125.176 42.7942 122.018 39.3921 123.253C35.99 124.488 35.3063 129.649 37.8651 134.781C40.4239 139.912 45.2562 143.07 48.6583 141.835Z" fill="#076372"/>
<g opacity="0.2">
<path d="M48.6583 141.835C52.0604 140.6 52.7441 135.439 50.1853 130.308C47.6265 125.176 42.7942 122.018 39.3921 123.253C35.99 124.488 35.3063 129.649 37.8651 134.781C40.4239 139.912 45.2562 143.07 48.6583 141.835Z" fill="black"/>
</g>
<path d="M44.9865 143.664L49.0318 141.676L38.9227 123.434L34.8521 125.465L44.9865 143.664Z" fill="#076372"/>
<path opacity="0.2" d="M44.9865 143.664L49.0318 141.676L38.9227 123.434L34.8521 125.465L44.9865 143.664Z" fill="black"/>
<path d="M40.1422 146.901L44.1959 144.906L44.2379 143.047H40.1422V146.901Z" fill="#076372"/>
<path d="M40.1422 146.901L44.1959 144.906L44.2379 143.047H40.1422V146.901Z" fill="#076372"/>
<path opacity="0.2" d="M40.1422 146.901L44.1959 144.906L44.2379 143.047H40.1422V146.901Z" fill="white"/>
<path d="M41.7233 143.951L40.2179 146.822C40.1991 146.864 40.1658 146.9 40.1222 146.926C40.0786 146.952 40.0269 146.965 39.974 146.965C39.921 146.965 39.8693 146.952 39.8257 146.926C39.7821 146.9 39.7488 146.864 39.7301 146.822L38.1321 142.207V140.442L41.7233 142.207V143.951Z" fill="#076372"/>
<path d="M45.8191 141.927L44.3136 144.798C44.2949 144.84 44.2616 144.877 44.218 144.902C44.1744 144.928 44.1227 144.942 44.0697 144.942C44.0168 144.942 43.9651 144.928 43.9215 144.902C43.8779 144.877 43.8446 144.84 43.8258 144.798L42.2363 140.191V138.425L45.8191 140.191V141.927Z" fill="#076372"/>
<g opacity="0.2">
<path d="M45.8191 141.927L44.3136 144.798C44.2949 144.84 44.2616 144.877 44.218 144.902C44.1744 144.928 44.1227 144.942 44.0697 144.942C44.0168 144.942 43.9651 144.928 43.9215 144.902C43.8779 144.877 43.8446 144.84 43.8258 144.798L42.2363 140.191V138.425L45.8191 140.191V141.927Z" fill="white"/>
</g>
<path d="M44.5716 143.873C47.9822 142.635 48.6684 137.462 46.1042 132.32C43.5399 127.178 38.6963 124.013 35.2856 125.252C31.8749 126.49 31.1888 131.662 33.753 136.805C36.3173 141.947 41.1609 145.112 44.5716 143.873Z" fill="#076372"/>
<path d="M45.2051 137.076C45.2707 138.206 44.8787 139.321 44.095 140.234C43.1194 141.224 41.6224 141.461 39.8899 140.628C37.981 139.528 36.5133 137.955 35.6847 136.122C34.9909 134.784 34.6136 133.343 34.5746 131.88L45.2051 137.076Z" fill="#076372"/>
<path opacity="0.3" d="M45.2051 137.076C45.2707 138.206 44.8787 139.321 44.095 140.234C43.1194 141.224 41.6224 141.461 39.8899 140.628C37.981 139.528 36.5133 137.955 35.6847 136.122C34.9909 134.784 34.6136 133.343 34.5746 131.88L45.2051 137.076Z" fill="black"/>
<path d="M44.095 140.234C43.1194 141.224 41.6224 141.461 39.8899 140.628C37.981 139.528 36.5133 137.955 35.6848 136.122C36.7613 135.461 38.2078 135.454 39.8899 136.244C41.6918 137.221 43.146 138.601 44.095 140.234Z" fill="#076372"/>
<path opacity="0.2" d="M44.095 140.234C43.1194 141.224 41.6224 141.461 39.8899 140.628C37.981 139.528 36.5133 137.955 35.6848 136.122C36.7613 135.461 38.2078 135.454 39.8899 136.244C41.6918 137.221 43.146 138.601 44.095 140.234Z" fill="white"/>
<path d="M44.8267 135.009C44.7108 135.008 44.5997 134.969 44.5155 134.902L41.7737 132.684C41.7107 132.634 41.666 132.569 41.6451 132.498C41.6242 132.427 41.628 132.352 41.656 132.282C41.6868 132.214 41.7393 132.154 41.8076 132.11C41.876 132.065 41.9574 132.038 42.0429 132.031L44.1538 131.866C44.2717 131.858 44.3886 131.889 44.4797 131.954C44.5708 132.018 44.6289 132.11 44.6416 132.21C44.6474 132.26 44.6415 132.311 44.6243 132.359C44.6072 132.407 44.579 132.452 44.5414 132.49C44.5039 132.529 44.4578 132.561 44.4057 132.584C44.3536 132.608 44.2966 132.622 44.2379 132.627L43.1025 132.713L45.1294 134.349C45.1955 134.401 45.2417 134.469 45.2619 134.543C45.2821 134.618 45.2754 134.696 45.2427 134.767C45.21 134.839 45.1527 134.9 45.0785 134.943C45.0042 134.986 44.9165 135.009 44.8267 135.009Z" fill="#076372"/>
<g opacity="0.2">
<path d="M44.8267 135.009C44.7108 135.008 44.5997 134.969 44.5155 134.902L41.7737 132.684C41.7107 132.634 41.666 132.569 41.6451 132.498C41.6242 132.427 41.628 132.352 41.656 132.282C41.6868 132.214 41.7393 132.154 41.8076 132.11C41.876 132.065 41.9574 132.038 42.0429 132.031L44.1538 131.866C44.2717 131.858 44.3886 131.889 44.4797 131.954C44.5708 132.018 44.6289 132.11 44.6416 132.21C44.6474 132.26 44.6415 132.311 44.6243 132.359C44.6072 132.407 44.579 132.452 44.5414 132.49C44.5039 132.529 44.4578 132.561 44.4057 132.584C44.3536 132.608 44.2966 132.622 44.2379 132.627L43.1025 132.713L45.1294 134.349C45.1955 134.401 45.2417 134.469 45.2619 134.543C45.2821 134.618 45.2754 134.696 45.2427 134.767C45.21 134.839 45.1527 134.9 45.0785 134.943C45.0042 134.986 44.9165 135.009 44.8267 135.009Z" fill="black"/>
</g>
<path d="M37.8462 130.718H37.7621L35.0119 130.23C34.9436 130.233 34.8755 130.222 34.8129 130.198C34.7503 130.175 34.6948 130.139 34.6508 130.095C34.6068 130.05 34.5754 129.998 34.559 129.941C34.5427 129.884 34.5418 129.825 34.5565 129.768C34.5712 129.711 34.601 129.658 34.6437 129.612C34.6864 129.567 34.7409 129.53 34.8028 129.505C34.8647 129.481 34.9324 129.468 35.0008 129.47C35.0691 129.471 35.1363 129.485 35.197 129.512L36.7192 129.785L35.382 128.35C35.3073 128.271 35.2724 128.17 35.285 128.069C35.2976 127.968 35.3567 127.875 35.4493 127.811C35.5418 127.748 35.6603 127.718 35.7786 127.729C35.8969 127.739 36.0053 127.79 36.08 127.869L38.1994 130.122C38.2511 130.187 38.2788 130.263 38.2788 130.341C38.2788 130.419 38.2511 130.496 38.1994 130.56C38.1589 130.608 38.106 130.647 38.0446 130.675C37.9833 130.702 37.9154 130.717 37.8462 130.718Z" fill="#076372"/>
<g opacity="0.2">
<path d="M37.8462 130.718H37.7621L35.0119 130.23C34.9436 130.233 34.8755 130.222 34.8129 130.198C34.7503 130.175 34.6948 130.139 34.6508 130.095C34.6068 130.05 34.5754 129.998 34.559 129.941C34.5427 129.884 34.5418 129.825 34.5565 129.768C34.5712 129.711 34.601 129.658 34.6437 129.612C34.6864 129.567 34.7409 129.53 34.8028 129.505C34.8647 129.481 34.9324 129.468 35.0008 129.47C35.0691 129.471 35.1363 129.485 35.197 129.512L36.7192 129.785L35.382 128.35C35.3073 128.271 35.2724 128.17 35.285 128.069C35.2976 127.968 35.3567 127.875 35.4493 127.811C35.5418 127.748 35.6603 127.718 35.7786 127.729C35.8969 127.739 36.0053 127.79 36.08 127.869L38.1994 130.122C38.2511 130.187 38.2788 130.263 38.2788 130.341C38.2788 130.419 38.2511 130.496 38.1994 130.56C38.1589 130.608 38.106 130.647 38.0446 130.675C37.9833 130.702 37.9154 130.717 37.8462 130.718Z" fill="black"/>
</g>
<path d="M273.232 185.007C273.619 185.832 276.033 190.188 279.246 188.107C283.123 185.596 287.992 174.243 287.992 174.243L284.41 172.807L277.538 182.33L273.224 185.007" fill="#F28F8F"/>
<path d="M273.459 166.693C275.142 171.602 278.623 182.531 278.623 182.531C278.623 182.531 277.194 189.205 274.679 186.909C273.838 186.134 273.392 185.416 272.501 183.55C271.71 181.871 269.347 175.025 269.347 175.025C269.347 175.025 269.851 165.186 268.052 163.887C267.085 163.15 265.963 162.576 264.746 162.193C267.614 162.387 271.887 162.193 273.459 166.693Z" fill="#F28F8F"/>
<path d="M264.713 162.172C266.161 162.097 267.614 162.165 269.044 162.373C270.726 162.717 272.543 164.052 273.359 166.435C274.174 168.817 277.698 179.618 277.698 179.618C277.698 179.618 276.269 181.771 270.869 181.814L264.713 162.172Z" fill="#37474F"/>
<path d="M281.525 167.396C282.475 165.889 282.711 165.817 283.274 165.487C283.838 165.157 287.311 164.719 288.749 164.612C290.431 164.49 291.037 164.755 290.566 165.997C289.271 169.128 287.684 172.166 285.823 175.082C285.377 175.592 285.284 176.065 283.375 176.223C281.601 176.374 279.372 176.46 278.716 176.489C278.06 176.517 277.152 176.661 277.74 175.018C278.489 173.153 279.356 171.325 280.339 169.542C281.071 168.186 281.525 167.396 281.525 167.396Z" fill="#263238"/>
<path d="M287.992 174.243C288.699 171.573 290.776 169.111 289.607 168.207L288.976 169.384C288.976 169.384 285.082 170.181 283.207 170.059C281.331 169.937 279.784 169.556 279.271 169.865C278.178 170.525 277.866 173.317 280.995 174.336C283.653 175.197 287.992 174.243 287.992 174.243Z" fill="#F28F8F"/>
<path d="M262.72 158.763H259.44C257.98 158.764 256.534 158.52 255.185 158.044C253.837 157.568 252.611 156.869 251.578 155.989C250.546 155.109 249.727 154.063 249.168 152.913C248.609 151.762 248.321 150.529 248.321 149.283C248.321 146.396 249.665 143.627 252.058 141.585C254.451 139.544 257.696 138.397 261.08 138.397C264.463 138.397 267.708 139.544 270.101 141.585C272.494 143.627 273.838 146.396 273.838 149.283C273.838 150.529 273.55 151.762 272.991 152.913C272.433 154.063 271.613 155.109 270.581 155.989C269.548 156.869 268.323 157.568 266.974 158.044C265.625 158.52 264.179 158.764 262.72 158.763Z" fill="#263238"/>
<path d="M242.215 164.583C244.284 164.583 246.268 163.883 247.731 162.635C249.195 161.388 250.018 159.696 250.02 157.931V145.3C247.95 145.3 245.965 146.002 244.501 147.251C243.038 148.5 242.215 150.194 242.215 151.96V164.583Z" fill="#263238"/>
<path d="M263.039 258.543C263.008 259.073 263.167 259.599 263.493 260.051C264.319 261.225 265.295 262.318 266.403 263.309C267.959 264.744 270.289 266.423 271.962 267.672C272.888 268.389 272.921 269.409 271.601 269.775C269.124 270.289 266.51 269.979 264.292 268.906C262.61 268.145 260.272 264.6 258.885 264.098C257.303 263.488 256.412 263.179 255.874 262.555C255.46 262.203 255.201 261.74 255.143 261.244C255.085 260.748 255.23 260.25 255.554 259.835C256.303 258.651 257.421 256.821 257.884 257.022L257.741 257.402C258.102 258.371 261.197 259.498 262.787 259.225L263.039 258.543Z" fill="#263238"/>
<path d="M264.435 253.872C263.828 255.4 263.364 256.967 263.048 258.558C263.002 259.083 263.155 259.606 263.485 260.051C264.321 261.223 265.299 262.318 266.403 263.316C267.16 264.033 268.085 264.751 269.069 265.469C269.151 265.57 269.198 265.69 269.204 265.813C269.204 266.531 267.093 266.753 265.84 266.445C264.287 265.975 262.947 265.098 262.013 263.94C261.298 263.129 259.692 261.565 258.649 260.402C258.298 260.042 257.999 259.647 257.758 259.225C257.477 258.697 257.432 258.1 257.631 257.546L257.69 257.374C258.243 255.923 258.582 254.418 258.7 252.896" fill="#FFA8A7"/>
<path d="M249.785 260.158C250.047 261.522 250.179 262.902 250.18 264.285V267.342H255.487V262.132C255.502 262.13 255.516 262.127 255.529 262.12C255.542 262.114 255.553 262.106 255.562 262.096C255.562 262.096 255.655 261.077 255.798 259.469" fill="#FFA8A7"/>
<path d="M264.435 253.872C267.37 245.777 273.897 231.288 274.788 228.754C275.747 226.049 274.385 202.345 273.611 194.76L246.16 193.547C244.057 201.24 246.109 211.61 246.833 218.083C247.531 224.391 248.397 231.754 248.397 231.754C248.397 231.754 246.236 238.177 246.807 243.294C247.177 246.516 248.96 256.039 249.768 260.194C250.774 260.432 251.827 260.491 252.862 260.367C253.896 260.244 254.89 259.941 255.781 259.476C256.118 255.831 256.765 249.171 257.362 244.822C258.279 238.292 258.582 233.527 259.372 229.709C260.356 224.951 260.701 206.299 260.701 206.299L263.889 227.455C262.625 229.441 261.664 231.556 261.029 233.749C260.121 236.756 259.145 248.044 258.75 252.932C260.146 253.75 262.064 254.051 264.435 253.872Z" fill="#37474F"/>
<path d="M260.718 206.292C260.718 206.292 265.764 204.778 268.649 202.525C267.201 204.446 265.146 205.979 262.72 206.945L262.678 219.332L260.718 206.292Z" fill="#263238"/>
<path d="M256.673 162.394C256.673 162.394 249.162 163.112 248.262 163.478C252.838 167.784 250.02 174.243 250.02 174.243L252.308 184.289C249.305 187.569 246.732 190.153 246.008 194.057C249.23 198.901 267.211 199.719 273.838 196.109C273.258 189.356 270.861 184.541 271.315 182.51C274.469 174.221 274.679 172.721 274.107 170.87C272.526 165.667 266.311 162.143 264.772 162.143L256.673 162.394Z" fill="#455A64"/>
<path d="M234.722 185C234.2 183.83 236.404 180.529 237.985 178.326L244.419 181.031L242.215 184.462C243.493 187.664 245.044 190.783 246.858 193.791C247.17 194.255 247.674 194.603 248.271 194.767C249.587 195.227 250.819 195.846 251.929 196.604C252.947 197.171 253.695 197.207 253.611 197.465C253.525 197.752 253.316 198.001 253.024 198.162C252.733 198.323 252.381 198.384 252.039 198.334C251.278 198.235 250.532 198.062 249.818 197.817C250.592 198.791 251.547 199.651 252.644 200.365C255.167 202.008 255.579 203.235 251.66 204.053C249.213 204.57 246.892 203.666 243.763 199.417C242.863 198.19 241.686 196.389 240.735 194.745C238.532 190.877 235.941 187.691 234.722 185Z" fill="#FFA8A7"/>
<path d="M248.262 163.478C246.008 163.693 244.444 165.631 242.375 168.961C240.601 171.831 236.328 179.445 236.328 179.445C237.235 180.456 238.367 181.303 239.659 181.94C240.95 182.577 242.377 182.99 243.855 183.156L249.986 174.278C249.986 174.278 253.359 167.203 248.262 163.478Z" fill="#455A64"/>
<path d="M255.478 265.103V264.457C256.131 266.602 257.44 268.562 259.271 270.133C260.953 271.432 263.233 272.939 263.813 274.389C264.393 275.839 261.113 276.499 258.943 276.319C256.842 276.098 254.905 275.234 253.494 273.887C252.123 272.537 252.14 271.619 251.5 270.873C250.861 270.126 249.373 269.301 249.028 268.447C248.92 267.643 249.023 266.829 249.33 266.064C249.574 265.261 249.843 264.385 250.171 264.457V264.952C250.928 265.46 251.866 265.731 252.829 265.72C253.594 265.741 255.478 265.612 255.478 265.103Z" fill="#263238"/>
<path d="M250.163 264.952C250.92 265.46 251.858 265.731 252.821 265.72C253.594 265.72 255.478 265.612 255.478 265.103V264.457C256.131 266.602 257.44 268.562 259.271 270.133L260.55 271.095C261.441 271.942 261.189 272.681 259.095 272.839C257.001 272.997 255.159 271.913 253.569 270.248C251.98 268.583 250.163 264.952 250.163 264.952Z" fill="#FFA8A7"/>
<path d="M269.641 142.803C270.995 143.52 272.652 146.391 272.492 152.434C272.349 157.572 270.398 158.842 269.423 159.208C268.447 159.574 266.555 159.352 264.713 159.086V162.172C264.713 162.172 267.236 164.691 267.093 166.105C266.95 167.518 263.426 167.848 261.054 166.471C259.334 165.333 257.852 163.955 256.673 162.394L256.715 155.304C256.715 155.304 255.63 156.201 253.796 154.838C252.291 153.704 251.778 151.802 252.955 150.783C253.261 150.538 253.631 150.358 254.034 150.26C254.438 150.161 254.863 150.147 255.275 150.217C255.686 150.287 256.072 150.44 256.4 150.664C256.728 150.887 256.989 151.174 257.16 151.501C257.16 151.501 258.178 149.082 262.417 147.912C266.227 146.829 268.287 145.602 269.641 142.803Z" fill="#FFA8A7"/>
<path d="M265.764 151.142C265.769 151.227 265.754 151.311 265.721 151.391C265.688 151.471 265.636 151.545 265.569 151.608C265.502 151.671 265.422 151.722 265.332 151.758C265.242 151.795 265.144 151.816 265.045 151.82C264.946 151.824 264.846 151.812 264.752 151.783C264.659 151.755 264.573 151.711 264.499 151.654C264.425 151.597 264.365 151.528 264.322 151.451C264.28 151.374 264.255 151.291 264.25 151.206C264.24 151.119 264.25 151.03 264.281 150.946C264.312 150.862 264.362 150.785 264.429 150.718C264.495 150.651 264.577 150.596 264.669 150.556C264.762 150.517 264.862 150.494 264.965 150.489C265.068 150.487 265.17 150.502 265.266 150.534C265.361 150.566 265.449 150.613 265.523 150.674C265.597 150.735 265.657 150.807 265.698 150.887C265.74 150.968 265.762 151.054 265.764 151.142Z" fill="#263238"/>
<path d="M265.974 155.512L267.732 155.993C267.7 156.093 267.645 156.187 267.57 156.269C267.495 156.351 267.401 156.419 267.294 156.469C267.187 156.519 267.07 156.551 266.949 156.561C266.827 156.572 266.705 156.562 266.588 156.531C266.351 156.462 266.155 156.318 266.04 156.128C265.926 155.937 265.902 155.717 265.974 155.512Z" fill="#F28F8F"/>
<path d="M271.979 149.161L270.449 148.257C270.512 148.169 270.597 148.093 270.696 148.034C270.796 147.974 270.908 147.933 271.027 147.912C271.146 147.891 271.269 147.891 271.388 147.912C271.507 147.933 271.619 147.975 271.719 148.034C271.923 148.158 272.065 148.344 272.113 148.553C272.162 148.763 272.114 148.981 271.979 149.161Z" fill="#263238"/>
<path d="M263.569 149.635L265.1 148.73C265.036 148.642 264.952 148.566 264.852 148.507C264.752 148.448 264.64 148.406 264.521 148.386C264.402 148.365 264.279 148.365 264.161 148.386C264.042 148.407 263.929 148.449 263.83 148.508C263.625 148.631 263.484 148.817 263.435 149.027C263.387 149.237 263.435 149.454 263.569 149.635Z" fill="#263238"/>
<path d="M271.651 150.675C271.661 150.847 271.591 151.014 271.456 151.141C271.321 151.269 271.133 151.345 270.932 151.353C270.833 151.358 270.733 151.345 270.64 151.317C270.546 151.288 270.46 151.244 270.386 151.187C270.237 151.072 270.147 150.911 270.137 150.74C270.127 150.652 270.137 150.564 270.168 150.48C270.199 150.396 270.249 150.318 270.316 150.251C270.383 150.184 270.464 150.129 270.557 150.09C270.649 150.051 270.749 150.028 270.852 150.022C270.955 150.02 271.057 150.036 271.153 150.068C271.249 150.099 271.336 150.147 271.41 150.208C271.485 150.268 271.544 150.341 271.585 150.421C271.627 150.501 271.649 150.588 271.651 150.675Z" fill="#263238"/>
<path d="M268.052 150.309L268.169 154.192L270.575 153.56L268.052 150.309Z" fill="#F28F8F"/>
<path d="M264.713 159.1C262.778 158.885 258.826 157.909 258.178 156.567C258.426 157.248 258.913 157.847 259.574 158.282C260.76 159.151 264.713 160.134 264.713 160.134V159.1Z" fill="#F28F8F"/>
<path d="M250.987 178.541L256.303 186.529L252.308 184.34L250.987 178.541Z" fill="#37474F"/>
<path d="M62.0341 189.485C61.5883 190.447 58.7877 195.492 55.062 193.073C50.5709 190.167 44.9192 176.998 44.9192 176.998L49.0654 175.355L57.03 186.371L62.0341 189.478" fill="#F28F8F"/>
<path d="M61.7649 168.25C59.7801 173.941 55.7768 186.622 55.7768 186.622C55.7768 186.622 57.4589 194.351 60.352 191.695C61.3444 190.791 61.849 189.959 62.8751 187.799C63.8002 185.854 66.5419 177.917 66.5419 177.917C66.5419 177.917 65.9448 166.506 68.039 164.999C69.163 164.148 70.4637 163.483 71.8741 163.04C68.5436 163.255 63.59 163.033 61.7649 168.25Z" fill="#F28F8F"/>
<path d="M52.4211 169.068C51.3194 167.317 51.0418 167.238 50.3858 166.858C49.7298 166.478 45.7097 165.961 44.0445 165.839C42.0765 165.696 41.3869 166.004 41.9335 167.447C43.0941 170.532 46.6433 177.077 47.4338 177.981C47.9553 178.57 48.0646 179.123 50.2681 179.309C52.3286 179.481 54.919 179.575 55.6759 179.61C56.4328 179.646 57.4925 179.811 56.8113 177.903C55.9413 175.74 54.9333 173.62 53.792 171.551C52.9846 169.98 52.4211 169.068 52.4211 169.068Z" fill="#263238"/>
<path d="M44.9192 177.041C44.0781 173.948 41.6896 171.092 43.0521 170.044L43.7838 171.415C43.7838 171.415 48.2917 172.334 50.512 172.19C52.7323 172.047 54.4732 171.609 55.0704 171.968C56.3319 172.728 56.7019 175.972 53.0771 177.149C49.9569 178.111 44.9192 177.041 44.9192 177.041Z" fill="#F28F8F"/>
<path d="M72.1852 162.021C68.1904 162.057 63.775 163.299 62.2864 165.968C60.7977 168.638 57.3411 180.278 57.3411 180.278C58.4975 181.189 59.8655 181.883 61.3563 182.315C62.8472 182.746 64.4276 182.906 65.9953 182.782L72.1852 162.021Z" fill="#37474F"/>
<path d="M89.5103 260.402H83.9848V267.263H89.5103V260.402Z" fill="#FFA8A7"/>
<path d="M70.0866 251.907L64.5643 252.069L64.8407 258.926L70.363 258.764L70.0866 251.907Z" fill="#FFA8A7"/>
<path d="M89.1487 193.403C89.1487 197.903 89.8299 227.018 89.8299 227.018C89.9561 228.309 91.3774 230.699 91.0747 235.672C90.6541 242.433 89.9729 261.199 89.9729 261.199C89.9729 261.199 87.3826 263.388 83.7241 261.199C83.7241 261.199 78.6779 235.694 77.736 228.998C76.895 223.157 75.4064 207.283 75.4064 207.283L70.2845 225.941C70.2845 225.941 71.1844 230.333 71.3863 233.433C71.5881 236.534 70.4443 254.439 70.4443 254.439C69.5509 254.917 68.526 255.186 67.4722 255.22C66.4184 255.254 65.3725 255.052 64.4394 254.632C64.4394 254.632 59.9988 228.474 59.3932 225.668C58.7877 222.863 63.2788 193.375 63.2788 193.375L89.1487 193.403Z" fill="#37474F"/>
<path d="M80.8309 162.237H80.9066C83.2729 162.749 85.37 163.923 86.8637 165.571C88.3574 167.219 89.1618 169.246 89.1487 171.329V193.404C85.2716 196.992 71.7731 198.671 63.3124 193.404V170.439C63.3124 166.765 65.7009 162.358 72.3029 162.028L80.8309 162.237Z" fill="#455A64"/>
<path d="M82.6896 143.449C83.1334 143.402 83.5836 143.443 84.0062 143.567C84.4288 143.692 84.8126 143.897 85.1286 144.166C86.1715 145.078 85.9696 146.764 85.1286 150.625L81.8907 150.941L82.6896 143.449Z" fill="#263238"/>
<path d="M63.8422 142.322C63.1482 142.324 62.4611 142.205 61.8238 141.97C60.8314 141.489 60.5706 142.451 61.1173 143.284C61.4712 143.888 62.0027 144.405 62.6601 144.782C63.3175 145.159 64.0783 145.385 64.8683 145.437C64.8683 145.322 65.7934 143.284 65.7934 143.284L63.8422 142.322Z" fill="#263238"/>
<path d="M81.1758 150.984C81.6552 151.228 82.3364 150.438 82.9335 149.907C83.1661 149.681 83.4627 149.508 83.7951 149.406C84.1275 149.305 84.4849 149.277 84.8334 149.326C85.1819 149.375 85.5101 149.498 85.7869 149.686C86.0637 149.873 86.28 150.117 86.4154 150.395C87.3994 152.161 85.5744 154.493 84.0437 154.902C81.4281 155.62 81.0328 154.185 81.0328 154.185L80.831 162.258C80.2533 163.341 79.3689 164.285 78.2576 165.004C77.1462 165.723 75.8427 166.195 74.4644 166.377C69.8219 166.915 70.7807 163.643 72.303 162.071V159.617C71.1355 159.777 69.951 159.828 68.7707 159.768C66.8447 159.517 65.6252 158.218 65.0449 156.438C64.103 153.567 63.7497 151.271 64.5403 145.673C65.3813 139.509 73.7916 139.444 78.3584 141.884C82.9251 144.324 81.1758 150.984 81.1758 150.984Z" fill="#FFA8A7"/>
<path d="M81.1758 151.673C81.4197 151.673 82.3364 150.374 82.9335 149.907C83.7746 149.269 82.6896 143.449 82.6896 143.449C82.6896 143.449 83.5307 141.238 81.8907 139.774C80.2507 138.31 77.0884 138.562 74.7672 138.49C71.9201 138.497 69.1012 138.009 66.4831 137.055C63.1862 135.835 62.9424 135.691 62.5303 136.925C62.1181 138.16 61.9752 140.98 63.9348 142.875L65.5748 143.391C65.5748 143.391 66.4578 144.059 69.5276 144.374C72.3605 144.56 75.2076 144.514 78.0303 144.238C78.9218 144.138 79.1153 144.87 79.5947 146.879C80.0152 148.666 80.36 151.658 81.1758 151.673Z" fill="#263238"/>
<path d="M82.6896 143.901L85.5912 142.573C85.4983 142.406 85.3666 142.256 85.2041 142.134C85.0416 142.011 84.8517 141.918 84.6458 141.859C84.4398 141.801 84.2222 141.779 84.006 141.794C83.7898 141.81 83.5794 141.862 83.3877 141.949C82.9996 142.135 82.7106 142.442 82.5806 142.806C82.4506 143.169 82.4897 143.561 82.6896 143.901Z" fill="#263238"/>
<path d="M72.3282 159.567C72.3282 159.567 76.6343 158.849 78.1313 158.132C79.0179 157.738 79.7448 157.125 80.217 156.373C79.9873 157.125 79.5842 157.83 79.0312 158.447C77.9294 159.646 72.303 160.528 72.303 160.528L72.3282 159.567Z" fill="#F28F8F"/>
<path d="M73.3458 150.065C73.3573 150.205 73.4162 150.338 73.5153 150.449C73.6144 150.561 73.7494 150.645 73.9037 150.692C74.058 150.738 74.225 150.745 74.3841 150.712C74.5432 150.679 74.6874 150.607 74.7992 150.505C74.9111 150.403 74.9855 150.275 75.0135 150.138C75.0414 150 75.0217 149.858 74.9567 149.73C74.8916 149.602 74.7842 149.493 74.6474 149.416C74.5107 149.339 74.3506 149.298 74.1869 149.297C74.0713 149.297 73.9569 149.317 73.8508 149.356C73.7447 149.396 73.6493 149.453 73.5703 149.525C73.4914 149.597 73.4308 149.682 73.3921 149.775C73.3535 149.868 73.3378 149.967 73.3458 150.065Z" fill="#263238"/>
<path d="M74.2626 147.281L76.1045 148.156C76.2353 147.942 76.2655 147.692 76.189 147.459C76.1125 147.226 75.9349 147.026 75.6923 146.901C75.5705 146.84 75.4354 146.802 75.2955 146.789C75.1557 146.776 75.0141 146.787 74.8797 146.823C74.7453 146.859 74.6211 146.918 74.5149 146.997C74.4087 147.076 74.3228 147.172 74.2626 147.281Z" fill="#263238"/>
<path d="M72.6983 155.146L70.7303 155.778C70.7727 155.891 70.8415 155.995 70.9326 156.084C71.0237 156.174 71.1351 156.247 71.2601 156.298C71.3852 156.35 71.5212 156.38 71.66 156.385C71.7987 156.391 71.9374 156.372 72.0675 156.33C72.3326 156.242 72.5468 156.069 72.6646 155.847C72.7824 155.626 72.7944 155.375 72.6983 155.146Z" fill="#F28F8F"/>
<path d="M65.6589 147.898L67.3409 146.793C67.2624 146.695 67.1613 146.613 67.0439 146.55C66.9265 146.487 66.7953 146.445 66.6582 146.427C66.5212 146.408 66.3812 146.414 66.247 146.444C66.1127 146.474 65.987 146.526 65.8775 146.599C65.6516 146.75 65.5027 146.969 65.4619 147.211C65.4212 147.453 65.4918 147.699 65.6589 147.898Z" fill="#263238"/>
<path d="M66.1719 149.85C66.1719 150.04 66.2605 150.223 66.4182 150.357C66.576 150.492 66.7899 150.568 67.0129 150.568C67.236 150.568 67.4499 150.492 67.6076 150.357C67.7653 150.223 67.8539 150.04 67.8539 149.85C67.8608 149.752 67.8442 149.654 67.805 149.562C67.7658 149.47 67.705 149.386 67.6262 149.315C67.5474 149.243 67.4523 149.187 67.3469 149.148C67.2414 149.109 67.1277 149.089 67.0129 149.089C66.8981 149.089 66.7845 149.109 66.679 149.148C66.5735 149.187 66.4784 149.243 66.3997 149.315C66.3209 149.386 66.26 149.47 66.2208 149.562C66.1817 149.654 66.165 149.752 66.1719 149.85Z" fill="#263238"/>
<path d="M70.5705 149.154L70.2845 153.582L67.5764 152.792L70.5705 149.154Z" fill="#F28F8F"/>
<path d="M83.9848 264.938V264.263C83.455 264.464 82.2271 268.461 80.0404 270.162C78.2995 271.519 75.9194 273.09 75.3138 274.597C74.7083 276.104 78.6275 277.037 80.2507 276.793C82.143 276.506 85.423 275.358 86.2472 274.317C87.0714 273.277 87.4498 271.712 88.1227 270.937C88.7955 270.162 90.3346 269.301 90.6878 268.411C90.8001 267.576 90.6938 266.731 90.3766 265.935C90.1159 265.103 89.8384 264.184 89.5356 264.263V264.78C88.7465 265.307 87.7703 265.588 86.7686 265.576C85.936 265.605 83.9764 265.469 83.9848 264.938Z" fill="#263238"/>
<path d="M64.759 257.474C64.4646 257.474 64.2375 257.833 63.5984 258.414C62.6538 259.229 61.5567 259.903 60.352 260.409C58.2831 261.292 54.263 262.648 52.4464 263.352C51.311 263.789 51.3614 264.959 52.5389 265.627C53.7163 266.294 56.5506 266.775 59.9567 266.122C61.807 265.77 64.2291 264.306 65.7598 264.385C67.2905 264.464 70.15 264.442 71.2769 263.782C72.4039 263.122 71.9497 261.701 71.6302 260.481C71.3106 259.261 70.7891 257.115 70.2677 257.209V257.625C69.6033 258.486 66.2224 258.838 64.7674 258.206L64.759 257.474Z" fill="#263238"/>
<path d="M99.2999 190.11C99.6447 188.674 95.9358 174.637 94.4724 170.188L88.0218 176.647L91.9914 190.519C91.2495 194.398 90.1671 198.224 88.7534 201.965C88.4925 202.545 87.9934 203.025 87.3489 203.314C85.6669 204.096 84.9015 204.957 83.5727 205.998C82.5299 206.809 81.6888 206.974 81.7898 207.261C81.9592 207.572 82.2581 207.817 82.6281 207.95C82.9982 208.083 83.4129 208.093 83.7914 207.979C84.6391 207.744 85.452 207.426 86.2135 207.031C85.5426 208.271 84.6424 209.409 83.5475 210.404C81.0244 212.686 80.8226 214.165 85.4819 214.466C88.4086 214.66 90.856 213.253 93.4884 207.885C94.2538 206.343 95.1705 204.089 95.919 202.058C97.6179 197.236 98.5093 193.382 99.2999 190.11Z" fill="#FFA8A7"/>
<path d="M82.5803 162.739C85.8603 163.657 92.3698 164.131 94.4724 170.188C96.575 176.245 97.6262 180.185 97.6262 180.185C96.3899 181.62 91.4615 183.22 89.1487 182.617L82.5803 162.739Z" fill="#455A64"/>
<path d="M89.1487 182.617L86.8948 175.814L89.1487 185.387V182.617Z" fill="#37474F"/>
<path d="M75.4063 207.283C72.5507 206.523 69.9242 205.239 67.7109 203.522C67.7109 203.522 69.1996 205.89 73.5981 208.094L71.9161 220.15L75.4063 207.283Z" fill="#263238"/>
</svg>
