<svg width="328" height="323" viewBox="0 0 328 323" fill="none" xmlns="http://www.w3.org/2000/svg">
<path d="M164 323C254.575 323 328 280.7 328 228.52C328 176.341 254.575 134.041 164 134.041C73.4253 134.041 0 176.341 0 228.52C0 280.7 73.4253 323 164 323Z" fill="#FAFAFA"/>
<path d="M208.742 268.982C208.316 268.112 208.146 267.14 208.252 266.178C208.357 265.216 208.734 264.303 209.338 263.546C210.929 261.399 213.467 260.049 213.769 260.174C214.07 260.3 214.47 263.092 212.927 265.771C212.52 266.588 211.931 267.302 211.206 267.858C210.481 268.415 209.638 268.799 208.742 268.982Z" fill="#076372"/>
<path d="M209.085 275.592C209.107 274.625 209.403 273.684 209.937 272.877C210.472 272.07 211.224 271.43 212.107 271.031C214.505 269.849 217.372 269.821 217.589 270.045C217.807 270.269 216.888 272.962 214.266 274.683C213.529 275.218 212.679 275.577 211.781 275.735C210.883 275.893 209.961 275.844 209.085 275.592Z" fill="#076372"/>
<path d="M204.157 279.559C203.206 279.371 202.327 278.919 201.622 278.254C200.918 277.59 200.416 276.739 200.175 275.802C199.425 273.242 199.691 270.64 199.958 270.458C200.224 270.276 203.007 271.766 204.304 274.263C205.713 276.991 204.458 278.859 204.157 279.559Z" fill="#076372"/>
<path d="M206.477 279.559C206.185 281.625 206.014 283.706 205.966 285.792C205.622 285.792 205.265 285.841 204.907 285.848H204.802C205.006 281.464 205.76 277.124 207.045 272.927C207.922 270.129 208.973 267.135 210.719 264.728C210.754 264.679 210.901 264.728 210.873 264.798C209.689 267.251 208.749 269.815 208.069 272.451C207.362 274.778 206.83 277.153 206.477 279.559Z" fill="#37474F"/>
<path d="M205.195 281.475C204.42 280.573 203.747 279.587 203.189 278.537C202.617 277.552 202.236 276.467 202.068 275.34C202.068 275.18 202.215 275.34 202.257 275.445C202.672 276.374 203.14 277.278 203.659 278.153C204.214 279.076 204.894 279.918 205.678 280.657C205.785 280.758 205.858 280.89 205.886 281.034C205.913 281.179 205.895 281.328 205.832 281.461C205.799 281.516 205.753 281.561 205.698 281.592C205.643 281.624 205.581 281.641 205.517 281.643C205.454 281.644 205.391 281.63 205.334 281.6C205.278 281.571 205.23 281.528 205.195 281.475Z" fill="#37474F"/>
<path d="M205.629 279.223C206.424 277.724 207.499 276.392 208.798 275.298C209.361 274.766 209.966 274.279 210.607 273.843C211.355 273.312 212.18 272.9 213.053 272.619C213.089 272.619 213.313 272.619 213.257 272.668C212.489 273.128 211.747 273.63 211.034 274.172C210.376 274.656 209.764 275.2 209.205 275.795C208.057 276.951 207.043 278.232 206.183 279.615C206.001 279.901 205.503 279.489 205.629 279.223Z" fill="#37474F"/>
<path d="M92.6527 206.324L49.0114 181.19C48.5925 180.976 48.1288 180.865 47.6584 180.865C47.1879 180.865 46.7242 180.976 46.3053 181.19L21.705 195.362C20.6954 195.943 20.6954 196.901 21.705 197.461L65.0167 222.413C65.387 222.601 65.7966 222.699 66.212 222.699C66.6275 222.699 67.0371 222.601 67.4074 222.413L92.6457 207.87C92.8037 207.812 92.9401 207.707 93.0367 207.569C93.1333 207.431 93.1855 207.267 93.1862 207.099C93.187 206.931 93.1363 206.767 93.041 206.628C92.9456 206.49 92.8102 206.384 92.6527 206.324Z" fill="#E0E0E0"/>
<path d="M127.881 271.864C151.57 281.58 160.985 305.442 190.549 303.966C200.862 303.966 215.591 297.6 207.466 287.1C191.769 271.759 167.744 273.69 149.551 261.525C142.975 257.432 136.665 250.787 129.774 247.268C122.35 243.868 114.077 241.532 105.994 244.134C104.448 244.452 103.064 245.305 102.087 246.543C101.111 247.781 100.605 249.324 100.659 250.899C100.631 261.441 119.517 267.827 127.881 271.864Z" fill="#E0E0E0"/>
<path d="M298.184 152.376C298.094 152.379 298.006 152.351 297.936 152.296C297.865 152.241 297.816 152.162 297.798 152.075L294.994 139.399C294.974 139.301 294.992 139.199 295.043 139.112C295.097 139.027 295.183 138.967 295.281 138.944L299.488 138.028C299.537 138.017 299.587 138.015 299.637 138.023C299.686 138.032 299.733 138.05 299.776 138.076C299.818 138.103 299.855 138.138 299.883 138.179C299.912 138.22 299.933 138.266 299.943 138.315L302.748 150.991C302.758 151.04 302.758 151.09 302.749 151.14C302.739 151.189 302.72 151.236 302.692 151.277C302.665 151.32 302.631 151.357 302.59 151.386C302.549 151.414 302.502 151.435 302.453 151.445L298.247 152.362L298.184 152.376ZM295.842 139.609L298.457 151.543L301.92 150.788L299.305 138.895L295.842 139.609ZM303.456 149.682C303.366 149.686 303.278 149.658 303.208 149.603C303.137 149.547 303.088 149.469 303.07 149.382L300.68 138.49C300.655 138.417 300.655 138.339 300.68 138.266C301.381 136.482 302.488 133.656 302.565 133.18C302.452 132.144 302.231 131.122 301.906 130.13C301.815 129.802 301.745 129.55 301.717 129.431C301.689 129.312 301.668 128.871 302.327 128.591C302.936 128.332 303.615 128.288 304.252 128.466C304.889 128.644 305.447 129.034 305.832 129.571C306.843 130.93 307.389 132.579 307.389 134.272L312.759 133.096C313.333 132.991 313.925 133.115 314.409 133.44C314.892 133.766 315.229 134.268 315.346 134.838C315.486 135.438 315.386 136.068 315.065 136.594C315.383 136.726 315.662 136.936 315.878 137.203C316.093 137.471 316.238 137.788 316.299 138.126C316.382 138.539 316.35 138.968 316.205 139.364C316.061 139.76 315.809 140.109 315.479 140.372C315.709 140.712 315.869 141.095 315.949 141.498C315.989 141.947 315.909 142.398 315.717 142.807C315.524 143.215 315.227 143.564 314.855 143.82C315.025 144.135 315.15 144.472 315.227 144.821C315.319 145.455 315.157 146.1 314.774 146.615C314.392 147.13 313.821 147.473 313.187 147.57L303.533 149.668L303.456 149.682ZM301.451 138.441L303.729 148.85L313.011 146.821C313.444 146.76 313.837 146.535 314.107 146.192C314.377 145.849 314.505 145.416 314.462 144.981C314.378 144.579 314.217 144.196 313.986 143.855C313.951 143.804 313.928 143.744 313.919 143.683C313.911 143.621 313.917 143.558 313.937 143.498C313.961 143.439 313.999 143.387 314.048 143.345C314.097 143.304 314.155 143.275 314.217 143.261C314.52 143.117 314.773 142.888 314.946 142.602C315.12 142.316 315.205 141.986 315.192 141.652C315.128 141.242 314.937 140.862 314.645 140.567C314.593 140.528 314.553 140.475 314.529 140.415C314.504 140.355 314.496 140.289 314.505 140.225C314.512 140.16 314.536 140.098 314.574 140.046C314.612 139.993 314.663 139.951 314.722 139.924C315.023 139.781 315.267 139.541 315.416 139.243C315.565 138.945 315.609 138.606 315.542 138.28C315.5 137.994 315.362 137.731 315.151 137.534C314.939 137.337 314.667 137.218 314.378 137.196C314.302 137.195 314.228 137.171 314.165 137.127C314.103 137.084 314.055 137.022 314.028 136.951C314.003 136.88 313.999 136.803 314.016 136.73C314.033 136.657 314.072 136.59 314.126 136.538C314.331 136.343 314.481 136.097 314.562 135.826C314.644 135.555 314.653 135.268 314.589 134.992C314.515 134.618 314.298 134.288 313.984 134.072C313.669 133.856 313.282 133.772 312.906 133.838L307.073 135.111C307.016 135.124 306.956 135.123 306.898 135.109C306.841 135.094 306.788 135.066 306.744 135.027C306.699 134.991 306.664 134.945 306.64 134.893C306.617 134.841 306.607 134.783 306.611 134.726C306.709 133.037 306.213 131.367 305.208 130.004C305.019 129.734 304.767 129.514 304.474 129.362C304.181 129.21 303.856 129.13 303.526 129.13C303.172 129.105 302.818 129.186 302.509 129.361C302.544 129.487 302.6 129.69 302.671 129.92C303.077 131.389 303.442 132.719 303.372 133.306C303.301 133.894 301.766 137.65 301.451 138.441Z" fill="#E0E0E0"/>
<path d="M70.8636 282.434L64.0563 280.958C63.8983 280.922 63.7602 280.827 63.6707 280.692C63.6262 280.623 63.5958 280.547 63.5814 280.466C63.5669 280.386 63.5687 280.303 63.5865 280.223L68.0874 259.706C68.1227 259.553 68.2148 259.42 68.345 259.333C68.4753 259.246 68.6338 259.212 68.7885 259.237L75.5958 260.727C75.6749 260.743 75.7499 260.774 75.8162 260.82C75.8825 260.866 75.9388 260.925 75.9814 260.993C76.0259 261.062 76.0562 261.138 76.0707 261.219C76.0851 261.299 76.0834 261.382 76.0655 261.462L71.5647 281.972C71.5348 282.115 71.455 282.243 71.3394 282.333C71.2238 282.422 71.08 282.468 70.9337 282.462L70.8636 282.434ZM69.153 260.559L64.9466 279.874L70.5551 281.098L74.7615 261.783L69.153 260.559ZM62.3246 278.048L46.7189 274.662C44.2021 274.109 43.0524 271.927 43.4239 270.213C43.5503 269.646 43.7506 269.098 44.0198 268.583C43.4226 268.174 42.9437 267.616 42.6311 266.964C42.3186 266.312 42.1834 265.589 42.2391 264.868C42.37 264.214 42.6271 263.592 42.9963 263.036C42.4629 262.61 42.0572 262.046 41.8235 261.406C41.5898 260.765 41.5371 260.073 41.6713 259.405C41.771 258.859 42.006 258.346 42.355 257.914C42.7039 257.481 43.1558 257.142 43.6693 256.929C43.1469 256.077 42.9831 255.053 43.2136 254.082C43.5291 252.682 45.0855 250.752 47.42 251.283L56.1062 253.179C56.1067 250.44 56.9917 247.773 58.63 245.575C59.2488 244.719 60.139 244.095 61.1567 243.806C62.1744 243.516 63.2602 243.578 64.2385 243.98C65.3042 244.442 65.2901 245.085 65.2341 245.344C65.178 245.603 65.0728 245.96 64.9256 246.485C64.568 247.751 63.7338 250.717 63.853 251.43C63.9721 252.144 65.7458 256.775 66.9026 259.664C66.9376 259.783 66.9376 259.909 66.9026 260.028L63.0327 277.656C63.0014 277.798 62.921 277.924 62.8055 278.012C62.6901 278.101 62.5471 278.145 62.4018 278.139L62.3246 278.048ZM62.6331 251.577C62.4859 250.675 63.0678 248.471 63.7338 246.107C63.8459 245.722 63.9371 245.407 63.9862 245.19C63.4858 244.914 62.9167 244.785 62.3457 244.82C61.8132 244.819 61.2883 244.946 60.815 245.189C60.3417 245.432 59.9338 245.786 59.6255 246.219C57.9898 248.419 57.1787 251.122 57.3331 253.858C57.3372 253.951 57.3198 254.045 57.2822 254.131C57.2446 254.217 57.1877 254.293 57.116 254.354C57.0443 254.415 56.9596 254.458 56.8684 254.482C56.7773 254.505 56.682 254.507 56.5899 254.487L47.1396 252.438C45.4851 252.074 44.5877 253.543 44.4194 254.312C44.3149 254.759 44.3291 255.225 44.4607 255.664C44.5923 256.103 44.8366 256.501 45.1696 256.817C45.2533 256.902 45.3105 257.01 45.3343 257.128C45.3581 257.245 45.3476 257.366 45.304 257.478C45.2603 257.589 45.1854 257.686 45.0882 257.756C44.9911 257.826 44.8757 257.867 44.756 257.873C44.2902 257.908 43.8502 258.1 43.5087 258.418C43.1671 258.736 42.9443 259.161 42.8771 259.622C42.7665 260.15 42.8371 260.7 43.0774 261.183C43.3177 261.667 43.7138 262.055 44.2021 262.287C44.2976 262.333 44.38 262.402 44.4414 262.488C44.5028 262.574 44.5413 262.674 44.5532 262.779C44.5651 262.884 44.5501 262.99 44.5095 263.088C44.4689 263.185 44.4042 263.271 44.3213 263.336C43.8493 263.811 43.5422 264.424 43.445 265.085C43.2837 265.82 44.0759 267.478 45.0224 267.688C45.1227 267.709 45.2159 267.755 45.2932 267.823C45.3705 267.89 45.4293 267.976 45.464 268.072C45.5015 268.167 45.5147 268.27 45.5025 268.371C45.4903 268.473 45.4529 268.57 45.3939 268.653C45.0214 269.202 44.7573 269.817 44.6157 270.465C44.3704 271.598 45.2537 273.067 46.9713 273.445L61.9951 276.761L65.6897 259.916C65.178 258.615 62.8434 252.661 62.6331 251.577Z" fill="#E0E0E0"/>
<g opacity="0.1">
<path d="M70.8636 282.434L64.0563 280.958C63.8983 280.922 63.7602 280.827 63.6707 280.692C63.6262 280.623 63.5958 280.547 63.5814 280.466C63.5669 280.386 63.5687 280.303 63.5865 280.223L68.0874 259.706C68.1227 259.553 68.2148 259.42 68.345 259.333C68.4753 259.246 68.6338 259.212 68.7885 259.237L75.5958 260.727C75.6749 260.743 75.7499 260.774 75.8162 260.82C75.8825 260.866 75.9388 260.925 75.9814 260.993C76.0259 261.062 76.0562 261.138 76.0707 261.219C76.0851 261.299 76.0834 261.382 76.0655 261.462L71.5647 281.972C71.5348 282.115 71.455 282.243 71.3394 282.333C71.2238 282.422 71.08 282.468 70.9337 282.462L70.8636 282.434ZM69.153 260.559L64.9466 279.874L70.5551 281.098L74.7615 261.783L69.153 260.559ZM62.3246 278.048L46.7189 274.662C44.2021 274.109 43.0524 271.927 43.4239 270.213C43.5503 269.646 43.7506 269.098 44.0198 268.583C43.4226 268.174 42.9437 267.616 42.6311 266.964C42.3186 266.312 42.1834 265.589 42.2391 264.868C42.37 264.214 42.6271 263.592 42.9963 263.036C42.4629 262.61 42.0572 262.046 41.8235 261.406C41.5898 260.765 41.5371 260.073 41.6713 259.405C41.771 258.859 42.006 258.346 42.355 257.914C42.7039 257.481 43.1558 257.142 43.6693 256.929C43.1469 256.077 42.9831 255.053 43.2136 254.082C43.5291 252.682 45.0855 250.752 47.42 251.283L56.1062 253.179C56.1067 250.44 56.9917 247.773 58.63 245.575C59.2488 244.719 60.139 244.095 61.1567 243.806C62.1744 243.516 63.2602 243.578 64.2385 243.98C65.3042 244.442 65.2901 245.085 65.2341 245.344C65.178 245.603 65.0728 245.96 64.9256 246.485C64.568 247.751 63.7338 250.717 63.853 251.43C63.9721 252.144 65.7458 256.775 66.9026 259.664C66.9376 259.783 66.9376 259.909 66.9026 260.028L63.0327 277.656C63.0014 277.798 62.921 277.924 62.8055 278.012C62.6901 278.101 62.5471 278.145 62.4018 278.139L62.3246 278.048ZM62.6331 251.577C62.4859 250.675 63.0678 248.471 63.7338 246.107C63.8459 245.722 63.9371 245.407 63.9862 245.19C63.4858 244.914 62.9167 244.785 62.3457 244.82C61.8132 244.819 61.2883 244.946 60.815 245.189C60.3417 245.432 59.9338 245.786 59.6255 246.219C57.9898 248.419 57.1787 251.122 57.3331 253.858C57.3372 253.951 57.3198 254.045 57.2822 254.131C57.2446 254.217 57.1877 254.293 57.116 254.354C57.0443 254.415 56.9596 254.458 56.8684 254.482C56.7773 254.505 56.682 254.507 56.5899 254.487L47.1396 252.438C45.4851 252.074 44.5877 253.543 44.4194 254.312C44.3149 254.759 44.3291 255.225 44.4607 255.664C44.5923 256.103 44.8366 256.501 45.1696 256.817C45.2533 256.902 45.3105 257.01 45.3343 257.128C45.3581 257.245 45.3476 257.366 45.304 257.478C45.2603 257.589 45.1854 257.686 45.0882 257.756C44.9911 257.826 44.8757 257.867 44.756 257.873C44.2902 257.908 43.8502 258.1 43.5087 258.418C43.1671 258.736 42.9443 259.161 42.8771 259.622C42.7665 260.15 42.8371 260.7 43.0774 261.183C43.3177 261.667 43.7138 262.055 44.2021 262.287C44.2976 262.333 44.38 262.402 44.4414 262.488C44.5028 262.574 44.5413 262.674 44.5532 262.779C44.5651 262.884 44.5501 262.99 44.5095 263.088C44.4689 263.185 44.4042 263.271 44.3213 263.336C43.8493 263.811 43.5422 264.424 43.445 265.085C43.2837 265.82 44.0759 267.478 45.0224 267.688C45.1227 267.709 45.2159 267.755 45.2932 267.823C45.3705 267.89 45.4293 267.976 45.464 268.072C45.5015 268.167 45.5147 268.27 45.5025 268.371C45.4903 268.473 45.4529 268.57 45.3939 268.653C45.0214 269.202 44.7573 269.817 44.6157 270.465C44.3704 271.598 45.2537 273.067 46.9713 273.445L61.9951 276.761L65.6897 259.916C65.178 258.615 62.8434 252.661 62.6331 251.577Z" fill="black"/>
</g>
<path d="M251.829 252.508C251.829 252.508 253.351 261.084 253.302 262.336C253.253 263.588 250.736 268.072 250.357 268.926C249.979 269.779 253.862 271.899 256.533 269.387C258.935 267.252 260.508 264.343 260.978 261.168L270.793 265.561C272.896 266.484 274.579 264.952 275.105 263.784C275.368 263.211 275.477 262.58 275.421 261.952C275.366 261.324 275.148 260.721 274.789 260.202C275.457 260.293 276.136 260.156 276.717 259.815C277.298 259.473 277.748 258.947 277.993 258.321C278.298 257.626 278.359 256.849 278.167 256.116C277.975 255.382 277.541 254.734 276.934 254.277C277.707 253.796 278.299 253.073 278.617 252.221C279.094 251.164 278.519 248.723 277.131 248.121C277.725 247.536 278.201 246.843 278.533 246.079C279.234 244.54 278.428 242.336 276.297 241.385L260.053 234.131L251.829 252.508Z" fill="#E0E0E0"/>
<path d="M258.826 230.591L251.717 227.429L242.155 248.814L249.249 251.976L258.826 230.591ZM255.18 232.34C255.18 232.617 255.098 232.887 254.944 233.117C254.79 233.347 254.571 233.527 254.315 233.632C254.059 233.738 253.777 233.766 253.505 233.712C253.233 233.658 252.983 233.525 252.787 233.329C252.591 233.134 252.457 232.884 252.403 232.613C252.349 232.341 252.377 232.06 252.483 231.804C252.589 231.549 252.769 231.33 252.999 231.177C253.23 231.023 253.501 230.941 253.778 230.941C253.964 230.941 254.147 230.977 254.318 231.049C254.489 231.12 254.644 231.224 254.775 231.356C254.905 231.487 255.008 231.643 255.078 231.814C255.147 231.986 255.182 232.169 255.18 232.354V232.34Z" fill="#E0E0E0"/>
<path d="M220.807 12.0203C221.579 11.9141 222.301 11.5817 222.883 11.0653C223.465 10.5489 223.88 9.87169 224.076 9.11957C224.272 8.36745 224.24 7.57425 223.983 6.8405C223.727 6.10674 223.258 5.46548 222.636 4.99797C222.014 4.53046 221.266 4.25775 220.489 4.21442C219.711 4.17109 218.938 4.35908 218.268 4.75456C217.598 5.15005 217.06 5.73522 216.723 6.43592C216.387 7.13661 216.266 7.92129 216.377 8.69049C216.526 9.71624 217.075 10.6416 217.905 11.2652C218.735 11.8888 219.778 12.1602 220.807 12.0203ZM227.734 15.2242C227.544 14.3368 227.024 13.5543 226.278 13.035C225.532 12.5156 224.617 12.2979 223.717 12.426L218.108 13.2165C217.207 13.3453 216.388 13.8119 215.819 14.5214C215.25 15.2309 214.973 16.13 215.045 17.036L215.479 22.5763L228.848 20.6736L227.734 15.2242Z" fill="#F0F0F0"/>
<path d="M230.194 7.80908C230.964 7.69891 231.684 7.36344 232.263 6.84508C232.842 6.32672 233.254 5.64875 233.447 4.89688C233.639 4.145 233.604 3.35299 233.346 2.62096C233.088 1.88894 232.618 1.24978 231.995 0.78429C231.373 0.318799 230.626 0.0478781 229.85 0.00577958C229.073 -0.036319 228.301 0.152295 227.632 0.547776C226.963 0.943257 226.426 1.52785 226.09 2.22764C225.754 2.92743 225.633 3.71099 225.743 4.47928C225.816 4.98965 225.989 5.48065 226.252 5.92424C226.515 6.36783 226.864 6.75531 227.277 7.06453C227.691 7.37376 228.161 7.59867 228.662 7.72642C229.162 7.85418 229.683 7.88226 230.194 7.80908ZM237.114 11.013C236.927 10.1253 236.409 9.34194 235.664 8.82216C234.919 8.30237 234.004 8.08521 233.104 8.21481L227.495 9.01229C226.779 9.11296 226.109 9.42835 225.576 9.91673C225.043 10.4051 224.671 11.0435 224.509 11.7475C225.431 11.8076 226.308 12.1691 227.003 12.776C227.699 13.3829 228.175 14.2015 228.358 15.1053L228.912 17.7915L238.236 16.4694L237.114 11.013Z" fill="#F0F0F0"/>
<path d="M301.128 74.8318L295.744 73.132C294.878 72.8543 293.937 72.9167 293.115 73.3067C292.294 73.6966 291.652 74.3847 291.32 75.2306L289.308 80.4072L302.18 84.4785L303.519 79.092C303.734 78.2119 303.607 77.283 303.164 76.4925C302.72 75.702 301.993 75.1086 301.128 74.8318ZM298.675 73.2229C299.417 73.46 300.213 73.4715 300.962 73.2561C301.711 73.0407 302.379 72.6081 302.881 72.0131C303.384 71.4182 303.697 70.6878 303.783 69.9146C303.868 69.1415 303.721 68.3604 303.361 67.6708C303 66.9811 302.442 66.4138 301.758 66.041C301.074 65.6681 300.294 65.5066 299.518 65.5768C298.742 65.6471 298.004 65.9459 297.398 66.4354C296.792 66.9249 296.346 67.583 296.116 68.3261C295.816 69.3104 295.917 70.3727 296.395 71.2837C296.874 72.1946 297.693 72.8811 298.675 73.1949V73.2229Z" fill="#F0F0F0"/>
<path d="M308.959 73.4887C309.702 73.7258 310.498 73.7373 311.247 73.5219C311.996 73.3065 312.664 72.8739 313.166 72.279C313.668 71.684 313.982 70.9536 314.067 70.1804C314.152 69.4073 314.006 68.6263 313.645 67.9366C313.285 67.2469 312.727 66.6796 312.043 66.3068C311.359 65.934 310.579 65.7724 309.803 65.8426C309.026 65.9129 308.288 66.2117 307.683 66.7012C307.077 67.1907 306.63 67.8488 306.4 68.592C306.094 69.5799 306.191 70.6485 306.67 71.5655C307.15 72.4824 307.972 73.1736 308.959 73.4887ZM311.413 75.0977L306.029 73.3978C305.338 73.1788 304.597 73.1738 303.904 73.3837C303.21 73.5935 302.597 74.0082 302.145 74.573C302.949 75.0255 303.582 75.7296 303.946 76.5767C304.309 77.4237 304.384 78.3666 304.157 79.2599L303.491 81.9182L312.464 84.7583L313.81 79.3718C314.03 78.4888 313.904 77.5557 313.458 76.7619C313.013 75.968 312.282 75.3731 311.413 75.0977Z" fill="#F0F0F0"/>
<path d="M20.0084 86.696C20.7335 86.4151 21.3589 85.926 21.8055 85.2905C22.252 84.655 22.4997 83.9016 22.5171 83.1256C22.5346 82.3497 22.321 81.5859 21.9035 80.9311C21.486 80.2762 20.8832 79.7596 20.1714 79.4465C19.4597 79.1335 18.6708 79.0381 17.9047 79.1723C17.1386 79.3066 16.4295 79.6646 15.8673 80.201C15.3051 80.7373 14.9148 81.428 14.746 82.1857C14.5771 82.9433 14.6372 83.7339 14.9186 84.4575C15.2976 85.4266 16.046 86.2064 17 86.626C17.954 87.0456 19.0358 87.0707 20.0084 86.696ZM27.4817 88.242C27.0982 87.4174 26.4142 86.7697 25.5689 86.4305C24.7237 86.0913 23.7807 86.0862 22.9318 86.4162L17.6668 88.4589C16.8191 88.7893 16.1295 89.4299 15.7387 90.2501C15.3479 91.0703 15.2853 92.0083 15.5636 92.8729L17.2462 98.1615L29.8653 93.2647L27.4817 88.242Z" fill="#F0F0F0"/>
<path d="M28.1898 80.4632C28.9149 80.1818 29.5401 79.6921 29.9863 79.0561C30.4324 78.4201 30.6795 77.6663 30.6963 76.8902C30.713 76.114 30.4987 75.3503 30.0804 74.6957C29.6621 74.0412 29.0586 73.5251 28.3463 73.2128C27.634 72.9005 26.8449 72.806 26.0788 72.9413C25.3127 73.0766 24.604 73.4356 24.0423 73.9728C23.4807 74.5101 23.0914 75.2015 22.9237 75.9596C22.756 76.7177 22.8173 77.5084 23.1001 78.2316C23.4788 79.2007 24.2277 79.9801 25.1821 80.3985C26.1364 80.8169 27.2182 80.8402 28.1898 80.4632ZM35.6631 82.0161C35.2796 81.1916 34.5956 80.5438 33.7503 80.2046C32.9051 79.8655 31.9621 79.8604 31.1132 80.1903L25.8482 82.233C25.1777 82.4987 24.603 82.9599 24.1991 83.5564C23.7952 84.1528 23.5808 84.8569 23.5838 85.5768C24.4941 85.4271 25.4285 85.5802 26.2431 86.0125C27.0577 86.4448 27.7072 87.1323 28.0916 87.9692L29.2484 90.4596L38.0187 87.0528L35.6631 82.0161Z" fill="#F0F0F0"/>
<path d="M26.97 27.3891C26.8953 27.396 26.8202 27.396 26.7456 27.3891L23.5838 26.7596C21.039 26.2699 14.2947 24.9757 12.0864 19.4284C11.4741 17.8874 11.4993 16.167 12.1564 14.6445C12.8135 13.122 14.0489 11.9217 15.5917 11.3067C16.545 10.9729 17.5648 10.8723 18.5652 11.0135C19.5655 11.1547 20.5173 11.5336 21.3404 12.1182C21.5514 11.1277 21.9906 10.1998 22.6234 9.40815C23.2562 8.61647 24.0651 7.98275 24.986 7.55722C26.5311 6.95581 28.2514 6.98563 29.7746 7.64021C31.2979 8.29479 32.5016 9.5215 33.1253 11.0549C35.3337 16.6023 31.3236 22.1636 29.8093 24.2622L27.9094 26.8925C27.8741 26.9406 27.8342 26.9851 27.7902 27.0254C27.6844 27.1372 27.5575 27.2269 27.4166 27.2893C27.2758 27.3518 27.124 27.3857 26.97 27.3891ZM17.5547 12.1392C17.0265 12.1383 16.503 12.238 16.0123 12.433C14.773 12.9336 13.7825 13.9031 13.2571 15.1299C12.7317 16.3566 12.7141 17.741 13.2081 18.9807C15.1781 23.8775 21.4526 25.1156 23.8082 25.5633L26.984 26.1719L28.8628 23.5627C30.265 21.6109 34.0016 16.4414 32.0387 11.5096C31.5355 10.2742 30.5637 9.28709 29.3348 8.76305C28.1059 8.23901 26.7193 8.22047 25.4767 8.71146C23.5628 9.47396 22.5322 11.5586 22.371 13.2934L22.2308 14.4337L21.3334 13.6642C20.2907 12.7315 18.954 12.1921 17.5547 12.1392Z" fill="#E0E0E0"/>
<path d="M268.759 62.4981L272.376 55.041C272.376 55.041 255.986 50.3401 260.066 37.0559C263.15 26.8706 271.563 20.6168 296.851 21.9739C327.375 23.6038 322.089 43.5196 317.883 48.0806C310.809 55.7755 301.169 57.7832 280.726 56.9438L268.759 62.4981Z" fill="#E0E0E0"/>
<path d="M59.6455 120.189L48.4284 126.114C43.2903 125.096 38.0505 124.68 32.8157 124.876C18.7944 125.212 12.2605 130.808 12.5269 139.328C12.7442 146.324 19.818 152.116 39.4408 152.787C49.7464 153.137 57.5563 150.584 60.662 145.561C63.4663 140.965 62.3936 134.152 55.6354 128.849L59.6455 120.189Z" fill="#E0E0E0"/>
<path d="M230.53 169.954L233.65 178.516C229.759 179.854 226.078 181.739 222.72 184.113C215.205 189.8 216.263 203.154 224.886 208.848C234.989 215.522 260.087 213.885 268.717 208.345C277.873 202.455 276.555 189.163 270.701 183.973C263.235 177.341 245.056 177.782 245.056 177.782L230.53 169.954Z" fill="#E0E0E0"/>
<path d="M262.303 134.915L264.659 130.487L262.766 125.017V121.673L268.571 125.017V128.367L266.075 132.656C266.035 132.721 265.977 132.772 265.907 132.803L262.303 134.915Z" fill="#263238"/>
<path d="M248.429 95.0695C248.462 94.4671 248.636 93.8808 248.938 93.3582C249.24 92.8356 249.662 92.3913 250.168 92.0615L251.57 91.243C252.113 90.9672 252.713 90.8234 253.323 90.8234C253.932 90.8234 254.532 90.9672 255.075 91.243L276.808 103.793C277.315 104.123 277.736 104.567 278.038 105.089C278.34 105.612 278.514 106.198 278.547 106.801V130.683C278.514 131.285 278.34 131.872 278.038 132.394C277.736 132.917 277.315 133.361 276.808 133.691L275.406 134.509C274.864 134.786 274.263 134.931 273.654 134.931C273.044 134.931 272.443 134.786 271.901 134.509L264.89 130.473L262.429 134.754C262.398 134.825 262.345 134.884 262.278 134.924C262.211 134.963 262.134 134.981 262.056 134.974C261.979 134.967 261.906 134.936 261.847 134.885C261.788 134.834 261.747 134.767 261.728 134.691L259.141 127.129L250.182 121.953C249.675 121.624 249.253 121.18 248.951 120.657C248.649 120.134 248.475 119.547 248.443 118.945L248.429 95.0695Z" fill="#37474F"/>
<path d="M278.561 130.683C278.528 131.285 278.354 131.872 278.052 132.394C277.75 132.917 277.329 133.361 276.822 133.691L275.42 134.509C274.929 134.753 274.392 134.892 273.844 134.916C273.295 134.94 272.748 134.849 272.237 134.649C273.058 134.957 273.682 134.495 273.682 133.502V109.627C273.66 109.021 273.484 108.432 273.17 107.913L278.077 105.115C278.393 105.63 278.569 106.218 278.589 106.822L278.561 130.683Z" fill="#263238"/>
<path d="M248.485 94.573C248.689 93.8385 249.362 93.6006 250.168 94.0623L271.901 106.619C272.415 106.938 272.838 107.383 273.128 107.913L278.035 105.115C277.745 104.585 277.322 104.139 276.808 103.821L255.075 91.2642C254.532 90.9884 253.932 90.8446 253.323 90.8446C252.713 90.8446 252.113 90.9884 251.57 91.2642L250.168 92.0826C249.734 92.364 249.362 92.7294 249.073 93.1572C248.784 93.5851 248.584 94.0665 248.485 94.573Z" fill="#455A64"/>
<path d="M261.336 123.289C268.816 121.484 269.405 115.307 267.218 110.872C265.255 106.899 261.693 106.745 261.308 110.599C260.901 106.29 257.326 102.366 255.377 104.107C253.21 106.073 253.834 112.922 261.336 123.289Z" fill="#076372"/>
<g opacity="0.4">
<path d="M261.336 123.289C268.816 121.484 269.405 115.307 267.218 110.872C265.255 106.899 261.693 106.745 261.308 110.599C260.901 106.29 257.326 102.366 255.377 104.107C253.21 106.073 253.834 112.922 261.336 123.289Z" fill="white"/>
</g>
<path d="M58.637 64.4996L56.2744 60.0716L58.1743 54.6082V51.2574L52.3625 54.6082V57.952L54.8653 62.2681C54.9007 62.3382 54.9605 62.3929 55.0336 62.422L58.637 64.4996Z" fill="#263238"/>
<path d="M72.5387 24.654C72.5047 24.051 72.329 23.4646 72.0257 22.942C71.7225 22.4195 71.3002 21.9755 70.7931 21.6459L69.3909 20.8275C68.8481 20.5517 68.2475 20.4079 67.6383 20.4079C67.0291 20.4079 66.4285 20.5517 65.8856 20.8275L44.1526 33.3772C43.6454 33.7082 43.2231 34.1535 42.9199 34.6772C42.6167 35.2009 42.441 35.7884 42.407 36.3922V60.2674C42.441 60.8703 42.6167 61.4568 42.92 61.9794C43.2232 62.5019 43.6455 62.9459 44.1526 63.2755L45.5548 64.0939C46.0976 64.3697 46.6982 64.5135 47.3074 64.5135C47.9166 64.5135 48.5172 64.3697 49.0601 64.0939L56.0707 60.0646L58.5595 64.3667C58.5909 64.4376 58.6438 64.4969 58.7107 64.5363C58.7777 64.5757 58.8553 64.5931 58.9327 64.5861C59.01 64.5792 59.0833 64.5482 59.1421 64.4976C59.2009 64.4469 59.2424 64.3791 59.2606 64.3038L61.8966 56.7208L70.8492 51.5442C71.3563 51.2147 71.7786 50.7707 72.0818 50.2481C72.3851 49.7255 72.5608 49.1391 72.5948 48.5362L72.5387 24.654Z" fill="#37474F"/>
<path d="M42.4074 60.2674C42.4401 60.8698 42.6145 61.4561 42.9166 61.9787C43.2186 62.5013 43.6398 62.9455 44.146 63.2754L45.5482 64.0939C46.0396 64.3414 46.5781 64.4819 47.128 64.506C47.678 64.5302 48.2267 64.4374 48.738 64.2338C47.9178 64.5416 47.2938 64.0799 47.2938 63.0935V39.2113C47.3184 38.612 47.4971 38.029 47.8126 37.5184L42.9052 34.7203C42.5934 35.2394 42.4197 35.8293 42.4004 36.4341L42.4074 60.2674Z" fill="#263238"/>
<path d="M72.476 24.1645C72.2727 23.423 71.5997 23.1921 70.8005 23.6538L49.0675 36.2035C48.543 36.525 48.1126 36.9786 47.8196 37.5187L42.9121 34.7205C43.2023 34.1907 43.625 33.7449 44.139 33.4264L65.872 20.8347C66.4159 20.5621 67.0161 20.4202 67.6247 20.4202C68.2333 20.4202 68.8335 20.5621 69.3773 20.8347L70.7795 21.6531C71.2184 21.9348 71.5951 22.3028 71.8868 22.7345C72.1785 23.1663 72.379 23.6529 72.476 24.1645Z" fill="#455A64"/>
<path d="M60.2214 33.9368C60.2214 33.5661 58.9805 34.1047 58.1954 35.3919C58.0015 35.7038 57.8506 36.0402 57.7467 36.3922C57.5407 37.0786 57.3906 37.7804 57.298 38.4908C57.176 39.3669 57.2284 40.2583 57.4522 41.1141L52.8813 43.7444C52.514 43.9614 52.2096 44.2699 51.9979 44.6398C51.7142 45.1031 51.5503 45.6296 51.5212 46.1718C51.5212 47.0602 52.012 47.2701 52.2573 47.291C51.9801 47.5457 51.7571 47.8535 51.6017 48.196C51.4463 48.5385 51.3617 48.9088 51.353 49.2847C51.353 49.9843 51.7666 50.4739 52.4606 50.2361C52.2656 50.6768 52.1653 51.1534 52.1662 51.6352C52.1635 51.7856 52.1997 51.9342 52.2714 52.0666C52.3431 52.199 52.4478 52.3107 52.5754 52.3908C52.703 52.471 52.8491 52.517 52.9997 52.5243C53.1504 52.5317 53.3003 52.5001 53.4351 52.4326C53.3192 52.8616 53.258 53.3035 53.2529 53.7478C53.2529 54.5732 53.9539 54.993 54.9284 54.4473L62.4789 50.1102V40.2537C61.6637 39.3694 60.9051 38.4348 60.2074 37.4555C60.0392 37.0148 60.2214 34.3985 60.2214 33.9368ZM66.531 37.6724L63.9721 39.1624C63.8629 39.232 63.7721 39.3268 63.7075 39.4388C63.6428 39.5509 63.6061 39.6768 63.6006 39.806V50.404C63.6006 50.6418 63.7618 50.7398 63.9651 50.6208L66.517 49.1518C66.6241 49.0817 66.7134 48.9876 66.7779 48.8772C66.8424 48.7667 66.8802 48.6428 66.8886 48.5152V37.8822C66.8745 37.6514 66.7063 37.5535 66.503 37.6724H66.531Z" fill="#076372"/>
<path opacity="0.4" d="M60.2214 33.9368C60.2214 33.5661 58.9805 34.1047 58.1954 35.3919C58.0015 35.7038 57.8506 36.0402 57.7467 36.3922C57.5407 37.0786 57.3906 37.7804 57.298 38.4908C57.176 39.3669 57.2284 40.2583 57.4522 41.1141L52.8813 43.7444C52.514 43.9614 52.2096 44.2699 51.9979 44.6398C51.7142 45.1031 51.5503 45.6296 51.5212 46.1718C51.5212 47.0602 52.012 47.2701 52.2573 47.291C51.9801 47.5457 51.7571 47.8535 51.6017 48.196C51.4463 48.5385 51.3617 48.9088 51.353 49.2847C51.353 49.9843 51.7666 50.4739 52.4606 50.2361C52.2656 50.6768 52.1653 51.1534 52.1662 51.6352C52.1635 51.7856 52.1997 51.9342 52.2714 52.0666C52.3431 52.199 52.4478 52.3107 52.5754 52.3908C52.703 52.471 52.8491 52.517 52.9997 52.5243C53.1504 52.5317 53.3003 52.5001 53.4351 52.4326C53.3192 52.8616 53.258 53.3035 53.2529 53.7478C53.2529 54.5732 53.9539 54.993 54.9284 54.4473L62.4789 50.1102V40.2537C61.6637 39.3694 60.9051 38.4348 60.2074 37.4555C60.0392 37.0148 60.2214 34.3985 60.2214 33.9368ZM66.531 37.6724L63.9721 39.1624C63.8629 39.232 63.7721 39.3268 63.7075 39.4388C63.6428 39.5509 63.6061 39.6768 63.6006 39.806V50.404C63.6006 50.6418 63.7618 50.7398 63.9651 50.6208L66.517 49.1518C66.6241 49.0817 66.7134 48.9876 66.7779 48.8772C66.8424 48.7667 66.8802 48.6428 66.8886 48.5152V37.8822C66.8745 37.6514 66.7063 37.5535 66.503 37.6724H66.531Z" fill="white"/>
<path d="M106.381 53.9984C113.765 52.8236 118.795 45.8989 117.618 38.5317C116.441 31.1645 109.501 26.1445 102.118 27.3193C94.7345 28.494 89.7035 35.4187 90.8808 42.7859C92.0582 50.1531 98.9979 55.1731 106.381 53.9984Z" fill="#076372"/>
<path d="M94.7208 92.0824L139.421 79.4208L133.041 61.4007C131.996 58.4501 129.864 56.0077 127.078 54.5704C124.292 53.1331 121.062 52.8089 118.045 53.6638L99.3409 58.9593C96.3242 59.8163 93.7479 61.7875 92.1357 64.4721C90.5235 67.1568 89.9964 70.3532 90.6617 73.4117L94.7208 92.0824Z" fill="#076372"/>
<path d="M121.27 25.6263C122.002 28.1956 123.481 30.4906 125.52 32.2212C127.559 33.9518 130.067 35.0404 132.726 35.3493C135.385 35.6582 138.076 35.1736 140.459 33.9567C142.842 32.7398 144.81 30.8452 146.114 28.5125C147.418 26.1798 148 23.5137 147.786 20.8511C147.571 18.1886 146.571 15.6492 144.911 13.5539C143.25 11.4586 141.005 9.9015 138.458 9.07942C135.911 8.25735 133.177 8.2072 130.601 8.93532C127.146 9.91413 124.221 12.2225 122.472 15.3526C120.722 18.4827 120.289 22.1782 121.27 25.6263Z" fill="#076372"/>
<path d="M120.478 50.9706C123.643 50.7597 126.79 51.5867 129.44 53.3256C132.09 55.0646 134.098 57.6202 135.158 60.6032L138.306 69.4944L169.468 60.6662L163.096 42.6811C162.051 39.7287 159.917 37.2846 157.13 35.846C154.343 34.4074 151.112 34.0824 148.093 34.9372L129.395 40.2397C126.996 40.9186 124.859 42.3077 123.267 44.2235C121.675 46.1394 120.702 48.4919 120.478 50.9706Z" fill="#076372"/>
<g opacity="0.3">
<path d="M106.381 53.9984C113.765 52.8236 118.795 45.8989 117.618 38.5317C116.441 31.1645 109.501 26.1445 102.118 27.3193C94.7345 28.494 89.7035 35.4187 90.8808 42.7859C92.0582 50.1531 98.9979 55.1731 106.381 53.9984Z" fill="black"/>
<path d="M94.7208 92.0824L139.421 79.4208L133.041 61.4007C131.996 58.4501 129.864 56.0077 127.078 54.5704C124.292 53.1331 121.062 52.8089 118.045 53.6638L99.3409 58.9593C96.3242 59.8163 93.7479 61.7875 92.1357 64.4721C90.5235 67.1568 89.9964 70.3532 90.6617 73.4117L94.7208 92.0824Z" fill="black"/>
<path d="M121.27 25.6263C122.002 28.1956 123.481 30.4906 125.52 32.2212C127.559 33.9518 130.067 35.0404 132.726 35.3493C135.385 35.6582 138.076 35.1736 140.459 33.9567C142.842 32.7398 144.81 30.8452 146.114 28.5125C147.418 26.1798 148 23.5137 147.786 20.8511C147.571 18.1886 146.571 15.6492 144.911 13.5539C143.25 11.4586 141.005 9.9015 138.458 9.07942C135.911 8.25735 133.177 8.2072 130.601 8.93532C127.146 9.91413 124.221 12.2225 122.472 15.3526C120.722 18.4827 120.289 22.1782 121.27 25.6263Z" fill="black"/>
<path d="M120.478 50.9706C123.643 50.7597 126.79 51.5867 129.44 53.3256C132.09 55.0646 134.098 57.6202 135.158 60.6032L138.306 69.4944L169.468 60.6662L163.096 42.6811C162.051 39.7287 159.917 37.2846 157.13 35.846C154.343 34.4074 151.112 34.0824 148.093 34.9372L129.395 40.2397C126.996 40.9186 124.859 42.3077 123.267 44.2235C121.675 46.1394 120.702 48.4919 120.478 50.9706Z" fill="black"/>
</g>
<path d="M230.075 66.0317C231.896 65.0053 233.318 63.3985 234.114 61.4691C234.91 59.5397 235.033 57.3994 234.464 55.3917C232.515 48.7811 226.409 49.0959 226.409 49.0959C227.579 47.8129 228.395 46.2487 228.777 44.5565C229.159 42.8642 229.094 41.102 228.589 39.4422C227.594 36.0355 223.492 31.2227 217.477 32.9855L188.986 41.38C188.698 32.4469 186.217 25.1577 179.872 17.3298C173.527 9.50201 162.107 13.8321 162.836 16.3155C163.565 18.7989 168.781 31.9432 168.445 35.3779C168.108 38.8127 160.796 61.6666 160.796 61.6666L154.003 63.5903L169.721 116.923L176.479 114.824L223.612 100.988C229.774 99.1758 232.774 93.4536 231.456 88.9975C230.807 86.7872 229.744 84.7198 228.323 82.9046C232.326 81.7293 234.793 75.3286 233.889 72.2506C232.557 67.6406 230.075 66.0317 230.075 66.0317Z" fill="#F5F5F5"/>
<path d="M169.503 117.357L153.568 63.3035L160.53 61.3378C161.231 59.1272 167.8 38.5048 168.101 35.3149C168.347 32.7896 165.297 24.3182 163.67 19.7712C163.117 18.2252 162.675 16.973 162.5 16.3924C162.247 15.532 162.969 14.5806 164.491 13.7901C168.298 11.8035 175.708 11.5027 180.181 17.071C186.203 24.5281 188.958 31.6633 189.343 40.8553L217.386 32.6287C218.692 32.2129 220.079 32.1172 221.43 32.3498C222.781 32.5824 224.056 33.1364 225.147 33.9648C226.941 35.3062 228.271 37.1718 228.954 39.3023C229.439 40.8972 229.532 42.5855 229.223 44.2237C228.914 45.8619 228.213 47.4014 227.18 48.7111C228.978 48.8729 230.681 49.5907 232.051 50.7645C233.421 51.9382 234.389 53.5094 234.822 55.2588C235.381 57.2577 235.286 59.3827 234.551 61.3242C233.816 63.2657 232.479 64.9223 230.734 66.0526C232.449 67.707 233.663 69.8084 234.24 72.1176C235.137 75.1676 232.838 81.4495 228.926 83.0514C230.212 84.8108 231.186 86.7769 231.807 88.8646C232.132 90.0931 232.198 91.3758 231.998 92.6308C231.799 93.8859 231.34 95.0857 230.65 96.1538C229.058 98.6739 226.585 100.514 223.71 101.316L176.612 115.167L169.503 117.357ZM154.494 63.8141L170.001 116.426L176.416 114.468L223.555 100.631C226.254 99.8806 228.575 98.155 230.068 95.79C230.704 94.8113 231.128 93.7111 231.314 92.5597C231.5 91.4083 231.443 90.2308 231.148 89.1024C230.511 86.9428 229.474 84.9213 228.091 83.1424L227.72 82.7087L228.267 82.5478C232.059 81.4355 234.415 75.2026 233.581 72.3555C232.284 67.9554 229.914 66.3604 229.893 66.3465L229.374 66.0037L229.914 65.7029C231.658 64.7157 233.02 63.174 233.782 61.3239C234.545 59.4739 234.664 57.4222 234.12 55.4966C233.695 53.7737 232.706 52.2419 231.309 51.1443C229.911 50.0468 228.187 49.4464 226.409 49.4386L225.504 49.4876L226.114 48.788C227.244 47.5543 228.032 46.048 228.401 44.4178C228.77 42.7876 228.707 41.0896 228.217 39.4912C227.579 37.5146 226.342 35.7842 224.677 34.5384C223.678 33.7852 222.512 33.2816 221.278 33.0699C220.044 32.8581 218.776 32.9443 217.582 33.3212L188.635 41.8416V41.3659C188.334 32.111 185.642 24.9828 179.62 17.5327C175.413 12.2931 168.445 12.5729 164.855 14.4477C163.748 15.0283 163.096 15.7209 163.236 16.1826C163.404 16.7632 163.839 17.9804 164.393 19.5194C166.159 24.4161 169.118 32.6917 168.865 35.3849C168.536 38.8196 161.504 60.8201 161.203 61.7505L161.14 61.9464L154.494 63.8141Z" fill="#E0E0E0"/>
<path d="M162.857 16.2875C162.156 13.8321 173.563 9.47396 179.893 17.3018C186.224 25.1296 188.698 32.4188 189.007 41.3519L183.588 42.9399C179.269 15.427 168.284 14.8394 162.857 16.2875Z" fill="#E0E0E0"/>
<path d="M153.602 62.0926L133.061 68.121L151.304 130.011L171.845 123.983L153.602 62.0926Z" fill="#076372"/>
<path d="M230.068 66.0317C230.068 66.0317 232.557 67.6406 233.917 72.2506C233.984 72.4936 234.031 72.7416 234.057 72.9921C234.45 76.245 232.059 81.8133 228.351 82.9046C229.772 84.7198 230.835 86.7872 231.484 88.9975C231.621 89.4536 231.71 89.9224 231.751 90.3966C232.172 94.5938 229.185 99.3857 223.64 101.016L214.175 103.814C219.721 102.184 222.707 97.392 222.287 93.1948C222.246 92.7206 222.156 92.2518 222.02 91.7957C221.371 89.5854 220.307 87.5179 218.886 85.7027C222.595 84.6114 224.986 79.0431 224.593 75.7903C224.566 75.5397 224.52 75.2917 224.453 75.0487C223.093 70.4388 220.611 68.8298 220.611 68.8298C222.431 67.8034 223.854 66.1967 224.65 64.2672C225.445 62.3378 225.569 60.1976 225 58.1899C224.986 58.1376 224.97 58.0862 224.951 58.036C224.488 56.2693 223.451 54.7057 222.002 53.5904C220.553 52.4751 218.774 51.871 216.944 51.873C218.114 50.5883 218.929 49.0226 219.31 47.3291C219.691 45.6357 219.625 43.8726 219.118 42.2124C219.061 42.0062 218.993 41.803 218.914 41.6038C217.638 38.295 213.677 34.1258 208.013 35.7907L217.477 32.9925C223.142 31.3346 227.103 35.5038 228.379 38.8127C228.457 39.0119 228.525 39.215 228.582 39.4213C229.09 41.0803 229.156 42.8425 228.775 44.535C228.394 46.2274 227.579 47.7919 226.409 49.0749C228.239 49.0745 230.018 49.68 231.467 50.7965C232.916 51.913 233.953 53.4774 234.415 55.2448C234.434 55.2951 234.451 55.3465 234.464 55.3987C235.031 57.4062 234.905 59.5454 234.108 61.4735C233.311 63.4015 231.889 65.0067 230.068 66.0317Z" fill="#E0E0E0"/>
<path opacity="0.1" d="M162.718 93.0472L142.178 99.0755L151.3 130.02L171.84 123.992L162.718 93.0472Z" fill="black"/>
<path d="M156.239 119.882C156.065 119.294 156.07 118.667 156.254 118.082C156.437 117.497 156.79 116.979 157.269 116.594C157.747 116.209 158.329 115.974 158.941 115.919C159.553 115.865 160.168 115.992 160.707 116.286C161.247 116.58 161.687 117.028 161.971 117.571C162.256 118.115 162.372 118.73 162.306 119.34C162.239 119.95 161.993 120.526 161.599 120.996C161.204 121.466 160.678 121.809 160.088 121.981C159.299 122.211 158.45 122.119 157.729 121.725C157.007 121.332 156.472 120.669 156.239 119.882Z" fill="#F0F0F0"/>
<path d="M141.867 153.299C141.528 153.632 141.113 153.878 140.658 154.016C140.202 154.154 139.72 154.179 139.252 154.09L122.876 150.956C110.291 148.542 76.8787 142.134 66.1594 115.237C63.3203 108.095 63.4377 100.12 66.4859 93.0637C69.534 86.0075 75.2637 80.4467 82.4171 77.602C92.87 73.4537 104.928 77.4621 112.948 84.4715C113.958 73.8734 120.394 62.5339 130.854 58.3857C138.01 55.5558 145.999 55.6729 153.07 58.7112C160.14 61.7495 165.714 67.4611 168.571 74.594C179.29 101.505 159.408 129.053 151.921 139.42L142.183 152.942C142.085 153.067 141.98 153.186 141.867 153.299Z" fill="#076372"/>
<path opacity="0.2" d="M141.867 153.299C141.528 153.632 141.113 153.878 140.658 154.016C140.202 154.154 139.72 154.179 139.252 154.09L122.876 150.956C110.291 148.542 76.8787 142.134 66.1594 115.237C63.3203 108.095 63.4377 100.12 66.4859 93.0637C69.534 86.0075 75.2637 80.4467 82.4171 77.602C92.87 73.4537 104.928 77.4621 112.948 84.4715C113.958 73.8734 120.394 62.5339 130.854 58.3857C138.01 55.5558 145.999 55.6729 153.07 58.7112C160.14 61.7495 165.714 67.4611 168.571 74.594C179.29 101.505 159.408 129.053 151.921 139.42L142.183 152.942C142.085 153.067 141.98 153.186 141.867 153.299Z" fill="white"/>
<path d="M134.808 261.518C135.453 259.076 133.132 257.425 132.06 255.97C130.405 253.711 130.04 250.304 130.153 247.702C130.293 244.456 129.991 242.105 132.06 239.258C134.499 235.865 137.878 231.913 149.053 222.35L135.256 214.537C132.312 218.944 125.659 227.982 125.659 227.982L125.049 228.779C123.647 230.36 122.89 231.577 120.843 232.934L120.085 233.298C118.788 234.145 115.521 234.97 115.465 238.083C115.409 241.196 116.566 242.014 117.842 244.617C118.655 246.275 119.244 247.121 119.244 250.213C119.244 252.724 119.006 253.795 118.901 256.04C118.816 257.929 120.415 260.734 123.899 262.091C128.926 264.092 134.17 263.917 134.808 261.518Z" fill="#FFBDA7"/>
<path d="M113.608 238.104C112 240.176 110.627 242.418 109.513 244.792L112.878 250.038L116.033 244.987C114.784 242.872 113.96 240.534 113.608 238.104Z" fill="#263238"/>
<path d="M112.878 250.038L117.786 249.877C118.049 248.829 117.917 247.721 117.414 246.764C117.07 246.098 116.612 245.497 116.061 244.987L112.878 250.038Z" fill="black"/>
<path d="M114.624 236.992C114.236 237.261 113.905 237.603 113.65 237.999C113.397 238.496 113.551 241.714 114.512 243.302C115.472 244.89 117.057 246.596 117.386 248.828C117.716 251.059 116.685 254.424 117.435 257.523C118.185 260.622 120.941 264.281 127.25 265.351C131.737 266.114 133.469 265.295 135.011 264.386C135.628 262.406 135.593 261.874 133.188 260.091C130.784 258.307 114.624 236.992 114.624 236.992Z" fill="#263238"/>
<path d="M123.303 229.143C121.2 231.549 120.436 232.473 118.536 233.515C116.244 234.774 115.732 235.299 114.624 237.013C114.077 239.671 114.561 240.797 116.825 244.309C118.382 246.715 118.865 248.275 118.704 251.493C118.515 255.39 117.106 257.173 121.572 261.336C125.077 264.574 132.901 265.078 135.102 262.994C137.114 257.747 132.424 257.957 131.52 252.277C130.906 249.173 131.077 245.966 132.017 242.945C132.477 241.557 133.057 240.211 133.749 238.922C134.548 237.628 135.256 236.684 134.667 235.97L133.469 237.369C132.319 237.586 129.578 236.866 127.811 235.271C123.542 231.465 125.049 228.772 125.049 228.772L125.659 227.975C125.238 227.415 124.537 227.793 123.303 229.143Z" fill="#37474F"/>
<path d="M184.745 260.853L184.639 259.587L183.469 239.062L166.601 242.7L172.911 262.07C172.911 262.07 176.759 264.484 181.162 263.714C185.565 262.945 184.745 260.853 184.745 260.853Z" fill="#FFBDA7"/>
<path d="M173.086 286.631L179.949 284.302L180.398 277.684L173.415 280.097L173.086 286.631Z" fill="black"/>
<path d="M167.821 272.598C167.456 275.026 168.277 283.378 168.277 283.378L173.093 286.631L173.415 280.104C173.415 280.104 174.74 281.356 176.065 284.861C177.313 288.177 178.358 290.646 181.52 292.423C184.681 294.2 188.11 294.732 192.849 294.277C196.228 293.948 198.345 292.549 198.934 291.689C199.123 291.247 199.207 290.769 199.179 290.29L167.821 272.598Z" fill="#263238"/>
<path d="M184.639 259.587C185.572 259.545 185.467 260.454 186.42 265.974C187.121 270.101 190.101 278.831 192.786 281.902C195.141 284.595 199.719 285.554 199.179 290.297C197.013 293.095 189.701 293.899 185.495 292.605C180.125 290.947 178.484 288.184 176.5 282.811C174.902 278.509 173.38 278.006 171.109 276.222C169.609 275.04 168.368 274.417 167.821 272.563C167.821 268.534 169.819 264.994 170.415 262.987C170.983 261.098 170.513 258.789 171.768 258.544L172.139 259.685C172.139 259.685 173.899 261.818 178.638 262.371C184.541 263.071 184.745 260.818 184.745 260.818L184.639 259.587Z" fill="#37474F"/>
<path d="M155.447 169.962L167.134 156.3C167.134 156.3 176.949 145.373 190.094 149.305C190.094 149.305 186.42 169.004 183.377 185.897C180.293 203.043 176.633 203.652 169.216 208.94C163.537 212.983 138.986 231.696 138.986 231.696C136.666 231.185 130.496 225.561 129.921 222.126C129.921 222.126 135.726 213.354 139.105 208.87C143.515 203.022 144.896 200.175 152.699 195.579C152.58 189.199 155.447 169.962 155.447 169.962Z" fill="#37474F"/>
<path d="M132.992 221.742L132.536 221.406L132.859 220.972C140.802 210.395 148.331 200.581 164.344 198.377L164.421 198.944C148.647 201.112 141.194 210.836 133.314 221.329L132.992 221.742Z" fill="#263238"/>
<path d="M186.231 159.658C186.231 159.658 163.516 164.638 163.39 165.079L155.244 171.466C154.578 176.111 152.615 190.277 152.713 195.558C151.703 196.153 150.806 196.719 149.993 197.265L157.796 210.703C157.473 212.988 157.4 215.3 157.578 217.6C162.57 213.844 167.155 210.409 169.23 208.933C175.161 204.736 178.687 203.463 181.436 194.376L175.953 171.2C175.953 171.2 184.639 168.066 186.231 159.658Z" fill="#263238"/>
<path d="M127.825 224.995C127.825 224.995 127.383 227.912 131.029 231.199C132.657 232.726 134.777 233.624 137.009 233.732L141.916 229.612C141.916 229.612 139.435 230.087 135.852 226.513C133.66 224.398 132.37 221.522 132.249 218.482L127.825 224.995Z" fill="#455A64"/>
<path d="M160.081 210.304C159.24 218.44 162.037 226.932 164.21 234.41C167.716 246.463 168.655 250.157 168.655 250.157C168.655 250.157 174.474 253.473 184.331 250.584C183.931 239.874 183.413 229.5 182.81 219.195C182.207 208.891 182.908 207.149 180.706 198.244C175.799 178.468 173.366 169.829 173.366 169.829C173.366 169.829 186.855 166.814 190.192 149.011L143.922 142.946C137.107 151.991 136.588 161.959 140.858 173.089C143.865 181.008 153.358 198.86 160.081 210.304Z" fill="#37474F"/>
<path d="M150.245 165.002C152.083 172.576 154.543 179.986 157.599 187.157C161.448 195.999 164.61 203.582 165.136 207.604C165.304 208.807 165.9 219.265 166.328 222.078C166.755 224.89 170.534 246.394 173.478 252.612L174.179 252.703C171.179 246.373 167.344 224.883 166.923 222.071C166.503 219.258 165.9 208.779 165.725 207.527C165.157 203.428 162.184 196.216 158.146 186.933C155.178 179.901 152.759 172.651 150.911 165.247H151.178C152.327 165.145 153.407 164.651 154.234 163.848C156.891 161.365 158.363 155.754 158.609 147.157H158.041C157.803 155.475 156.351 161.106 153.835 163.442C153.004 164.248 151.894 164.701 150.736 164.708C148.85 156.685 150.441 150.683 151.851 145.38C152.215 144.023 152.552 142.736 152.832 141.442L152.229 141.498C151.963 142.715 151.64 143.946 151.297 145.233C149.881 150.592 148.247 156.734 150.245 165.002Z" fill="#263238"/>
<path d="M167.561 246.883C167.561 246.883 170.856 248.807 176.262 248.632C182.165 248.436 184.289 245.883 184.289 245.883L184.653 253.424C184.653 253.424 183.476 256.159 176.942 255.942C171.586 255.76 169.665 254.005 169.665 254.005L167.561 246.883Z" fill="#455A64"/>
<path d="M211.981 121.463C214.61 112.32 214.421 107.206 210.754 104.184C207.424 101.442 201.865 101.386 201.865 101.386L211.981 121.463Z" fill="#263238"/>
<path d="M165.563 159.658C182.613 162.575 189.68 153.362 189.68 153.362C192.589 148.514 194.742 145.03 195.863 143.897C197.301 142.449 199.32 140.805 202.404 138.021C210.733 137.51 214.575 131.83 213.853 123.82C213.292 117.623 211.862 113.572 209.289 107.682C206.716 101.792 202.888 101.26 200.462 101.239C191.956 101.227 183.518 102.768 175.568 105.786C166.678 109.284 159.99 121.176 155.433 129.06C151.963 135.076 147.63 136.832 143.094 142.925C142.4 145.534 151.668 157.272 165.563 159.658Z" fill="#455A64"/>
<path d="M195.948 139.238C189.848 141.386 180.559 140.211 177.986 132.425C177.559 139.168 186.693 145.247 195.948 139.238Z" fill="#37474F"/>
<path d="M132.284 154.999C135.432 154.593 138.18 154.145 142.688 150.235C148.794 144.94 157.207 137.552 157.207 137.552C157.207 137.552 172.076 128.913 175.098 125.562C178.989 121.246 182.109 113.992 176.752 107.787C171.845 106.801 169.861 109.788 160.572 117.203C151.865 124.198 149.6 125.485 146.144 129.829C142.688 134.174 135.474 142.694 132.606 144.933C129.739 147.171 127.93 146.583 125.68 146.919C123.429 147.255 121.782 148.703 119.875 148.542C117.968 148.381 116.419 145.674 114.771 144.66C113.124 143.645 112.002 143.526 111.378 144.177C110.754 144.828 114.603 149.165 114.603 149.165C114.603 149.165 110.299 146.031 108.875 145.506C107.452 144.981 106.071 145.856 106.225 146.555C106.38 147.255 113.481 152.215 114.491 153.033C115.5 153.852 117.709 154.306 120.8 154.607C123.892 154.908 129.136 155.405 132.284 154.999Z" fill="#FFBDA7"/>
<path d="M177.047 105.241C172.714 106.745 171.27 107.102 165.718 112.068C160.915 116.363 158.651 118.406 158.651 118.406C158.651 118.406 159.794 129.13 168.767 131.781C168.767 131.781 176.893 127.584 178.729 123.527C180.566 119.469 182.263 111.138 177.047 105.241Z" fill="#263238"/>
<path d="M114.603 149.151C115.774 150.459 116.825 151.795 118.108 152.187C119.391 152.578 120.857 152.97 120.857 152.97C119.538 152.861 118.233 152.627 116.959 152.271C116.124 151.851 114.603 149.151 114.603 149.151Z" fill="#F0997A"/>
<path d="M199.979 78.3505C200.806 76.154 200.645 73.7406 200.378 71.4531C200.133 70.0937 199.56 68.8142 198.71 67.7245C198.003 66.7411 197.031 65.9791 195.905 65.528C194.393 64.979 192.735 64.979 191.222 65.528C190.65 65.7789 190.038 65.9235 189.414 65.9547C188.803 65.8786 188.205 65.7259 187.633 65.5C186.291 65.1001 184.849 65.2072 183.581 65.8008C182.501 66.3999 181.621 67.3024 181.05 68.3961C180.538 69.2495 180.398 70.3968 179.283 70.6416C179.083 70.6814 178.877 70.6772 178.679 70.6293C178.481 70.5815 178.296 70.4912 178.137 70.3647C177.977 70.2382 177.847 70.0785 177.756 69.8968C177.664 69.7151 177.614 69.5157 177.608 69.3125C177.233 69.5546 176.96 69.9255 176.841 70.3549C176.723 70.7843 176.766 71.2422 176.963 71.642C177.176 72.0356 177.485 72.3698 177.861 72.6142C178.237 72.8585 178.668 73.0052 179.115 73.041C177.969 73.2504 176.866 73.6525 175.855 74.2302C174.832 74.8107 174.077 75.7672 173.752 76.8955C173.674 77.1501 173.653 77.4186 173.691 77.6821C173.728 77.9456 173.823 78.1976 173.969 78.4205C174.151 78.6282 174.366 78.8033 174.607 78.9381L176.009 79.8196C176.71 80.2813 177.552 80.8689 177.594 81.7363C177.636 82.6037 176.794 83.3452 176.192 84.0797C175.64 84.8053 175.321 85.6806 175.277 86.5904C175.233 87.5003 175.466 88.402 175.946 89.1772C176.425 89.9523 177.128 90.5645 177.963 90.9332C178.798 91.3019 179.725 91.4099 180.622 91.243C180.288 91.2005 179.968 91.0866 179.682 90.9089C179.397 90.7313 179.153 90.4941 178.968 90.2138C178.783 89.9334 178.661 89.6164 178.61 89.2845C178.559 88.9527 178.581 88.6137 178.673 88.291C178.968 89.8929 180.826 90.8163 182.445 90.6554C182.964 90.6064 183.574 90.5085 183.917 90.8932C184.106 91.1875 184.206 91.53 184.205 91.8796C184.332 92.615 184.71 93.284 185.274 93.7735C185.839 94.263 186.556 94.5429 187.303 94.5658C188.046 94.5426 188.769 94.3308 189.407 93.9502C192.176 92.4042 193.529 89.0954 193.711 85.9335C193.767 84.8422 193.774 83.6041 194.559 82.8486C195.183 82.254 196.109 82.149 196.908 81.8062C197.627 81.467 198.27 80.986 198.798 80.392C199.326 79.7981 199.727 79.1036 199.979 78.3505Z" fill="#263238"/>
<path d="M199.208 68.2492C197.139 67.6686 195.155 68.0254 193.199 70.103C192.405 70.9688 191.913 72.0685 191.797 73.2369C191.713 74.8249 192.071 75.6853 192.954 75.8462C193.536 75.9511 195.001 75.2796 195.583 75.2096C196.623 75.142 197.631 74.8304 198.527 74.3002C199.018 73.9526 199.451 73.53 199.81 73.048C200.224 72.559 200.515 71.9787 200.659 71.3552C200.897 70.033 200.462 68.599 199.208 68.2492Z" fill="#076372"/>
<path d="M190.584 97.7697C190.01 94.9715 188.355 92.2153 187.345 87.2206C185.992 80.54 188.383 76.4128 191.552 76.3358C194.44 67.6126 203.919 67.1719 212.871 70.9564C215.837 72.2015 219.251 74.4541 220.765 77.3501C221.027 77.7515 221.194 78.2065 221.254 78.6813C221.315 79.156 221.268 79.6384 221.116 80.0923C220.625 81.1346 219.195 81.6873 219.118 82.8415C219.136 83.2154 219.248 83.5788 219.444 83.898C219.64 84.2171 219.914 84.4817 220.239 84.6673C220.896 85.0308 221.498 85.4854 222.027 86.0174C222.28 86.3365 222.448 86.7143 222.515 87.1157C222.582 87.517 222.546 87.9287 222.41 88.3123C222.274 88.696 222.043 89.0389 221.738 89.3092C221.433 89.5795 221.065 89.7683 220.667 89.8579C220.904 89.5917 221.034 89.2483 221.034 88.8925C221.034 88.5368 220.904 88.1933 220.667 87.9272C220.176 87.41 219.533 87.0621 218.83 86.9338C219.314 87.0597 219.209 88.6267 219.132 88.9485C218.889 89.6322 218.493 90.2518 217.975 90.7603C212.549 97.7207 190.584 97.7697 190.584 97.7697Z" fill="#263238"/>
<path d="M192.428 94.2859C191.671 94.6007 188.923 94.6637 187.92 91.2989C187.177 88.7176 187.528 85.5207 190.5 84.7722C192.078 84.3805 194.707 84.9541 195.057 90.4874C195.87 90.5294 196.768 90.2006 196.859 87.4095C200.287 86.591 201.142 83.9118 200.077 79.8684C203.849 78.2455 205.636 81.0087 208.314 81.6453C210.242 82.107 212.864 78.3085 213.923 79.1689C216.496 81.2186 217.912 84.5833 217.786 91.0051C217.667 96.8463 216.335 102.198 213.741 104.849C211.672 106.983 206.8 107.871 202.096 105.8L200.855 107.766C200.855 107.766 206.12 121.897 198.408 117.56C190.697 113.222 187.892 103.912 187.892 103.912L192.428 94.2859Z" fill="#FFBDA7"/>
<path d="M206.323 90.9562C206.253 91.223 206.105 91.4631 205.898 91.6463C205.691 91.8294 205.435 91.9474 205.161 91.9855C204.887 92.0236 204.608 91.98 204.359 91.8602C204.11 91.7405 203.902 91.5499 203.761 91.3124C203.62 91.0749 203.553 90.8012 203.567 90.5257C203.582 90.2501 203.678 89.9851 203.843 89.7638C204.008 89.5426 204.236 89.375 204.496 89.2822C204.756 89.1894 205.038 89.1756 205.307 89.2423C205.487 89.2872 205.656 89.3673 205.805 89.478C205.954 89.5887 206.08 89.7278 206.174 89.8872C206.269 90.0467 206.331 90.2233 206.356 90.4068C206.382 90.5903 206.371 90.777 206.323 90.9562Z" fill="#263238"/>
<path d="M204.402 85.2549L201.409 86.8359C201.504 87.0355 201.639 87.2136 201.805 87.3596C201.971 87.5055 202.166 87.6162 202.376 87.6849C202.587 87.7536 202.809 87.7789 203.029 87.7592C203.25 87.7395 203.464 87.6753 203.659 87.5704C204.059 87.3547 204.359 86.9933 204.497 86.5618C204.636 86.1302 204.602 85.662 204.402 85.2549Z" fill="#263238"/>
<path d="M213.166 90.8721C213.282 91.1222 213.47 91.3323 213.706 91.4762C213.942 91.62 214.215 91.6911 214.491 91.6805C214.767 91.6699 215.034 91.5781 215.258 91.4167C215.482 91.2553 215.653 91.0314 215.75 90.7731C215.847 90.5149 215.865 90.2339 215.803 89.9653C215.74 89.6967 215.599 89.4526 215.398 89.2636C215.197 89.0746 214.944 88.9492 214.672 88.9031C214.399 88.8569 214.119 88.8922 213.867 89.0044C213.697 89.0799 213.544 89.1884 213.416 89.3236C213.289 89.4588 213.189 89.6179 213.124 89.7917C213.059 89.9656 213.029 90.1506 213.036 90.3361C213.043 90.5216 213.087 90.7038 213.166 90.8721Z" fill="#263238"/>
<path d="M216.888 86.5211L213.663 84.8702C213.544 85.0724 213.467 85.2969 213.438 85.5298C213.409 85.7627 213.427 85.9991 213.493 86.2245C213.559 86.45 213.67 86.6596 213.82 86.8405C213.97 87.0214 214.155 87.1699 214.365 87.2767C214.802 87.4972 215.308 87.5418 215.777 87.4013C216.247 87.2607 216.645 86.9457 216.888 86.5211Z" fill="#263238"/>
<path d="M214.147 95.5171L209.681 97.0911L209.184 88.6757L214.147 95.5171Z" fill="#F0997A"/>
<path d="M206.407 100.722C206.37 100.671 206.322 100.628 206.267 100.596L206.008 100.421C205.819 100.315 205.619 100.228 205.412 100.162C205.279 100.12 205.265 100.4 205.37 100.442C205.569 100.511 205.759 100.603 205.938 100.715L206.19 100.904C206.23 100.944 206.274 100.98 206.323 101.009L206.442 101.044C206.52 101.079 206.527 100.932 206.506 100.89C206.485 100.848 206.442 100.771 206.407 100.722Z" fill="#F0997A"/>
<path d="M207.964 99.8193C207.888 99.7041 207.796 99.6004 207.69 99.5115C207.333 99.1844 206.917 98.928 206.464 98.756C206.227 98.6585 205.98 98.5881 205.727 98.5461C205.616 98.5276 205.504 98.5159 205.391 98.5111C205.32 98.4891 205.245 98.4894 205.175 98.5119C205.104 98.5345 205.043 98.5782 204.998 98.637C204.928 98.686 204.949 98.8469 204.998 98.8959C205.104 98.9816 205.225 99.0458 205.356 99.0848C205.487 99.1114 205.616 99.1488 205.741 99.1967C205.966 99.2736 206.19 99.3506 206.407 99.4485C206.802 99.6383 207.174 99.873 207.515 100.148C207.627 100.232 207.943 100.533 208.069 100.33C208.195 100.127 208.062 99.9522 207.964 99.8193Z" fill="#B16668"/>
<path d="M211.714 84.5554C211.751 84.4307 211.803 84.3109 211.869 84.1986C211.97 84.0374 212.103 83.8992 212.261 83.7929C212.405 83.7041 212.564 83.6447 212.731 83.618C212.806 83.611 212.881 83.611 212.955 83.618H213.075C213.107 83.6201 213.139 83.6301 213.167 83.6471C213.195 83.6642 213.219 83.6878 213.236 83.7159C213.257 83.7429 213.268 83.7762 213.268 83.8104C213.268 83.8446 213.257 83.8778 213.236 83.9048C213.168 83.9479 213.091 83.9742 213.011 83.9817C212.937 84.0037 212.864 84.0317 212.794 84.0657C212.731 84.0989 212.67 84.1362 212.612 84.1776C212.551 84.2259 212.495 84.2798 212.444 84.3385C212.421 84.3611 212.402 84.3871 212.388 84.4155V84.4644L212.345 84.5764V84.6393V84.6743V84.7582C212.349 84.7791 212.349 84.8003 212.345 84.8212C212.318 84.9306 212.268 85.0331 212.198 85.122C212.181 85.1425 212.16 85.1591 212.135 85.1704C212.111 85.1818 212.085 85.1877 212.058 85.1877C212.031 85.1877 212.005 85.1818 211.981 85.1704C211.956 85.1591 211.935 85.1425 211.918 85.122C211.836 85.0546 211.774 84.9664 211.738 84.8666C211.702 84.7669 211.694 84.6593 211.714 84.5554Z" fill="#F0997A"/>
<path d="M202.11 105.8C198.682 103.926 194.882 100.743 194.258 95.9229C193.718 101.379 197.28 104.779 201.269 107.115L202.11 105.8Z" fill="#F0997A"/>
<path d="M49.5232 178.356L90.7248 202.099C91.1421 202.287 91.4864 202.606 91.7054 203.008C91.9243 203.409 92.0058 203.871 91.9376 204.323C91.9425 204.768 91.8337 205.206 91.6215 205.596C91.4092 205.987 91.1006 206.317 90.7248 206.555L67.9822 219.657C67.4835 219.909 66.9323 220.041 66.3733 220.041C65.8143 220.041 65.2631 219.909 64.7643 219.657L23.5838 195.922C23.2244 195.708 22.9318 195.398 22.7387 195.027C22.5456 194.657 22.4595 194.24 22.4902 193.823C22.4579 193.369 22.5412 192.914 22.7325 192.501C22.9237 192.087 23.2165 191.729 23.5838 191.459L46.2983 178.356C46.7807 178.052 47.3398 177.89 47.9108 177.89C48.4817 177.89 49.0408 178.052 49.5232 178.356Z" fill="#37474F"/>
<path d="M48.3384 179.35L24.9859 192.816L66.3487 216.671V220.042C65.7893 220.055 65.2362 219.922 64.7433 219.658L23.5838 195.922C23.2244 195.708 22.9318 195.398 22.7387 195.028C22.5456 194.657 22.4595 194.24 22.4902 193.824C22.4579 193.37 22.5412 192.915 22.7325 192.501C22.9237 192.088 23.2165 191.729 23.5838 191.459L46.2983 178.357C46.9068 177.979 47.6292 177.828 48.3384 177.93V179.329V179.35Z" fill="#263238"/>
<path d="M90.2971 202.288L49.1797 178.594C48.7837 178.392 48.3452 178.286 47.9002 178.286C47.4553 178.286 47.0167 178.392 46.6208 178.594L24.4251 191.417C23.4716 191.963 23.4646 192.865 24.4251 193.411L65.2341 216.929C65.5842 217.105 65.9707 217.197 66.3628 217.197C66.7548 217.197 67.1413 217.105 67.4915 216.929L90.3041 203.785C90.4681 203.739 90.6124 203.64 90.715 203.505C90.8175 203.369 90.8726 203.203 90.8718 203.034C90.871 202.864 90.8144 202.699 90.7105 202.564C90.6067 202.429 90.4615 202.332 90.2971 202.288Z" fill="#455A64"/>
<path d="M37.9486 201.868C38.1292 201.981 38.2804 202.135 38.3901 202.317C38.4997 202.5 38.5647 202.705 38.5796 202.917C38.5875 202.989 38.5754 203.062 38.5444 203.127C38.5135 203.193 38.465 203.248 38.4043 203.288L37.9626 203.54C37.8895 203.574 37.8083 203.588 37.7279 203.579C37.6476 203.57 37.5712 203.54 37.507 203.491L33.616 201.252C33.4355 201.139 33.2842 200.985 33.1746 200.803C33.0649 200.621 33 200.415 32.9851 200.203C32.9791 200.134 32.9907 200.064 33.0189 200.001C33.0471 199.937 33.0909 199.881 33.1463 199.839L33.602 199.573C33.6763 199.542 33.7574 199.531 33.8373 199.541C33.9172 199.551 33.9932 199.581 34.0577 199.629L37.9486 201.868Z" fill="#455A64"/>
<path d="M37.5069 202.12L33.616 199.881C33.2655 199.678 32.9851 199.825 32.9851 200.203C33 200.415 33.0649 200.621 33.1746 200.803C33.2842 200.986 33.4355 201.139 33.616 201.252L37.5069 203.491C37.8575 203.694 38.1379 203.547 38.1379 203.169C38.123 202.957 38.058 202.751 37.9484 202.569C37.8388 202.387 37.6875 202.233 37.5069 202.12Z" fill="#37474F"/>
<path d="M31.1413 197.951C31.3232 198.063 31.4758 198.216 31.5867 198.399C31.6976 198.581 31.7636 198.787 31.7793 199C31.7867 199.071 31.7742 199.142 31.7433 199.207C31.7123 199.271 31.6641 199.325 31.604 199.364L31.1623 199.622C31.0876 199.655 31.0056 199.668 30.9245 199.659C30.8433 199.651 30.7659 199.621 30.6996 199.574L26.8157 197.335C26.6352 197.222 26.4839 197.068 26.3743 196.886C26.2646 196.703 26.1997 196.498 26.1848 196.286C26.1774 196.216 26.1884 196.146 26.2167 196.082C26.245 196.018 26.2896 195.963 26.346 195.922L26.8017 195.656C26.876 195.625 26.9571 195.614 27.037 195.624C27.1169 195.634 27.1929 195.664 27.2574 195.712L31.1413 197.951Z" fill="#455A64"/>
<path d="M30.6996 198.202L26.8157 195.964C26.4652 195.761 26.1847 195.908 26.1847 196.286C26.1997 196.498 26.2646 196.703 26.3742 196.886C26.4839 197.068 26.6351 197.222 26.8157 197.335L30.6996 199.574C31.0501 199.776 31.3376 199.63 31.3376 199.252C31.3181 199.04 31.2506 198.835 31.14 198.654C31.0295 198.472 30.8789 198.317 30.6996 198.202Z" fill="#37474F"/>
<path d="M50.2243 180.224L88.0817 202.057C88.2269 202.108 88.3527 202.202 88.4417 202.328C88.5306 202.453 88.5784 202.603 88.5784 202.756C88.5784 202.91 88.5306 203.06 88.4417 203.185C88.3527 203.31 88.2269 203.405 88.0817 203.456L67.4494 215.348C67.072 215.541 66.6538 215.642 66.2296 215.642C65.8053 215.642 65.3871 215.541 65.0097 215.348L26.8017 193.334C26.2549 193.019 26.1497 192.543 26.4932 192.172L26.5774 192.088C26.6466 192.028 26.7218 191.974 26.8017 191.928L32.6065 188.584L32.9851 188.367C33.1027 188.308 33.2323 188.278 33.3637 188.278C33.4951 188.278 33.6247 188.308 33.7422 188.367C33.8643 188.427 33.9986 188.459 34.1348 188.459C34.271 188.459 34.4054 188.427 34.5274 188.367L41.3137 184.422C41.5381 184.289 41.5521 184.093 41.3137 183.967C41.273 183.95 41.2382 183.921 41.2138 183.884C41.1894 183.848 41.1763 183.805 41.1763 183.76C41.1763 183.716 41.1894 183.673 41.2138 183.637C41.2382 183.6 41.273 183.571 41.3137 183.554L46.9924 180.28L47.1115 180.21C47.5943 179.966 48.1284 179.84 48.6696 179.843C49.2108 179.845 49.7437 179.976 50.2243 180.224Z" fill="black"/>
<path d="M33.7703 189.213C33.6527 189.155 33.5231 189.124 33.3917 189.124C33.2603 189.124 33.1307 189.155 33.0131 189.213L32.6345 189.43L26.8297 192.774C26.7501 192.818 26.675 192.87 26.6054 192.928L26.5213 193.012V193.047C26.6139 193.155 26.7255 193.245 26.8508 193.313L65.0588 215.327C65.4362 215.521 65.8544 215.621 66.2786 215.621C66.7029 215.621 67.121 215.521 67.4985 215.327L88.1308 203.435C88.2562 203.365 88.3678 203.272 88.4603 203.162C88.3693 203.053 88.2573 202.962 88.1308 202.896L50.2242 181.071C49.7462 180.829 49.2178 180.703 48.6819 180.703C48.146 180.703 47.6177 180.829 47.1396 181.071L47.0204 181.141L41.489 184.324V185.058C41.4846 185.111 41.466 185.162 41.4351 185.205C41.4043 185.248 41.3623 185.282 41.3137 185.303L34.5555 189.199C34.4345 189.262 34.3007 189.296 34.1645 189.298C34.0283 189.301 33.8934 189.272 33.7703 189.213Z" fill="#263238"/>
<path d="M34.3031 187.003L37.4088 185.219C37.5085 185.167 37.6191 185.141 37.7313 185.141C37.8435 185.141 37.9541 185.167 38.0538 185.219C38.2291 185.324 38.2221 185.492 38.0538 185.597L34.9551 187.381C34.8554 187.432 34.7448 187.459 34.6326 187.459C34.5204 187.459 34.4098 187.432 34.3101 187.381C34.0998 187.283 34.0998 187.115 34.3031 187.003Z" fill="#263238"/>
<path d="M38.874 184.233C38.9893 184.171 39.1182 184.138 39.2491 184.138C39.38 184.138 39.5088 184.171 39.6241 184.233C39.6687 184.249 39.7072 184.278 39.7344 184.317C39.7616 184.356 39.7762 184.402 39.7762 184.449C39.7762 184.497 39.7616 184.543 39.7344 184.582C39.7072 184.621 39.6687 184.65 39.6241 184.666C39.5078 184.725 39.3793 184.755 39.2491 184.755C39.1188 184.755 38.9904 184.725 38.874 184.666C38.8294 184.65 38.7909 184.621 38.7637 184.582C38.7366 184.543 38.722 184.497 38.722 184.449C38.722 184.402 38.7366 184.356 38.7637 184.317C38.7909 184.278 38.8294 184.249 38.874 184.233Z" fill="#263238"/>
<g opacity="0.15">
<path d="M68.9637 190.997L63.1378 187.646L57.992 211.263L63.8109 214.621L68.9637 190.997Z" fill="white"/>
<path d="M52.699 208.206L57.8448 184.589L50.2242 180.224C49.7462 179.983 49.2178 179.857 48.6819 179.857C48.146 179.857 47.6176 179.983 47.1396 180.224L47.0204 180.294L43.5992 182.267L39.5891 200.679L52.699 208.206Z" fill="white"/>
</g>
<path d="M95.1344 216.432C95.2116 216.062 95.2466 215.873 95.3307 215.502C95.3906 215.328 95.4863 215.167 95.6116 215.032C95.737 214.896 95.8892 214.788 96.0587 214.714C96.2282 214.641 96.4112 214.603 96.596 214.604C96.7809 214.604 96.9636 214.644 97.1325 214.719C99.0674 215.313 100.021 215.6 101.907 216.118C102.273 216.195 102.595 216.409 102.809 216.716C103.023 217.023 103.111 217.399 103.056 217.769L102.804 218.699C102.747 218.87 102.656 219.027 102.536 219.161C102.416 219.296 102.27 219.405 102.107 219.481C101.944 219.558 101.767 219.6 101.586 219.607C101.406 219.613 101.227 219.583 101.058 219.517C99.1866 218.986 98.2542 218.713 96.3473 218.118C95.9796 218.023 95.657 217.802 95.4355 217.494C95.214 217.186 95.1075 216.811 95.1344 216.432ZM102.005 217.496C102.02 217.39 101.994 217.284 101.933 217.197C101.871 217.11 101.78 217.049 101.675 217.027C99.7965 216.481 98.8711 216.202 96.9221 215.628C96.8745 215.607 96.823 215.595 96.7708 215.595C96.7186 215.594 96.6668 215.604 96.6187 215.625C96.5707 215.645 96.5273 215.675 96.4915 215.713C96.4556 215.751 96.428 215.796 96.4104 215.845C96.3262 216.223 96.2912 216.404 96.2071 216.782C96.1977 216.89 96.2281 216.998 96.2926 217.086C96.3571 217.173 96.4513 217.235 96.5576 217.258C98.4645 217.838 99.4109 218.111 101.283 218.657C101.33 218.676 101.381 218.685 101.432 218.684C101.483 218.683 101.533 218.672 101.579 218.651C101.626 218.63 101.668 218.6 101.702 218.562C101.737 218.525 101.763 218.481 101.781 218.433C101.865 218.041 101.914 217.859 102.005 217.496Z" fill="#E0E0E0"/>
<path d="M100.701 217.608C100.722 217.546 100.755 217.49 100.799 217.442C100.842 217.394 100.895 217.355 100.954 217.328C101.013 217.302 101.077 217.287 101.142 217.286C101.207 217.284 101.272 217.296 101.332 217.321C103.87 218.055 105.111 218.398 107.641 219.091C107.77 219.118 107.883 219.193 107.958 219.301C108.032 219.409 108.062 219.542 108.041 219.671C108.019 219.732 107.985 219.788 107.942 219.836C107.898 219.883 107.845 219.922 107.787 219.949C107.728 219.976 107.665 219.992 107.6 219.995C107.535 219.997 107.471 219.987 107.41 219.965C104.921 219.265 103.68 218.93 101.15 218.202C101.012 218.181 100.887 218.107 100.804 217.996C100.72 217.885 100.683 217.746 100.701 217.608Z" fill="#E0E0E0"/>
<path d="M106.078 219.622C106.176 219.258 106.218 219.077 106.316 218.713C106.447 218.373 106.706 218.097 107.037 217.945C107.368 217.792 107.746 217.774 108.09 217.894L112.717 219.161C113.078 219.229 113.398 219.435 113.608 219.736C113.817 220.037 113.9 220.408 113.839 220.769L113.593 221.672C113.465 222.014 113.208 222.293 112.877 222.449C112.545 222.604 112.166 222.624 111.82 222.504L107.214 221.245C106.852 221.172 106.532 220.963 106.32 220.661C106.109 220.358 106.022 219.987 106.078 219.622ZM112.801 220.49C112.82 220.388 112.797 220.283 112.738 220.197C112.679 220.112 112.588 220.054 112.486 220.035L107.852 218.769C107.803 218.751 107.752 218.743 107.701 218.746C107.649 218.748 107.599 218.761 107.553 218.783C107.506 218.805 107.465 218.836 107.431 218.875C107.397 218.913 107.371 218.958 107.354 219.007C107.256 219.363 107.214 219.545 107.116 219.909C107.099 220.013 107.124 220.119 107.184 220.205C107.244 220.291 107.335 220.35 107.438 220.371L112.058 221.63C112.156 221.662 112.262 221.655 112.355 221.611C112.447 221.566 112.52 221.488 112.556 221.392L112.801 220.49Z" fill="#E0E0E0"/>
<path d="M111.511 220.623C111.557 220.501 111.649 220.402 111.767 220.347C111.885 220.292 112.02 220.286 112.142 220.329C114.638 221.028 115.879 221.329 118.452 222.001C118.582 222.023 118.699 222.096 118.776 222.203C118.854 222.31 118.886 222.444 118.865 222.574C118.817 222.699 118.722 222.799 118.6 222.856C118.479 222.912 118.34 222.919 118.213 222.875C115.676 222.176 114.428 221.875 111.939 221.203C111.872 221.195 111.807 221.173 111.749 221.139C111.691 221.105 111.64 221.059 111.6 221.005C111.56 220.95 111.532 220.888 111.516 220.823C111.501 220.757 111.499 220.689 111.511 220.623Z" fill="#E0E0E0"/>
<path d="M79.0731 211.592C79.0948 211.53 79.1288 211.474 79.1731 211.426C79.2174 211.377 79.2709 211.339 79.3306 211.312C79.3902 211.285 79.4547 211.271 79.5201 211.27C79.5854 211.268 79.6504 211.28 79.711 211.305C82.2419 212.039 83.4898 212.389 85.9785 213.075C86.0431 213.086 86.1046 213.111 86.1597 213.146C86.2147 213.182 86.2622 213.228 86.2993 213.282C86.3365 213.336 86.3626 213.397 86.3761 213.461C86.3896 213.525 86.3903 213.591 86.3782 213.655C86.3569 213.717 86.3237 213.773 86.2804 213.822C86.237 213.87 86.1845 213.909 86.1258 213.937C86.0671 213.965 86.0034 213.982 85.9384 213.985C85.8734 213.988 85.8084 213.978 85.7472 213.956C83.2654 213.257 82.0175 212.921 79.4937 212.186C79.361 212.159 79.2436 212.082 79.1654 211.972C79.0873 211.862 79.0543 211.726 79.0731 211.592Z" fill="#E0E0E0"/>
<path d="M84.4502 213.613L84.6816 212.704C84.811 212.363 85.0689 212.085 85.4002 211.931C85.7315 211.777 86.1101 211.758 86.4552 211.878C88.3131 212.396 89.2595 212.648 91.0893 213.145C91.4489 213.214 91.7669 213.422 91.9752 213.722C92.1836 214.023 92.2657 214.393 92.204 214.754C92.1058 215.117 92.0638 215.299 91.9656 215.663C91.8362 216.004 91.5783 216.281 91.247 216.436C90.9157 216.59 90.5371 216.609 90.1919 216.488L85.5789 215.236C85.2138 215.17 84.89 214.962 84.6785 214.657C84.4669 214.353 84.3848 213.978 84.4502 213.613ZM91.1664 214.502C91.1829 214.4 91.1593 214.296 91.1005 214.211C91.0417 214.126 90.9522 214.067 90.8509 214.047C89.0001 213.55 88.0467 213.298 86.2239 212.788C86.1761 212.77 86.1251 212.762 86.0741 212.764C86.0231 212.766 85.973 212.778 85.9267 212.799C85.8804 212.821 85.8388 212.851 85.8044 212.889C85.7699 212.927 85.7434 212.971 85.7261 213.019C85.628 213.382 85.5789 213.564 85.4878 213.928C85.4712 214.03 85.4949 214.134 85.5537 214.219C85.6125 214.304 85.702 214.362 85.8033 214.383C87.6541 214.893 88.5725 215.145 90.4233 215.642C90.4711 215.66 90.522 215.668 90.5731 215.666C90.6241 215.664 90.6742 215.652 90.7205 215.63C90.7668 215.609 90.8084 215.578 90.8428 215.541C90.8772 215.503 90.9038 215.459 90.921 215.411L91.1664 214.502Z" fill="#E0E0E0"/>
<path d="M89.8765 214.614C89.8984 214.552 89.9324 214.495 89.9764 214.447C90.0204 214.398 90.0735 214.359 90.1328 214.331C90.1921 214.303 90.2563 214.287 90.3218 214.284C90.3873 214.281 90.4528 214.291 90.5144 214.313C93.0032 215.012 94.2511 215.32 96.824 215.985C96.8885 215.996 96.9501 216.019 97.0054 216.054C97.0608 216.089 97.1087 216.134 97.1464 216.187C97.1842 216.241 97.2111 216.301 97.2255 216.364C97.24 216.428 97.2417 216.494 97.2306 216.558C97.1819 216.683 97.0868 216.783 96.9653 216.839C96.8437 216.896 96.7052 216.903 96.5786 216.859C94.0408 216.195 92.7929 215.859 90.2691 215.187C90.1423 215.16 90.0309 215.085 89.9578 214.979C89.8847 214.872 89.8556 214.741 89.8765 214.614Z" fill="#E0E0E0"/>
<path d="M116.594 222.469C116.699 222.113 116.748 221.931 116.846 221.567C116.91 221.394 117.007 221.235 117.131 221.1C117.256 220.965 117.407 220.855 117.574 220.778C117.742 220.7 117.923 220.657 118.107 220.649C118.291 220.642 118.475 220.671 118.648 220.735C120.541 221.231 121.494 221.476 123.45 221.973C123.635 221.998 123.813 222.06 123.974 222.156C124.135 222.251 124.275 222.377 124.386 222.527C124.497 222.677 124.577 222.847 124.621 223.028C124.665 223.21 124.672 223.398 124.642 223.582C124.544 223.938 124.488 224.12 124.383 224.484C124.228 224.833 123.948 225.111 123.597 225.264C123.247 225.417 122.852 225.433 122.49 225.31C120.555 224.82 119.602 224.568 117.723 224.071C117.362 224.005 117.042 223.8 116.831 223.5C116.62 223.201 116.535 222.831 116.594 222.469ZM123.542 223.302C123.558 223.198 123.532 223.092 123.471 223.007C123.409 222.922 123.316 222.864 123.212 222.847C121.256 222.35 120.303 222.106 118.41 221.609C118.31 221.577 118.202 221.583 118.107 221.627C118.012 221.671 117.937 221.75 117.898 221.847L117.653 222.749C117.634 222.851 117.657 222.956 117.716 223.042C117.775 223.127 117.866 223.185 117.968 223.204C119.854 223.701 120.807 223.945 122.749 224.442C122.852 224.475 122.963 224.47 123.062 224.426C123.16 224.382 123.239 224.303 123.282 224.204C123.387 223.847 123.436 223.666 123.542 223.302Z" fill="#E0E0E0"/>
<path d="M122.189 223.442C122.239 223.315 122.336 223.213 122.461 223.157C122.585 223.101 122.726 223.095 122.855 223.141C125.477 223.806 126.809 224.141 129.606 224.792C129.921 224.869 130.125 225.128 130.047 225.365C129.984 225.49 129.88 225.589 129.752 225.645C129.624 225.701 129.481 225.711 129.346 225.673C126.542 225.016 125.238 224.68 122.623 224.015C122.556 224.008 122.492 223.987 122.433 223.953C122.374 223.92 122.323 223.875 122.283 223.821C122.242 223.768 122.213 223.707 122.197 223.641C122.18 223.576 122.178 223.508 122.189 223.442Z" fill="#E0E0E0"/>
<g opacity="0.1">
<path d="M95.1344 216.432C95.2116 216.062 95.2466 215.873 95.3307 215.502C95.3906 215.328 95.4863 215.167 95.6116 215.032C95.737 214.896 95.8892 214.788 96.0587 214.714C96.2282 214.641 96.4112 214.603 96.596 214.604C96.7809 214.604 96.9636 214.644 97.1325 214.719C99.0674 215.313 100.021 215.6 101.907 216.118C102.273 216.195 102.595 216.409 102.809 216.716C103.023 217.023 103.111 217.399 103.056 217.769L102.804 218.699C102.747 218.87 102.656 219.027 102.536 219.161C102.416 219.296 102.27 219.405 102.107 219.481C101.944 219.558 101.767 219.6 101.586 219.607C101.406 219.613 101.227 219.583 101.058 219.517C99.1866 218.986 98.2542 218.713 96.3473 218.118C95.9796 218.023 95.657 217.802 95.4355 217.494C95.214 217.186 95.1075 216.811 95.1344 216.432ZM102.005 217.496C102.02 217.39 101.994 217.284 101.933 217.197C101.871 217.11 101.78 217.049 101.675 217.027C99.7965 216.481 98.8711 216.202 96.9221 215.628C96.8745 215.607 96.823 215.595 96.7708 215.595C96.7186 215.594 96.6668 215.604 96.6187 215.625C96.5707 215.645 96.5273 215.675 96.4915 215.713C96.4556 215.751 96.428 215.796 96.4104 215.845C96.3262 216.223 96.2912 216.404 96.2071 216.782C96.1977 216.89 96.2281 216.998 96.2926 217.086C96.3571 217.173 96.4513 217.235 96.5576 217.258C98.4645 217.838 99.4109 218.111 101.283 218.657C101.33 218.676 101.381 218.685 101.432 218.684C101.483 218.683 101.533 218.672 101.579 218.651C101.626 218.63 101.668 218.6 101.702 218.562C101.737 218.525 101.763 218.481 101.781 218.433C101.865 218.041 101.914 217.859 102.005 217.496Z" fill="black"/>
<path d="M100.701 217.608C100.722 217.546 100.755 217.49 100.799 217.442C100.842 217.394 100.895 217.355 100.954 217.328C101.013 217.302 101.077 217.287 101.142 217.286C101.207 217.284 101.272 217.296 101.332 217.321C103.87 218.055 105.111 218.398 107.641 219.091C107.77 219.118 107.883 219.193 107.958 219.301C108.032 219.409 108.062 219.542 108.041 219.671C108.019 219.732 107.985 219.788 107.942 219.836C107.898 219.883 107.845 219.922 107.787 219.949C107.728 219.976 107.665 219.992 107.6 219.995C107.535 219.997 107.471 219.987 107.41 219.965C104.921 219.265 103.68 218.93 101.15 218.202C101.012 218.181 100.887 218.107 100.804 217.996C100.72 217.885 100.683 217.746 100.701 217.608Z" fill="black"/>
<path d="M106.078 219.622C106.176 219.258 106.218 219.077 106.316 218.713C106.447 218.373 106.706 218.097 107.037 217.945C107.368 217.792 107.746 217.774 108.09 217.894L112.717 219.161C113.078 219.229 113.398 219.435 113.608 219.736C113.817 220.037 113.9 220.408 113.839 220.769L113.593 221.672C113.465 222.014 113.208 222.293 112.877 222.449C112.545 222.604 112.166 222.624 111.82 222.504L107.214 221.245C106.852 221.172 106.532 220.963 106.32 220.661C106.109 220.358 106.022 219.987 106.078 219.622ZM112.801 220.49C112.82 220.388 112.797 220.283 112.738 220.197C112.679 220.112 112.588 220.054 112.486 220.035L107.852 218.769C107.803 218.751 107.752 218.743 107.701 218.746C107.649 218.748 107.599 218.761 107.553 218.783C107.506 218.805 107.465 218.836 107.431 218.875C107.397 218.913 107.371 218.958 107.354 219.007C107.256 219.363 107.214 219.545 107.116 219.909C107.099 220.013 107.124 220.119 107.184 220.205C107.244 220.291 107.335 220.35 107.438 220.371L112.058 221.63C112.156 221.662 112.262 221.655 112.355 221.611C112.447 221.566 112.52 221.488 112.556 221.392L112.801 220.49Z" fill="black"/>
<path d="M111.511 220.623C111.557 220.501 111.649 220.402 111.767 220.347C111.885 220.292 112.02 220.286 112.142 220.329C114.638 221.028 115.879 221.329 118.452 222.001C118.582 222.023 118.699 222.096 118.776 222.203C118.854 222.31 118.886 222.444 118.865 222.574C118.817 222.699 118.722 222.799 118.6 222.856C118.479 222.912 118.34 222.919 118.213 222.875C115.676 222.176 114.428 221.875 111.939 221.203C111.872 221.195 111.807 221.173 111.749 221.139C111.691 221.105 111.64 221.059 111.6 221.005C111.56 220.95 111.532 220.888 111.516 220.823C111.501 220.757 111.499 220.689 111.511 220.623Z" fill="black"/>
<path d="M79.0731 211.592C79.0948 211.53 79.1288 211.474 79.1731 211.426C79.2174 211.377 79.2709 211.339 79.3306 211.312C79.3902 211.285 79.4547 211.271 79.5201 211.27C79.5854 211.268 79.6504 211.28 79.711 211.305C82.2419 212.039 83.4898 212.389 85.9785 213.075C86.0431 213.086 86.1046 213.111 86.1597 213.146C86.2147 213.182 86.2622 213.228 86.2993 213.282C86.3365 213.336 86.3626 213.397 86.3761 213.461C86.3896 213.525 86.3903 213.591 86.3782 213.655C86.3569 213.717 86.3237 213.773 86.2804 213.822C86.237 213.87 86.1845 213.909 86.1258 213.937C86.0671 213.965 86.0034 213.982 85.9384 213.985C85.8734 213.988 85.8084 213.978 85.7472 213.956C83.2654 213.257 82.0175 212.921 79.4937 212.186C79.361 212.159 79.2436 212.082 79.1654 211.972C79.0873 211.862 79.0543 211.726 79.0731 211.592Z" fill="black"/>
<path d="M84.4502 213.613L84.6816 212.704C84.811 212.363 85.0689 212.085 85.4002 211.931C85.7315 211.777 86.1101 211.758 86.4552 211.878C88.3131 212.396 89.2595 212.648 91.0893 213.145C91.4489 213.214 91.7669 213.422 91.9752 213.722C92.1836 214.023 92.2657 214.393 92.204 214.754C92.1058 215.117 92.0638 215.299 91.9656 215.663C91.8362 216.004 91.5783 216.281 91.247 216.436C90.9157 216.59 90.5371 216.609 90.1919 216.488L85.5789 215.236C85.2138 215.17 84.89 214.962 84.6785 214.657C84.4669 214.353 84.3848 213.978 84.4502 213.613ZM91.1664 214.502C91.1829 214.4 91.1593 214.296 91.1005 214.211C91.0417 214.126 90.9522 214.067 90.8509 214.047C89.0001 213.55 88.0467 213.298 86.2239 212.788C86.1761 212.77 86.1251 212.762 86.0741 212.764C86.0231 212.766 85.973 212.778 85.9267 212.799C85.8804 212.821 85.8388 212.851 85.8044 212.889C85.7699 212.927 85.7434 212.971 85.7261 213.019C85.628 213.382 85.5789 213.564 85.4878 213.928C85.4712 214.03 85.4949 214.134 85.5537 214.219C85.6125 214.304 85.702 214.362 85.8033 214.383C87.6541 214.893 88.5725 215.145 90.4233 215.642C90.4711 215.66 90.522 215.668 90.5731 215.666C90.6241 215.664 90.6742 215.652 90.7205 215.63C90.7668 215.609 90.8084 215.578 90.8428 215.541C90.8772 215.503 90.9038 215.459 90.921 215.411L91.1664 214.502Z" fill="black"/>
<path d="M89.8765 214.614C89.8984 214.552 89.9324 214.495 89.9764 214.447C90.0204 214.398 90.0735 214.359 90.1328 214.331C90.1921 214.303 90.2563 214.287 90.3218 214.284C90.3873 214.281 90.4528 214.291 90.5144 214.313C93.0032 215.012 94.2511 215.32 96.824 215.985C96.8885 215.996 96.9501 216.019 97.0054 216.054C97.0608 216.089 97.1087 216.134 97.1464 216.187C97.1842 216.241 97.2111 216.301 97.2255 216.364C97.24 216.428 97.2417 216.494 97.2306 216.558C97.1819 216.683 97.0868 216.783 96.9653 216.839C96.8437 216.896 96.7052 216.903 96.5786 216.859C94.0408 216.195 92.7929 215.859 90.2691 215.187C90.1423 215.16 90.0309 215.085 89.9578 214.979C89.8847 214.872 89.8556 214.741 89.8765 214.614Z" fill="black"/>
<path d="M116.594 222.469C116.699 222.113 116.748 221.931 116.846 221.567C116.91 221.394 117.007 221.235 117.131 221.1C117.256 220.965 117.407 220.855 117.574 220.778C117.742 220.7 117.923 220.657 118.107 220.649C118.291 220.642 118.475 220.671 118.648 220.735C120.541 221.231 121.494 221.476 123.45 221.973C123.635 221.998 123.813 222.06 123.974 222.156C124.135 222.251 124.275 222.377 124.386 222.527C124.497 222.677 124.577 222.847 124.621 223.028C124.665 223.21 124.672 223.398 124.642 223.582C124.544 223.938 124.488 224.12 124.383 224.484C124.228 224.833 123.948 225.111 123.597 225.264C123.247 225.417 122.852 225.433 122.49 225.31C120.555 224.82 119.602 224.568 117.723 224.071C117.362 224.005 117.042 223.8 116.831 223.5C116.62 223.201 116.535 222.831 116.594 222.469ZM123.542 223.302C123.558 223.198 123.532 223.092 123.471 223.007C123.409 222.922 123.316 222.864 123.212 222.847C121.256 222.35 120.303 222.106 118.41 221.609C118.31 221.577 118.202 221.583 118.107 221.627C118.012 221.671 117.937 221.75 117.898 221.847L117.653 222.749C117.634 222.851 117.657 222.956 117.716 223.042C117.775 223.127 117.866 223.185 117.968 223.204C119.854 223.701 120.807 223.945 122.749 224.442C122.852 224.475 122.963 224.47 123.062 224.426C123.16 224.382 123.239 224.303 123.282 224.204C123.387 223.847 123.436 223.666 123.542 223.302Z" fill="black"/>
<path d="M122.189 223.442C122.239 223.315 122.336 223.213 122.461 223.157C122.585 223.101 122.726 223.095 122.855 223.141C125.477 223.806 126.809 224.141 129.606 224.792C129.921 224.869 130.125 225.128 130.047 225.365C129.984 225.49 129.88 225.589 129.752 225.645C129.624 225.701 129.481 225.711 129.346 225.673C126.542 225.016 125.238 224.68 122.623 224.015C122.556 224.008 122.492 223.987 122.433 223.953C122.374 223.92 122.323 223.875 122.283 223.821C122.242 223.768 122.213 223.707 122.197 223.641C122.18 223.576 122.178 223.508 122.189 223.442Z" fill="black"/>
</g>
<path d="M140.774 230.591L139.904 231.291C137.211 230.807 134.749 229.458 132.894 227.45C129.578 224.015 129.907 221.854 129.907 221.854L130.545 220.909C130.047 220.21 129.325 220.651 128.218 222.308C127.11 223.966 126.185 225.296 125.806 226.73C125.343 228.499 127.11 231.144 129.255 233.095C131.4 235.047 134.443 235.894 135.565 235.691C136.687 235.488 137.17 234.648 138.797 233.284C140.423 231.92 141.124 231.347 140.774 230.591Z" fill="#E0E0E0"/>
<path opacity="0.2" d="M140.774 230.591L139.904 231.291C137.211 230.807 134.749 229.458 132.894 227.45C129.578 224.015 129.907 221.854 129.907 221.854L130.545 220.909C130.047 220.21 129.325 220.651 128.218 222.308C127.11 223.966 126.185 225.296 125.806 226.73C125.343 228.499 127.11 231.144 129.255 233.095C131.4 235.047 134.443 235.894 135.565 235.691C136.687 235.488 137.17 234.648 138.797 233.284C140.423 231.92 141.124 231.347 140.774 230.591Z" fill="black"/>
<path opacity="0.25" d="M130.559 225.575C130.706 225.414 130.861 225.26 131.008 225.107C130.889 224.911 130.784 224.729 130.685 224.547L130.328 224.883C128.899 226.365 127.602 227.968 126.451 229.675C126.549 229.863 126.661 230.045 126.78 230.234L127.327 229.5C127.853 228.8 128.365 228.136 128.905 227.478C129.445 226.82 129.991 226.191 130.559 225.575Z" fill="black"/>
<path opacity="0.25" d="M130.924 228.22C131.265 228.22 131.541 227.944 131.541 227.604C131.541 227.264 131.265 226.988 130.924 226.988C130.583 226.988 130.307 227.264 130.307 227.604C130.307 227.944 130.583 228.22 130.924 228.22Z" fill="black"/>
<path opacity="0.25" d="M129.55 229.772C129.551 229.896 129.516 230.017 129.448 230.12C129.38 230.224 129.283 230.304 129.169 230.353C129.056 230.401 128.93 230.414 128.808 230.391C128.687 230.368 128.575 230.309 128.487 230.222C128.399 230.135 128.339 230.024 128.314 229.904C128.29 229.783 128.302 229.657 128.349 229.543C128.396 229.429 128.476 229.331 128.578 229.262C128.681 229.194 128.802 229.157 128.926 229.157C129.007 229.156 129.088 229.171 129.164 229.202C129.24 229.232 129.308 229.277 129.367 229.335C129.425 229.392 129.471 229.46 129.502 229.535C129.534 229.61 129.55 229.691 129.55 229.772Z" fill="black"/>
</svg>
