<svg width="328" height="323" viewBox="0 0 328 323" fill="none" xmlns="http://www.w3.org/2000/svg">
<path d="M141.493 323C210.488 323 266.419 319.464 266.419 315.103C266.419 310.741 210.488 307.205 141.493 307.205C72.4985 307.205 16.5672 310.741 16.5672 315.103C16.5672 319.464 72.4985 323 141.493 323Z" fill="#076372"/>
<path opacity="0.8" d="M141.493 323C210.488 323 266.419 319.464 266.419 315.103C266.419 310.741 210.488 307.205 141.493 307.205C72.4985 307.205 16.5672 310.741 16.5672 315.103C16.5672 319.464 72.4985 323 141.493 323Z" fill="white"/>
<path d="M235.369 14.7974H109.757C101.084 14.7974 94.054 21.9313 94.054 30.7315V299.833C94.054 308.633 101.084 315.767 109.757 315.767H235.369C244.042 315.767 251.072 308.633 251.072 299.833V30.7315C251.072 21.9313 244.042 14.7974 235.369 14.7974Z" fill="#263238"/>
<path d="M244.09 47.8467H101.028V282.718H244.09V47.8467Z" fill="white" stroke="#263238" stroke-width="1.33739" stroke-miterlimit="10"/>
<path d="M194.49 142.953C206.6 130.664 206.6 110.741 194.49 98.4524C182.38 86.164 162.746 86.164 150.636 98.4524C138.526 110.741 138.526 130.664 150.636 142.953C162.746 155.241 182.38 155.241 194.49 142.953Z" fill="#076372"/>
<path d="M213.274 267.948H131.86C131.677 267.949 131.495 267.913 131.325 267.843C131.156 267.773 131.002 267.669 130.872 267.538C130.742 267.407 130.639 267.251 130.568 267.079C130.498 266.907 130.462 266.723 130.462 266.537C130.461 266.351 130.496 266.166 130.566 265.993C130.636 265.821 130.739 265.664 130.869 265.532C130.999 265.4 131.153 265.295 131.324 265.225C131.494 265.154 131.676 265.118 131.86 265.119H213.274C213.458 265.119 213.639 265.155 213.808 265.227C213.977 265.298 214.131 265.403 214.26 265.535C214.389 265.667 214.491 265.823 214.561 265.995C214.63 266.167 214.665 266.352 214.664 266.537C214.664 266.912 214.518 267.27 214.257 267.535C213.997 267.799 213.643 267.948 213.274 267.948Z" fill="#076372"/>
<path d="M215.925 169.858H129.201C127.411 169.858 125.96 171.33 125.96 173.147V183.521C125.96 185.337 127.411 186.809 129.201 186.809H215.925C217.715 186.809 219.166 185.337 219.166 183.521V173.147C219.166 171.33 217.715 169.858 215.925 169.858Z" fill="#076372"/>
<path d="M215.925 201.562H129.201C127.411 201.562 125.96 203.035 125.96 204.851V215.225C125.96 217.041 127.411 218.514 129.201 218.514H215.925C217.715 218.514 219.166 217.041 219.166 215.225V204.851C219.166 203.035 217.715 201.562 215.925 201.562Z" fill="#076372"/>
<path d="M188.003 136.399L178.879 131.068V126.665C180.2 125.043 181.157 123.148 181.683 121.113C181.997 121.226 182.328 121.284 182.661 121.285C183.792 121.285 184.512 117.726 184.633 115.183C185.95 112.354 184.156 110.698 184.156 110.698C184.156 110.698 184.9 109.943 185.393 106.917C185.886 103.891 183.655 105.154 181.917 102.382C180.18 99.6101 178.935 96.5923 173.23 96.5923C171.658 96.5398 170.106 96.9685 168.777 97.8226C167.448 98.6767 166.404 99.9168 165.778 101.382C164.358 101.387 162.943 101.555 161.56 101.882C159.814 102.382 159.321 108.18 160.808 110.452C161.474 111.693 161.829 113.081 161.843 114.495C161.447 114.003 161.035 113.871 160.808 114.987C160.315 117.504 162.303 121.031 162.303 121.031L163.33 120.735C163.847 122.911 164.844 124.938 166.247 126.665V131.068L157.123 136.399C156.057 137.023 155.172 137.921 154.557 139.002C153.941 140.083 153.617 141.309 153.616 142.558V145.608C159.042 149.862 165.706 152.17 172.563 152.17C179.42 152.17 186.084 149.862 191.51 145.608V142.558C191.511 141.309 191.187 140.082 190.571 139.001C189.956 137.919 189.07 137.022 188.003 136.399Z" fill="#263238"/>
<path d="M137.768 214.298C137.558 214.295 137.358 214.21 137.21 214.061C137.13 213.988 137.067 213.9 137.024 213.801C136.981 213.702 136.959 213.595 136.959 213.487C136.962 213.339 137.004 213.194 137.081 213.068L138.535 210.706L135.699 210.797C135.592 210.803 135.485 210.787 135.384 210.749C135.284 210.711 135.193 210.652 135.117 210.575C134.985 210.425 134.912 210.231 134.912 210.03C134.912 209.829 134.985 209.635 135.117 209.485C135.191 209.405 135.282 209.344 135.382 209.304C135.483 209.264 135.591 209.248 135.699 209.255L138.495 209.362L137.056 207.008C136.978 206.88 136.936 206.732 136.935 206.581C136.934 206.473 136.956 206.366 136.999 206.267C137.043 206.168 137.106 206.08 137.186 206.007C137.334 205.858 137.534 205.773 137.743 205.77C137.881 205.771 138.016 205.811 138.132 205.887C138.247 205.962 138.34 206.069 138.398 206.196L139.78 208.73L141.146 206.212C141.21 206.078 141.31 205.964 141.434 205.883C141.558 205.802 141.701 205.757 141.849 205.753C141.951 205.754 142.052 205.776 142.145 205.818C142.238 205.861 142.322 205.922 142.39 205.999C142.539 206.155 142.62 206.365 142.617 206.581C142.616 206.722 142.58 206.861 142.511 206.983L141.049 209.362L143.885 209.255C143.993 209.248 144.101 209.264 144.201 209.304C144.302 209.344 144.393 209.405 144.467 209.485C144.605 209.63 144.681 209.824 144.677 210.026C144.677 210.229 144.602 210.425 144.467 210.575C144.391 210.652 144.3 210.711 144.2 210.749C144.099 210.787 143.992 210.803 143.885 210.797L141.033 210.706L142.455 213.044C142.535 213.174 142.577 213.325 142.576 213.478C142.576 213.696 142.491 213.904 142.339 214.058C142.188 214.212 141.982 214.298 141.768 214.298C141.629 214.297 141.494 214.254 141.38 214.175C141.265 214.096 141.175 213.985 141.121 213.856L139.772 211.395L138.43 213.856C138.371 213.984 138.277 214.094 138.16 214.172C138.043 214.25 137.907 214.294 137.768 214.298Z" fill="#263238"/>
<path d="M150.876 214.298C150.667 214.295 150.467 214.21 150.318 214.061C150.239 213.988 150.175 213.9 150.132 213.801C150.089 213.702 150.067 213.595 150.068 213.487C150.07 213.339 150.112 213.194 150.189 213.068L151.644 210.706L148.815 210.797C148.707 210.802 148.599 210.785 148.498 210.747C148.397 210.709 148.304 210.65 148.225 210.575C148.118 210.463 148.046 210.321 148.02 210.166C147.994 210.012 148.014 209.854 148.077 209.711C148.141 209.569 148.245 209.449 148.377 209.368C148.508 209.286 148.661 209.247 148.815 209.255L151.603 209.362L150.165 207.008C150.086 206.88 150.045 206.732 150.044 206.581C150.043 206.473 150.065 206.366 150.108 206.267C150.151 206.168 150.215 206.08 150.294 206.007C150.443 205.858 150.642 205.773 150.852 205.77C150.989 205.771 151.124 205.811 151.24 205.887C151.356 205.962 151.448 206.069 151.506 206.196L152.888 208.73L154.254 206.212C154.319 206.078 154.419 205.964 154.543 205.883C154.666 205.802 154.81 205.757 154.957 205.753C155.059 205.753 155.161 205.774 155.254 205.817C155.347 205.859 155.431 205.921 155.499 205.999C155.574 206.076 155.633 206.167 155.673 206.267C155.713 206.367 155.734 206.474 155.733 206.581C155.73 206.723 155.691 206.862 155.62 206.983L154.157 209.362L157.002 209.271C157.108 209.264 157.215 209.281 157.314 209.321C157.413 209.36 157.503 209.422 157.576 209.501C157.713 209.646 157.789 209.841 157.786 210.042C157.785 210.245 157.71 210.441 157.576 210.592C157.501 210.668 157.411 210.727 157.312 210.765C157.213 210.803 157.107 210.82 157.002 210.813L154.141 210.723L155.563 213.06C155.643 213.191 155.685 213.341 155.685 213.495C155.685 213.712 155.599 213.921 155.448 214.075C155.296 214.228 155.091 214.315 154.876 214.315C154.738 214.313 154.603 214.27 154.488 214.191C154.373 214.113 154.283 214.002 154.23 213.872L152.88 211.412L151.539 213.872C151.477 213.998 151.383 214.104 151.266 214.179C151.149 214.254 151.014 214.295 150.876 214.298Z" fill="#263238"/>
<path d="M163.992 214.298C163.78 214.298 163.577 214.212 163.427 214.061C163.347 213.988 163.284 213.9 163.241 213.801C163.197 213.702 163.175 213.595 163.176 213.487C163.179 213.339 163.221 213.194 163.297 213.068L164.752 210.706L161.924 210.797C161.771 210.803 161.621 210.763 161.491 210.682C161.361 210.601 161.258 210.482 161.194 210.342C161.131 210.201 161.111 210.044 161.135 209.892C161.16 209.739 161.229 209.597 161.334 209.485C161.41 209.406 161.502 209.344 161.604 209.305C161.706 209.265 161.815 209.248 161.924 209.255L164.712 209.362L163.273 207.008C163.195 206.88 163.153 206.732 163.152 206.581C163.155 206.474 163.178 206.368 163.221 206.269C163.264 206.171 163.326 206.082 163.402 206.007C163.553 205.856 163.756 205.771 163.968 205.77C164.105 205.772 164.237 205.813 164.352 205.889C164.466 205.964 164.557 206.071 164.615 206.196L165.997 208.73L167.363 206.212C167.427 206.078 167.527 205.964 167.651 205.883C167.775 205.802 167.918 205.757 168.066 205.753C168.168 205.753 168.269 205.774 168.363 205.817C168.456 205.859 168.539 205.921 168.607 205.999C168.682 206.076 168.741 206.167 168.781 206.267C168.822 206.367 168.842 206.474 168.841 206.581C168.839 206.723 168.8 206.862 168.728 206.983L167.266 209.362L170.11 209.255C170.215 209.244 170.32 209.257 170.42 209.291C170.52 209.325 170.611 209.381 170.687 209.454C170.764 209.527 170.824 209.616 170.864 209.714C170.904 209.813 170.922 209.919 170.918 210.026C170.92 210.228 170.848 210.424 170.716 210.575C170.64 210.652 170.549 210.711 170.449 210.749C170.348 210.787 170.241 210.803 170.135 210.797L167.282 210.706L168.696 213.044C168.776 213.174 168.818 213.325 168.817 213.478C168.815 213.586 168.791 213.692 168.748 213.791C168.705 213.889 168.644 213.978 168.567 214.052C168.496 214.129 168.411 214.191 168.317 214.233C168.222 214.275 168.12 214.297 168.017 214.298C167.88 214.296 167.746 214.253 167.632 214.174C167.519 214.095 167.431 213.985 167.379 213.856L166.021 211.395L164.679 213.856C164.619 213.989 164.522 214.101 164.4 214.18C164.278 214.258 164.137 214.299 163.992 214.298Z" fill="#263238"/>
<path d="M177.101 214.298C176.889 214.298 176.686 214.212 176.535 214.061C176.383 213.909 176.296 213.703 176.293 213.487C176.29 213.339 176.329 213.194 176.406 213.068L177.861 210.706L175.032 210.797C174.924 210.802 174.816 210.785 174.715 210.747C174.614 210.709 174.521 210.65 174.442 210.575C174.31 210.425 174.237 210.231 174.237 210.03C174.237 209.829 174.31 209.635 174.442 209.485C174.52 209.408 174.613 209.348 174.714 209.309C174.815 209.269 174.923 209.251 175.032 209.255L177.828 209.362L176.398 207.008C176.32 206.88 176.278 206.732 176.277 206.581C176.279 206.474 176.303 206.368 176.346 206.269C176.389 206.171 176.45 206.082 176.527 206.007C176.678 205.856 176.881 205.771 177.093 205.77C177.23 205.771 177.365 205.811 177.481 205.887C177.597 205.962 177.689 206.069 177.747 206.196L179.121 208.73L180.487 206.212C180.552 206.078 180.652 205.964 180.776 205.883C180.899 205.802 181.043 205.757 181.19 205.753C181.292 205.753 181.394 205.774 181.487 205.817C181.58 205.859 181.664 205.921 181.732 205.999C181.807 206.076 181.866 206.167 181.906 206.267C181.946 206.367 181.967 206.474 181.966 206.581C181.963 206.723 181.924 206.862 181.853 206.983L180.39 209.362L183.235 209.255C183.339 209.244 183.445 209.257 183.545 209.291C183.644 209.325 183.735 209.381 183.812 209.454C183.888 209.527 183.949 209.616 183.989 209.714C184.028 209.813 184.047 209.919 184.043 210.026C184.045 210.228 183.973 210.424 183.841 210.575C183.765 210.652 183.674 210.711 183.573 210.749C183.473 210.787 183.366 210.803 183.259 210.797L180.406 210.706L181.821 213.044C181.9 213.174 181.942 213.325 181.942 213.478C181.943 213.587 181.921 213.694 181.877 213.793C181.834 213.892 181.771 213.98 181.691 214.052C181.621 214.129 181.536 214.191 181.441 214.233C181.347 214.275 181.245 214.297 181.142 214.298C181.004 214.296 180.871 214.253 180.757 214.174C180.644 214.095 180.555 213.985 180.503 213.856L179.146 211.395L177.804 213.856C177.742 213.991 177.643 214.105 177.518 214.184C177.393 214.263 177.248 214.303 177.101 214.298Z" fill="#263238"/>
<path d="M190.209 214.298C189.997 214.298 189.794 214.212 189.644 214.061C189.519 213.932 189.439 213.765 189.417 213.585C189.395 213.406 189.432 213.224 189.522 213.068L190.969 210.706L188.14 210.797C188.033 210.802 187.925 210.785 187.823 210.747C187.722 210.709 187.629 210.65 187.551 210.575C187.419 210.425 187.346 210.231 187.346 210.03C187.346 209.829 187.419 209.635 187.551 209.485C187.629 209.408 187.721 209.348 187.822 209.309C187.924 209.269 188.032 209.251 188.14 209.255L190.937 209.362L189.498 207.008C189.42 206.88 189.378 206.732 189.377 206.581C189.38 206.365 189.467 206.159 189.619 206.007C189.77 205.856 189.973 205.771 190.185 205.77C190.323 205.771 190.457 205.811 190.573 205.887C190.689 205.962 190.782 206.069 190.84 206.196L192.214 208.73L193.579 206.212C193.644 206.078 193.744 205.964 193.868 205.883C193.992 205.802 194.135 205.757 194.283 205.753C194.386 205.753 194.488 205.774 194.583 205.817C194.678 205.859 194.763 205.921 194.832 205.999C194.98 206.155 195.062 206.365 195.058 206.581C195.055 206.723 195.017 206.862 194.945 206.983L193.482 209.362L196.327 209.255C196.432 209.244 196.537 209.257 196.637 209.291C196.736 209.325 196.828 209.381 196.904 209.454C196.981 209.527 197.041 209.616 197.081 209.714C197.121 209.813 197.139 209.919 197.135 210.026C197.137 210.228 197.065 210.424 196.933 210.575C196.857 210.652 196.766 210.711 196.666 210.749C196.565 210.787 196.458 210.803 196.351 210.797L193.499 210.706L194.913 213.044C194.993 213.174 195.035 213.325 195.034 213.478C195.035 213.587 195.013 213.694 194.97 213.793C194.927 213.892 194.863 213.98 194.784 214.052C194.713 214.129 194.628 214.191 194.534 214.233C194.439 214.275 194.337 214.297 194.234 214.298C194.097 214.296 193.963 214.253 193.849 214.174C193.736 214.095 193.648 213.985 193.596 213.856L192.238 211.395L190.896 213.856C190.836 213.989 190.739 214.101 190.617 214.18C190.495 214.258 190.354 214.299 190.209 214.298Z" fill="#263238"/>
<path d="M203.318 214.298C203.109 214.295 202.909 214.21 202.76 214.061C202.681 213.988 202.617 213.9 202.574 213.801C202.531 213.702 202.509 213.595 202.51 213.487C202.512 213.339 202.554 213.194 202.631 213.068L204.077 210.706L201.249 210.797C201.145 210.805 201.04 210.791 200.942 210.755C200.844 210.72 200.753 210.664 200.677 210.592C200.601 210.519 200.541 210.432 200.5 210.334C200.46 210.237 200.439 210.132 200.441 210.026C200.44 209.925 200.459 209.826 200.497 209.733C200.534 209.64 200.589 209.556 200.659 209.485C200.733 209.405 200.824 209.344 200.925 209.304C201.025 209.264 201.133 209.248 201.241 209.255L204.037 209.362L202.598 207.008C202.52 206.88 202.478 206.732 202.477 206.581C202.48 206.365 202.567 206.159 202.72 206.007C202.87 205.856 203.073 205.771 203.285 205.77C203.423 205.771 203.558 205.811 203.674 205.887C203.79 205.962 203.882 206.069 203.94 206.196L205.314 208.73L206.688 206.212C206.752 206.079 206.85 205.966 206.973 205.885C207.095 205.805 207.237 205.759 207.383 205.753C207.486 205.753 207.589 205.774 207.683 205.817C207.778 205.859 207.863 205.921 207.932 205.999C208.081 206.155 208.162 206.365 208.159 206.581C208.158 206.722 208.122 206.861 208.054 206.983L206.591 209.362L209.427 209.255C209.535 209.248 209.643 209.264 209.744 209.304C209.844 209.344 209.935 209.405 210.009 209.485C210.147 209.63 210.223 209.824 210.219 210.026C210.219 210.229 210.144 210.425 210.009 210.575C209.933 210.652 209.842 210.711 209.742 210.749C209.641 210.787 209.534 210.803 209.427 210.797L206.575 210.706L207.989 213.044C208.069 213.174 208.111 213.325 208.11 213.478C208.107 213.695 208.02 213.901 207.868 214.052C207.72 214.205 207.52 214.293 207.31 214.298C207.173 214.296 207.039 214.253 206.925 214.174C206.812 214.095 206.724 213.985 206.672 213.856L205.314 211.395L203.972 213.856C203.914 213.984 203.822 214.093 203.707 214.171C203.591 214.249 203.457 214.293 203.318 214.298Z" fill="#263238"/>
<g style="mix-blend-mode:multiply">
<path d="M244.09 48.1583H101.028V57.253H244.09V48.1583Z" fill="#076372"/>
</g>
<path d="M188.116 31.404H157.002C156.44 31.404 155.902 31.1776 155.505 30.7747C155.108 30.3717 154.885 29.8252 154.885 29.2554C154.885 28.6855 155.108 28.139 155.505 27.7361C155.902 27.3331 156.44 27.1068 157.002 27.1068H188.116C188.678 27.1068 189.216 27.3331 189.613 27.7361C190.011 28.139 190.234 28.6855 190.234 29.2554C190.234 29.8252 190.011 30.3717 189.613 30.7747C189.216 31.1776 188.678 31.404 188.116 31.404Z" fill="#076372" stroke="#263238" stroke-width="1.33739" stroke-linecap="round" stroke-linejoin="round"/>
<path d="M181.045 295.987C181.046 294.283 180.55 292.617 179.618 291.2C178.686 289.782 177.361 288.677 175.81 288.025C174.259 287.372 172.552 287.201 170.906 287.533C169.259 287.865 167.746 288.685 166.559 289.89C165.371 291.094 164.563 292.629 164.236 294.301C163.909 295.972 164.078 297.704 164.721 299.277C165.364 300.851 166.453 302.196 167.85 303.141C169.246 304.087 170.888 304.591 172.567 304.589C174.815 304.587 176.97 303.68 178.559 302.067C180.149 300.454 181.043 298.267 181.045 295.987Z" fill="#076372"/>
<path d="M176.867 291.624H168.268V300.349H176.867V291.624Z" fill="#076372" stroke="#263238" stroke-width="1.33739" stroke-linecap="round" stroke-linejoin="round"/>
<path d="M274.994 196.97C274.994 196.97 263.728 167.923 273.757 164.47C284.199 160.87 283.738 180.052 283.334 189.401C282.486 209.378 280.312 213.093 278.687 208.213L274.994 196.97ZM271.608 219.629C274.703 223.729 275.576 219.481 269.991 200.3C267.373 191.279 261.683 173.032 252.955 179.88C244.575 186.44 264.52 210.223 264.52 210.223L271.608 219.629ZM265.627 236.277C268.577 238.934 268.634 235.579 261.627 221.728C258.338 215.241 251.379 202.112 245.682 208.607C240.21 214.872 258.855 230.101 258.855 230.101L265.627 236.277ZM259.162 256.073C262.112 258.739 262.168 255.376 255.162 241.533C251.872 235.046 244.914 221.909 239.216 228.412C233.778 234.694 252.365 249.923 252.365 249.923L259.162 256.073ZM277.831 215.775C273.111 217.644 276.861 219.678 296.572 219.621C305.817 219.621 324.696 219.194 320.671 208.771C316.816 198.758 288.741 211.51 288.741 211.51L277.831 215.775ZM272.456 229.093C267.462 229.97 270.743 232.726 290.074 236.646C299.134 238.491 317.713 241.894 315.814 230.905C313.996 220.31 283.981 227.149 283.981 227.149L272.456 229.093ZM266.444 245.355C262.193 245.978 264.908 248.381 281.16 252.153C288.781 253.925 304.419 257.246 303.061 247.872C301.768 238.852 276.23 243.952 276.23 243.952L266.444 245.355ZM261.877 260.42C257.715 261.494 260.665 263.593 277.232 265.594C284.991 266.529 300.887 268.153 298.568 258.976C296.329 250.169 271.47 257.968 271.47 257.968L261.877 260.42ZM286.235 199.43C283.811 204.941 288.846 204.105 305.963 188.95C313.98 181.84 330.062 166.963 317.326 159.558C305.098 152.44 291.949 186.785 291.949 186.785L286.235 199.43ZM262.508 280.044C259.946 281.561 262.459 282.152 274.21 279.774C279.722 278.666 290.931 276.206 287.141 271.351C283.472 266.677 268.44 276.518 268.44 276.518L262.508 280.044Z" fill="#076372"/>
<path opacity="0.3" d="M274.994 196.97C274.994 196.97 263.728 167.923 273.757 164.47C284.199 160.87 283.738 180.052 283.334 189.401C282.486 209.378 280.312 213.093 278.687 208.213L274.994 196.97ZM271.608 219.629C274.703 223.729 275.576 219.481 269.991 200.3C267.373 191.279 261.683 173.032 252.955 179.88C244.575 186.44 264.52 210.223 264.52 210.223L271.608 219.629ZM265.627 236.277C268.577 238.934 268.634 235.579 261.627 221.728C258.338 215.241 251.379 202.112 245.682 208.607C240.21 214.872 258.855 230.101 258.855 230.101L265.627 236.277ZM259.162 256.073C262.112 258.739 262.168 255.376 255.162 241.533C251.872 235.046 244.914 221.909 239.216 228.412C233.778 234.694 252.365 249.923 252.365 249.923L259.162 256.073ZM277.831 215.775C273.111 217.644 276.861 219.678 296.572 219.621C305.817 219.621 324.696 219.194 320.671 208.771C316.816 198.758 288.741 211.51 288.741 211.51L277.831 215.775ZM272.456 229.093C267.462 229.97 270.743 232.726 290.074 236.646C299.134 238.491 317.713 241.894 315.814 230.905C313.996 220.31 283.981 227.149 283.981 227.149L272.456 229.093ZM266.444 245.355C262.193 245.978 264.908 248.381 281.16 252.153C288.781 253.925 304.419 257.246 303.061 247.872C301.768 238.852 276.23 243.952 276.23 243.952L266.444 245.355ZM261.877 260.42C257.715 261.494 260.665 263.593 277.232 265.594C284.991 266.529 300.887 268.153 298.568 258.976C296.329 250.169 271.47 257.968 271.47 257.968L261.877 260.42ZM286.235 199.43C283.811 204.941 288.846 204.105 305.963 188.95C313.98 181.84 330.062 166.963 317.326 159.558C305.098 152.44 291.949 186.785 291.949 186.785L286.235 199.43ZM262.508 280.044C259.946 281.561 262.459 282.152 274.21 279.774C279.722 278.666 290.931 276.206 287.141 271.351C283.472 266.677 268.44 276.518 268.44 276.518L262.508 280.044Z" fill="white"/>
<path d="M279.964 210.493L278 177.337L279.964 210.493ZM273.749 221.433L261.336 192.919L273.749 221.433ZM305.785 213.142L276.036 217.472L305.785 213.142ZM267.316 236.801L251.21 215.832L267.316 236.801ZM270.145 230.372L292.337 231.504L270.145 230.372ZM264.892 246.454L281.863 248.159L264.892 246.454ZM260.794 256.672L252.365 243.805L260.794 256.672ZM259.825 261.215L279.778 261.404L259.825 261.215ZM255.784 299.201C255.917 299.191 256.042 299.127 256.129 299.024C256.217 298.921 256.261 298.788 256.252 298.652C254.984 279.314 262.354 247.643 274.178 221.646C281.734 205.031 311.353 172.376 311.668 172.048C311.764 171.951 311.817 171.82 311.817 171.683C311.817 171.546 311.764 171.415 311.668 171.318C311.622 171.27 311.566 171.233 311.505 171.207C311.444 171.181 311.379 171.168 311.313 171.168C311.247 171.168 311.181 171.181 311.12 171.207C311.059 171.233 311.004 171.27 310.957 171.318C310.658 171.646 280.918 204.425 273.297 221.187C261.255 247.815 253.982 278.912 255.275 298.717C255.285 298.848 255.342 298.97 255.437 299.06C255.531 299.149 255.655 299.2 255.784 299.201ZM279.956 211.002C280.09 210.993 280.215 210.932 280.304 210.83C280.393 210.729 280.439 210.596 280.433 210.46L278.501 177.288C278.498 177.221 278.482 177.154 278.453 177.093C278.425 177.032 278.384 176.978 278.335 176.933C278.285 176.888 278.227 176.853 278.164 176.831C278.101 176.809 278.034 176.8 277.968 176.804C277.834 176.813 277.709 176.874 277.62 176.976C277.531 177.077 277.484 177.21 277.491 177.346L279.455 210.501C279.461 210.632 279.517 210.755 279.61 210.845C279.703 210.935 279.827 210.985 279.956 210.985V211.002ZM273.927 221.901C274.048 221.845 274.143 221.743 274.191 221.618C274.24 221.492 274.238 221.352 274.186 221.228L261.764 192.714C261.711 192.59 261.611 192.493 261.486 192.443C261.362 192.394 261.224 192.397 261.101 192.451C260.979 192.506 260.883 192.607 260.835 192.733C260.786 192.859 260.789 193 260.843 193.124L273.256 221.638C273.295 221.73 273.359 221.808 273.441 221.863C273.523 221.918 273.619 221.948 273.717 221.95C273.801 221.954 273.884 221.937 273.959 221.901H273.927ZM276.077 217.964L305.809 213.651C305.881 213.649 305.952 213.632 306.016 213.601C306.081 213.57 306.139 213.525 306.186 213.47C306.232 213.414 306.267 213.349 306.287 213.279C306.307 213.209 306.313 213.136 306.303 213.064C306.293 212.992 306.269 212.922 306.231 212.86C306.192 212.799 306.142 212.746 306.082 212.705C306.023 212.664 305.955 212.637 305.885 212.625C305.814 212.612 305.741 212.615 305.672 212.634L275.939 216.947C275.806 216.956 275.682 217.018 275.595 217.119C275.507 217.221 275.462 217.354 275.471 217.488C275.479 217.623 275.54 217.749 275.64 217.838C275.74 217.928 275.871 217.973 276.004 217.964H276.077ZM267.599 237.211C267.705 237.127 267.773 237.004 267.79 236.869C267.807 236.734 267.77 236.598 267.688 236.49L251.573 215.479C251.491 215.371 251.369 215.3 251.235 215.282C251.101 215.264 250.965 215.301 250.858 215.385C250.751 215.469 250.681 215.592 250.663 215.728C250.646 215.864 250.683 216.002 250.765 216.111L266.912 237.154C266.959 237.215 267.019 237.265 267.088 237.299C267.156 237.333 267.232 237.351 267.308 237.351C267.429 237.345 267.543 237.295 267.631 237.211H267.599ZM292.781 231.528C292.786 231.393 292.737 231.261 292.647 231.161C292.556 231.061 292.43 231.002 292.297 230.995L270.145 229.855C270.02 229.864 269.903 229.919 269.816 230.009C269.729 230.1 269.677 230.219 269.671 230.346C269.665 230.472 269.705 230.597 269.784 230.695C269.862 230.794 269.973 230.86 270.096 230.88L292.289 232.02C292.422 232.025 292.552 231.976 292.651 231.884C292.749 231.791 292.808 231.664 292.814 231.528H292.781ZM282.332 248.209C282.34 248.141 282.334 248.073 282.316 248.008C282.297 247.942 282.266 247.882 282.223 247.829C282.181 247.776 282.129 247.732 282.07 247.7C282.011 247.669 281.946 247.649 281.879 247.643L264.908 245.945C264.842 245.938 264.776 245.945 264.712 245.964C264.649 245.984 264.59 246.016 264.539 246.059C264.488 246.101 264.445 246.154 264.414 246.213C264.383 246.273 264.364 246.338 264.358 246.405C264.347 246.539 264.388 246.673 264.473 246.777C264.557 246.881 264.679 246.948 264.811 246.962L281.782 248.668H281.831C281.961 248.677 282.09 248.634 282.19 248.548C282.289 248.463 282.352 248.341 282.364 248.209H282.332ZM261.037 257.098C261.149 257.023 261.227 256.906 261.255 256.772C261.282 256.638 261.256 256.499 261.182 256.385L252.794 243.518C252.717 243.407 252.601 243.331 252.47 243.305C252.339 243.279 252.203 243.305 252.09 243.378C251.978 243.454 251.9 243.571 251.873 243.705C251.845 243.838 251.871 243.978 251.945 244.092L260.334 256.959C260.382 257.029 260.446 257.087 260.52 257.127C260.595 257.167 260.678 257.188 260.762 257.189C260.872 257.195 260.98 257.163 261.069 257.098H261.037ZM280.287 261.404C280.285 261.269 280.232 261.14 280.139 261.044C280.045 260.947 279.919 260.891 279.786 260.887L259.833 260.699C259.7 260.699 259.572 260.752 259.478 260.847C259.384 260.943 259.332 261.072 259.332 261.207C259.329 261.275 259.341 261.342 259.365 261.405C259.389 261.469 259.426 261.526 259.473 261.574C259.52 261.623 259.576 261.661 259.638 261.686C259.7 261.712 259.766 261.725 259.833 261.724L279.786 261.912C279.854 261.916 279.923 261.905 279.987 261.881C280.051 261.857 280.109 261.82 280.159 261.773C280.209 261.725 280.249 261.668 280.276 261.605C280.304 261.541 280.319 261.473 280.32 261.404H280.287ZM253.513 291.681C253.553 291.591 256.956 282.078 267.187 279.806C267.319 279.777 267.434 279.696 267.506 279.58C267.579 279.465 267.604 279.325 267.575 279.191C267.542 279.06 267.461 278.947 267.348 278.875C267.235 278.803 267.099 278.779 266.969 278.806C256.18 281.201 252.6 291.246 252.559 291.345C252.518 291.474 252.527 291.615 252.586 291.738C252.645 291.86 252.748 291.954 252.874 292.001H253.036C253.143 292.01 253.251 291.984 253.343 291.927C253.435 291.869 253.505 291.783 253.545 291.681H253.513ZM255.784 299.201C255.917 299.191 256.042 299.127 256.129 299.024C256.217 298.921 256.261 298.788 256.252 298.652C254.984 279.314 262.354 247.643 274.178 221.646C281.734 205.031 311.353 172.376 311.668 172.048C311.764 171.951 311.817 171.82 311.817 171.683C311.817 171.546 311.764 171.415 311.668 171.318C311.622 171.27 311.566 171.233 311.505 171.207C311.444 171.181 311.379 171.168 311.313 171.168C311.247 171.168 311.181 171.181 311.12 171.207C311.059 171.233 311.004 171.27 310.957 171.318C310.658 171.646 280.918 204.425 273.297 221.187C261.255 247.815 253.982 278.912 255.275 298.717C255.285 298.848 255.342 298.97 255.437 299.06C255.531 299.149 255.655 299.2 255.784 299.201ZM279.956 211.002C280.09 210.993 280.215 210.932 280.304 210.83C280.393 210.729 280.439 210.596 280.433 210.46L278.501 177.288C278.498 177.221 278.482 177.154 278.453 177.093C278.425 177.032 278.384 176.978 278.335 176.933C278.285 176.888 278.227 176.853 278.164 176.831C278.101 176.809 278.034 176.8 277.968 176.804C277.834 176.813 277.709 176.874 277.62 176.976C277.531 177.077 277.484 177.21 277.491 177.346L279.455 210.501C279.461 210.632 279.517 210.755 279.61 210.845C279.703 210.935 279.827 210.985 279.956 210.985V211.002ZM273.927 221.901C274.048 221.845 274.143 221.743 274.191 221.618C274.24 221.492 274.238 221.352 274.186 221.228L261.764 192.714C261.711 192.59 261.611 192.493 261.486 192.443C261.362 192.394 261.224 192.397 261.101 192.451C260.979 192.506 260.883 192.607 260.835 192.733C260.786 192.859 260.789 193 260.843 193.124L273.256 221.638C273.295 221.73 273.359 221.808 273.441 221.863C273.523 221.918 273.619 221.948 273.717 221.95C273.801 221.954 273.884 221.937 273.959 221.901H273.927ZM276.077 217.964L305.809 213.651C305.881 213.649 305.952 213.632 306.016 213.601C306.081 213.57 306.139 213.525 306.186 213.47C306.232 213.414 306.267 213.349 306.287 213.279C306.307 213.209 306.313 213.136 306.303 213.064C306.293 212.992 306.269 212.922 306.231 212.86C306.192 212.799 306.142 212.746 306.082 212.705C306.023 212.664 305.955 212.637 305.885 212.625C305.814 212.612 305.741 212.615 305.672 212.634L275.939 216.947C275.806 216.956 275.682 217.018 275.595 217.119C275.507 217.221 275.462 217.354 275.471 217.488C275.479 217.623 275.54 217.749 275.64 217.838C275.74 217.928 275.871 217.973 276.004 217.964H276.077ZM267.599 237.211C267.705 237.127 267.773 237.004 267.79 236.869C267.807 236.734 267.77 236.598 267.688 236.49L251.573 215.479C251.532 215.425 251.481 215.38 251.423 215.346C251.365 215.313 251.301 215.291 251.235 215.282C251.168 215.273 251.101 215.278 251.036 215.295C250.972 215.313 250.911 215.344 250.858 215.385C250.805 215.426 250.76 215.478 250.727 215.537C250.694 215.596 250.672 215.661 250.663 215.728C250.655 215.796 250.659 215.864 250.677 215.93C250.694 215.995 250.724 216.057 250.765 216.111L266.912 237.154C266.959 237.215 267.019 237.265 267.088 237.299C267.156 237.333 267.232 237.351 267.308 237.351C267.429 237.345 267.543 237.295 267.631 237.211H267.599ZM292.781 231.528C292.786 231.393 292.737 231.261 292.647 231.161C292.556 231.061 292.43 231.002 292.297 230.995L270.145 229.855C270.02 229.864 269.903 229.919 269.816 230.009C269.729 230.1 269.677 230.219 269.671 230.346C269.665 230.472 269.705 230.597 269.784 230.695C269.862 230.794 269.973 230.86 270.096 230.88L292.289 232.02C292.422 232.025 292.552 231.976 292.651 231.884C292.749 231.791 292.808 231.664 292.814 231.528H292.781ZM282.332 248.209C282.34 248.141 282.334 248.073 282.316 248.008C282.297 247.942 282.266 247.882 282.223 247.829C282.181 247.776 282.129 247.732 282.07 247.7C282.011 247.669 281.946 247.649 281.879 247.643L264.908 245.945C264.842 245.938 264.776 245.945 264.712 245.964C264.649 245.984 264.59 246.016 264.539 246.059C264.488 246.101 264.445 246.154 264.414 246.213C264.383 246.273 264.364 246.338 264.358 246.405C264.347 246.539 264.388 246.673 264.473 246.777C264.557 246.881 264.679 246.948 264.811 246.962L281.782 248.668H281.831C281.961 248.677 282.09 248.634 282.19 248.548C282.289 248.463 282.352 248.341 282.364 248.209H282.332ZM261.037 257.098C261.149 257.023 261.227 256.906 261.255 256.772C261.282 256.638 261.256 256.499 261.182 256.385L252.794 243.518C252.717 243.407 252.601 243.331 252.47 243.305C252.339 243.279 252.203 243.305 252.09 243.378C251.978 243.454 251.9 243.571 251.873 243.705C251.845 243.838 251.871 243.978 251.945 244.092L260.334 256.959C260.382 257.029 260.446 257.087 260.52 257.127C260.595 257.167 260.678 257.188 260.762 257.189C260.872 257.195 260.98 257.163 261.069 257.098H261.037ZM280.287 261.404C280.285 261.269 280.232 261.14 280.139 261.044C280.045 260.947 279.919 260.891 279.786 260.887L259.833 260.699C259.7 260.699 259.572 260.752 259.478 260.847C259.384 260.943 259.332 261.072 259.332 261.207C259.329 261.275 259.341 261.342 259.365 261.405C259.389 261.469 259.426 261.526 259.473 261.574C259.52 261.623 259.576 261.661 259.638 261.686C259.7 261.712 259.766 261.725 259.833 261.724L279.786 261.912C279.854 261.916 279.923 261.905 279.987 261.881C280.051 261.857 280.109 261.82 280.159 261.773C280.209 261.725 280.249 261.668 280.276 261.605C280.304 261.541 280.319 261.473 280.32 261.404H280.287ZM253.513 291.681C253.553 291.591 256.956 282.078 267.187 279.806C267.319 279.777 267.434 279.696 267.506 279.58C267.579 279.465 267.604 279.325 267.575 279.191C267.542 279.06 267.461 278.947 267.348 278.875C267.235 278.803 267.099 278.779 266.969 278.806C256.18 281.201 252.6 291.246 252.559 291.345C252.518 291.474 252.527 291.615 252.586 291.738C252.645 291.86 252.748 291.954 252.874 292.001H253.036C253.143 292.01 253.251 291.984 253.343 291.927C253.435 291.869 253.505 291.783 253.545 291.681H253.513Z" fill="#076372"/>
<path opacity="0.2" d="M279.964 210.493L278 177.337L279.964 210.493ZM273.749 221.433L261.336 192.919L273.749 221.433ZM305.785 213.142L276.036 217.472L305.785 213.142ZM267.316 236.801L251.21 215.832L267.316 236.801ZM270.145 230.372L292.337 231.504L270.145 230.372ZM264.892 246.454L281.863 248.159L264.892 246.454ZM260.794 256.672L252.365 243.805L260.794 256.672ZM259.825 261.215L279.778 261.404L259.825 261.215ZM255.784 299.201C255.917 299.191 256.042 299.127 256.129 299.024C256.217 298.921 256.261 298.788 256.252 298.652C254.984 279.314 262.354 247.643 274.178 221.646C281.734 205.031 311.353 172.376 311.668 172.048C311.764 171.951 311.817 171.82 311.817 171.683C311.817 171.546 311.764 171.415 311.668 171.318C311.622 171.27 311.566 171.233 311.505 171.207C311.444 171.181 311.379 171.168 311.313 171.168C311.247 171.168 311.181 171.181 311.12 171.207C311.059 171.233 311.004 171.27 310.957 171.318C310.658 171.646 280.918 204.425 273.297 221.187C261.255 247.815 253.982 278.912 255.275 298.717C255.285 298.848 255.342 298.97 255.437 299.06C255.531 299.149 255.655 299.2 255.784 299.201ZM279.956 211.002C280.09 210.993 280.215 210.932 280.304 210.83C280.393 210.729 280.439 210.596 280.433 210.46L278.501 177.288C278.498 177.221 278.482 177.154 278.453 177.093C278.425 177.032 278.384 176.978 278.335 176.933C278.285 176.888 278.227 176.853 278.164 176.831C278.101 176.809 278.034 176.8 277.968 176.804C277.834 176.813 277.709 176.874 277.62 176.976C277.531 177.077 277.484 177.21 277.491 177.346L279.455 210.501C279.461 210.632 279.517 210.755 279.61 210.845C279.703 210.935 279.827 210.985 279.956 210.985V211.002ZM273.927 221.901C274.048 221.845 274.143 221.743 274.191 221.618C274.24 221.492 274.238 221.352 274.186 221.228L261.764 192.714C261.711 192.59 261.611 192.493 261.486 192.443C261.362 192.394 261.224 192.397 261.101 192.451C260.979 192.506 260.883 192.607 260.835 192.733C260.786 192.859 260.789 193 260.843 193.124L273.256 221.638C273.295 221.73 273.359 221.808 273.441 221.863C273.523 221.918 273.619 221.948 273.717 221.95C273.801 221.954 273.884 221.937 273.959 221.901H273.927ZM276.077 217.964L305.809 213.651C305.881 213.649 305.952 213.632 306.016 213.601C306.081 213.57 306.139 213.525 306.186 213.47C306.232 213.414 306.267 213.349 306.287 213.279C306.307 213.209 306.313 213.136 306.303 213.064C306.293 212.992 306.269 212.922 306.231 212.86C306.192 212.799 306.142 212.746 306.082 212.705C306.023 212.664 305.955 212.637 305.885 212.625C305.814 212.612 305.741 212.615 305.672 212.634L275.939 216.947C275.806 216.956 275.682 217.018 275.595 217.119C275.507 217.221 275.462 217.354 275.471 217.488C275.479 217.623 275.54 217.749 275.64 217.838C275.74 217.928 275.871 217.973 276.004 217.964H276.077ZM267.599 237.211C267.705 237.127 267.773 237.004 267.79 236.869C267.807 236.734 267.77 236.598 267.688 236.49L251.573 215.479C251.491 215.371 251.369 215.3 251.235 215.282C251.101 215.264 250.965 215.301 250.858 215.385C250.751 215.469 250.681 215.592 250.663 215.728C250.646 215.864 250.683 216.002 250.765 216.111L266.912 237.154C266.959 237.215 267.019 237.265 267.088 237.299C267.156 237.333 267.232 237.351 267.308 237.351C267.429 237.345 267.543 237.295 267.631 237.211H267.599ZM292.781 231.528C292.786 231.393 292.737 231.261 292.647 231.161C292.556 231.061 292.43 231.002 292.297 230.995L270.145 229.855C270.02 229.864 269.903 229.919 269.816 230.009C269.729 230.1 269.677 230.219 269.671 230.346C269.665 230.472 269.705 230.597 269.784 230.695C269.862 230.794 269.973 230.86 270.096 230.88L292.289 232.02C292.422 232.025 292.552 231.976 292.651 231.884C292.749 231.791 292.808 231.664 292.814 231.528H292.781ZM282.332 248.209C282.34 248.141 282.334 248.073 282.316 248.008C282.297 247.942 282.266 247.882 282.223 247.829C282.181 247.776 282.129 247.732 282.07 247.7C282.011 247.669 281.946 247.649 281.879 247.643L264.908 245.945C264.842 245.938 264.776 245.945 264.712 245.964C264.649 245.984 264.59 246.016 264.539 246.059C264.488 246.101 264.445 246.154 264.414 246.213C264.383 246.273 264.364 246.338 264.358 246.405C264.347 246.539 264.388 246.673 264.473 246.777C264.557 246.881 264.679 246.948 264.811 246.962L281.782 248.668H281.831C281.961 248.677 282.09 248.634 282.19 248.548C282.289 248.463 282.352 248.341 282.364 248.209H282.332ZM261.037 257.098C261.149 257.023 261.227 256.906 261.255 256.772C261.282 256.638 261.256 256.499 261.182 256.385L252.794 243.518C252.717 243.407 252.601 243.331 252.47 243.305C252.339 243.279 252.203 243.305 252.09 243.378C251.978 243.454 251.9 243.571 251.873 243.705C251.845 243.838 251.871 243.978 251.945 244.092L260.334 256.959C260.382 257.029 260.446 257.087 260.52 257.127C260.595 257.167 260.678 257.188 260.762 257.189C260.872 257.195 260.98 257.163 261.069 257.098H261.037ZM280.287 261.404C280.285 261.269 280.232 261.14 280.139 261.044C280.045 260.947 279.919 260.891 279.786 260.887L259.833 260.699C259.7 260.699 259.572 260.752 259.478 260.847C259.384 260.943 259.332 261.072 259.332 261.207C259.329 261.275 259.341 261.342 259.365 261.405C259.389 261.469 259.426 261.526 259.473 261.574C259.52 261.623 259.576 261.661 259.638 261.686C259.7 261.712 259.766 261.725 259.833 261.724L279.786 261.912C279.854 261.916 279.923 261.905 279.987 261.881C280.051 261.857 280.109 261.82 280.159 261.773C280.209 261.725 280.249 261.668 280.276 261.605C280.304 261.541 280.319 261.473 280.32 261.404H280.287ZM253.513 291.681C253.553 291.591 256.956 282.078 267.187 279.806C267.319 279.777 267.434 279.696 267.506 279.58C267.579 279.465 267.604 279.325 267.575 279.191C267.542 279.06 267.461 278.947 267.348 278.875C267.235 278.803 267.099 278.779 266.969 278.806C256.18 281.201 252.6 291.246 252.559 291.345C252.518 291.474 252.527 291.615 252.586 291.738C252.645 291.86 252.748 291.954 252.874 292.001H253.036C253.143 292.01 253.251 291.984 253.343 291.927C253.435 291.869 253.505 291.783 253.545 291.681H253.513ZM255.784 299.201C255.917 299.191 256.042 299.127 256.129 299.024C256.217 298.921 256.261 298.788 256.252 298.652C254.984 279.314 262.354 247.643 274.178 221.646C281.734 205.031 311.353 172.376 311.668 172.048C311.764 171.951 311.817 171.82 311.817 171.683C311.817 171.546 311.764 171.415 311.668 171.318C311.622 171.27 311.566 171.233 311.505 171.207C311.444 171.181 311.379 171.168 311.313 171.168C311.247 171.168 311.181 171.181 311.12 171.207C311.059 171.233 311.004 171.27 310.957 171.318C310.658 171.646 280.918 204.425 273.297 221.187C261.255 247.815 253.982 278.912 255.275 298.717C255.285 298.848 255.342 298.97 255.437 299.06C255.531 299.149 255.655 299.2 255.784 299.201ZM279.956 211.002C280.09 210.993 280.215 210.932 280.304 210.83C280.393 210.729 280.439 210.596 280.433 210.46L278.501 177.288C278.498 177.221 278.482 177.154 278.453 177.093C278.425 177.032 278.384 176.978 278.335 176.933C278.285 176.888 278.227 176.853 278.164 176.831C278.101 176.809 278.034 176.8 277.968 176.804C277.834 176.813 277.709 176.874 277.62 176.976C277.531 177.077 277.484 177.21 277.491 177.346L279.455 210.501C279.461 210.632 279.517 210.755 279.61 210.845C279.703 210.935 279.827 210.985 279.956 210.985V211.002ZM273.927 221.901C274.048 221.845 274.143 221.743 274.191 221.618C274.24 221.492 274.238 221.352 274.186 221.228L261.764 192.714C261.711 192.59 261.611 192.493 261.486 192.443C261.362 192.394 261.224 192.397 261.101 192.451C260.979 192.506 260.883 192.607 260.835 192.733C260.786 192.859 260.789 193 260.843 193.124L273.256 221.638C273.295 221.73 273.359 221.808 273.441 221.863C273.523 221.918 273.619 221.948 273.717 221.95C273.801 221.954 273.884 221.937 273.959 221.901H273.927ZM276.077 217.964L305.809 213.651C305.881 213.649 305.952 213.632 306.016 213.601C306.081 213.57 306.139 213.525 306.186 213.47C306.232 213.414 306.267 213.349 306.287 213.279C306.307 213.209 306.313 213.136 306.303 213.064C306.293 212.992 306.269 212.922 306.231 212.86C306.192 212.799 306.142 212.746 306.082 212.705C306.023 212.664 305.955 212.637 305.885 212.625C305.814 212.612 305.741 212.615 305.672 212.634L275.939 216.947C275.806 216.956 275.682 217.018 275.595 217.119C275.507 217.221 275.462 217.354 275.471 217.488C275.479 217.623 275.54 217.749 275.64 217.838C275.74 217.928 275.871 217.973 276.004 217.964H276.077ZM267.599 237.211C267.705 237.127 267.773 237.004 267.79 236.869C267.807 236.734 267.77 236.598 267.688 236.49L251.573 215.479C251.532 215.425 251.481 215.38 251.423 215.346C251.365 215.313 251.301 215.291 251.235 215.282C251.168 215.273 251.101 215.278 251.036 215.295C250.972 215.313 250.911 215.344 250.858 215.385C250.805 215.426 250.76 215.478 250.727 215.537C250.694 215.596 250.672 215.661 250.663 215.728C250.655 215.796 250.659 215.864 250.677 215.93C250.694 215.995 250.724 216.057 250.765 216.111L266.912 237.154C266.959 237.215 267.019 237.265 267.088 237.299C267.156 237.333 267.232 237.351 267.308 237.351C267.429 237.345 267.543 237.295 267.631 237.211H267.599ZM292.781 231.528C292.786 231.393 292.737 231.261 292.647 231.161C292.556 231.061 292.43 231.002 292.297 230.995L270.145 229.855C270.02 229.864 269.903 229.919 269.816 230.009C269.729 230.1 269.677 230.219 269.671 230.346C269.665 230.472 269.705 230.597 269.784 230.695C269.862 230.794 269.973 230.86 270.096 230.88L292.289 232.02C292.422 232.025 292.552 231.976 292.651 231.884C292.749 231.791 292.808 231.664 292.814 231.528H292.781ZM282.332 248.209C282.34 248.141 282.334 248.073 282.316 248.008C282.297 247.942 282.266 247.882 282.223 247.829C282.181 247.776 282.129 247.732 282.07 247.7C282.011 247.669 281.946 247.649 281.879 247.643L264.908 245.945C264.842 245.938 264.776 245.945 264.712 245.964C264.649 245.984 264.59 246.016 264.539 246.059C264.488 246.101 264.445 246.154 264.414 246.213C264.383 246.273 264.364 246.338 264.358 246.405C264.347 246.539 264.388 246.673 264.473 246.777C264.557 246.881 264.679 246.948 264.811 246.962L281.782 248.668H281.831C281.961 248.677 282.09 248.634 282.19 248.548C282.289 248.463 282.352 248.341 282.364 248.209H282.332ZM261.037 257.098C261.149 257.023 261.227 256.906 261.255 256.772C261.282 256.638 261.256 256.499 261.182 256.385L252.794 243.518C252.717 243.407 252.601 243.331 252.47 243.305C252.339 243.279 252.203 243.305 252.09 243.378C251.978 243.454 251.9 243.571 251.873 243.705C251.845 243.838 251.871 243.978 251.945 244.092L260.334 256.959C260.382 257.029 260.446 257.087 260.52 257.127C260.595 257.167 260.678 257.188 260.762 257.189C260.872 257.195 260.98 257.163 261.069 257.098H261.037ZM280.287 261.404C280.285 261.269 280.232 261.14 280.139 261.044C280.045 260.947 279.919 260.891 279.786 260.887L259.833 260.699C259.7 260.699 259.572 260.752 259.478 260.847C259.384 260.943 259.332 261.072 259.332 261.207C259.329 261.275 259.341 261.342 259.365 261.405C259.389 261.469 259.426 261.526 259.473 261.574C259.52 261.623 259.576 261.661 259.638 261.686C259.7 261.712 259.766 261.725 259.833 261.724L279.786 261.912C279.854 261.916 279.923 261.905 279.987 261.881C280.051 261.857 280.109 261.82 280.159 261.773C280.209 261.725 280.249 261.668 280.276 261.605C280.304 261.541 280.319 261.473 280.32 261.404H280.287ZM253.513 291.681C253.553 291.591 256.956 282.078 267.187 279.806C267.319 279.777 267.434 279.696 267.506 279.58C267.579 279.465 267.604 279.325 267.575 279.191C267.542 279.06 267.461 278.947 267.348 278.875C267.235 278.803 267.099 278.779 266.969 278.806C256.18 281.201 252.6 291.246 252.559 291.345C252.518 291.474 252.527 291.615 252.586 291.738C252.645 291.86 252.748 291.954 252.874 292.001H253.036C253.143 292.01 253.251 291.984 253.343 291.927C253.435 291.869 253.505 291.783 253.545 291.681H253.513Z" fill="black"/>
<path d="M268.981 284.743H246.102V289.549H248.098L252.228 315.767H262.855L266.985 289.549H268.981V284.743Z" fill="#076372"/>
<path opacity="0.3" d="M268.981 284.743H246.102V289.549H248.098L252.228 315.767H262.855L266.985 289.549H268.981V284.743Z" fill="white"/>
<path d="M62.9963 139.425L36.3834 130.609L34.0155 124.262L28.6089 124.089L18.7978 122.203L19.9777 124.262L32.3265 133.356L35.3732 134.898L63.2064 149.651L62.9963 139.425Z" fill="white" stroke="#263238" stroke-width="1.00396" stroke-miterlimit="10"/>
<path d="M34.0155 124.262L31.4778 122.72L26.4106 124.606L27.2511 125.631L34.0155 124.262Z" fill="white" stroke="#263238" stroke-width="1.00396" stroke-linejoin="round"/>
<path d="M62.9963 139.425L36.3834 130.609L34.0155 124.262L28.6089 124.089L18.7978 122.203L19.9777 124.262L32.3265 133.356L35.3732 134.898L63.2064 149.651L62.9963 139.425Z" fill="white"/>
<mask id="mask0_206_1760" style="mask-type:luminance" maskUnits="userSpaceOnUse" x="18" y="122" width="46" height="28">
<path d="M62.9963 139.425L36.3834 130.609L34.0155 124.262L28.6089 124.089L18.7978 122.203L19.9777 124.262L32.3265 133.356L35.3732 134.898L63.2064 149.651L62.9963 139.425Z" fill="white"/>
</mask>
<g mask="url(#mask0_206_1760)">
<path opacity="0.5" d="M62.9963 139.425L36.3834 130.609L34.0155 124.262L28.6089 124.089L18.7978 122.203L19.9777 124.262L32.3265 133.356L35.3732 134.898L63.2064 149.651L62.9963 139.425Z" fill="#076372" stroke="#263238" stroke-width="1.00396" stroke-miterlimit="10"/>
</g>
<path d="M62.9963 139.425L36.3834 130.609L34.0155 124.262L28.6089 124.089L18.7978 122.203L19.9777 124.262L32.3265 133.356L35.3732 134.898L63.2064 149.651L62.9963 139.425Z" stroke="#263238" stroke-width="1.00396" stroke-miterlimit="10"/>
<path d="M34.0155 124.262L31.4778 122.72L26.4106 124.606L27.2511 125.631L34.0155 124.262Z" fill="white"/>
<mask id="mask1_206_1760" style="mask-type:luminance" maskUnits="userSpaceOnUse" x="26" y="122" width="9" height="4">
<path d="M34.0155 124.262L31.4778 122.72L26.4106 124.606L27.2511 125.631L34.0155 124.262Z" fill="white"/>
</mask>
<g mask="url(#mask1_206_1760)">
<path opacity="0.5" d="M34.0155 124.262L31.4778 122.72L26.4106 124.606L27.2511 125.631L34.0155 124.262Z" fill="#076372" stroke="#263238" stroke-width="1.00396" stroke-linejoin="round"/>
</g>
<path d="M34.0155 124.262L31.4778 122.72L26.4106 124.606L27.2511 125.631L34.0155 124.262Z" stroke="#263238" stroke-width="1.00396" stroke-linejoin="round"/>
<path d="M68.6452 82.2081C68.6452 82.2081 68.2331 85.8984 69.2594 88.2685C70.2858 90.6385 75.9834 98.6671 75.9834 98.6671L65.3479 107.319C65.3479 107.319 60.9354 98.2981 60.0949 96.8383C59.2544 95.3786 58.2442 89.0968 60.9838 84.5945C63.7235 80.0923 67.6674 78.8786 68.6452 82.2081Z" fill="white"/>
<mask id="mask2_206_1760" style="mask-type:luminance" maskUnits="userSpaceOnUse" x="59" y="80" width="17" height="28">
<path d="M68.6452 82.2081C68.6452 82.2081 68.2331 85.8984 69.2594 88.2685C70.2858 90.6385 75.9834 98.6671 75.9834 98.6671L65.3479 107.319C65.3479 107.319 60.9354 98.2981 60.0949 96.8383C59.2544 95.3786 58.2442 89.0968 60.9838 84.5945C63.7235 80.0923 67.6674 78.8786 68.6452 82.2081Z" fill="white"/>
</mask>
<g mask="url(#mask2_206_1760)">
<g style="mix-blend-mode:multiply" opacity="0.5">
<path d="M63.1821 94.0664L67.7967 103.776L65.3399 107.327L60.701 98.9213L63.1821 94.0664Z" fill="#076372"/>
</g>
</g>
<path d="M68.6452 82.2081C68.6452 82.2081 68.2331 85.8984 69.2594 88.2685C70.2858 90.6385 75.9834 98.6671 75.9834 98.6671L65.3479 107.319C65.3479 107.319 60.9354 98.2981 60.0949 96.8383C59.2544 95.3786 58.2442 89.0968 60.9838 84.5945C63.7235 80.0923 67.6674 78.8786 68.6452 82.2081Z" stroke="#263238" stroke-width="1.00396" stroke-miterlimit="10"/>
<path d="M71.9426 75.4507C71.288 71.3503 66.6572 63.01 59.311 63.3299C54.5428 63.5431 52.3123 64.519 50.2434 65.7081C48.557 66.7163 46.985 67.9099 45.556 69.2672C41.9678 73.6383 40.7071 74.8356 41.4021 78.1815C41.3451 79.5161 41.5511 80.8488 42.0082 82.1015C43.1073 85.0784 43.8589 87.022 44.8125 88.4407C44.5216 89.8267 43.7619 93.4842 43.7215 94.3207C43.6811 95.1572 46.146 94.5749 47.3906 94.2551C49.7019 99.5036 53.9367 103.145 55.254 103.563C57.5492 104.293 61.1779 100.463 63.1013 97.4944C65.0247 94.5257 63.57 91.188 63.5781 89.8595C63.5862 88.5309 67.9018 85.6114 69.5019 84.6848C71.1021 83.7581 72.5891 79.5429 71.9426 75.4507Z" fill="white"/>
<mask id="mask3_206_1760" style="mask-type:luminance" maskUnits="userSpaceOnUse" x="41" y="63" width="32" height="41">
<path d="M71.9426 75.4507C71.288 71.3503 66.6572 63.01 59.311 63.3299C54.5428 63.5431 52.3123 64.519 50.2434 65.7081C48.557 66.7163 46.985 67.9099 45.556 69.2672C41.9678 73.6383 40.7071 74.8356 41.4021 78.1815C41.3451 79.5161 41.5511 80.8488 42.0082 82.1015C43.1073 85.0784 43.8589 87.022 44.8125 88.4407C44.5216 89.8267 43.7619 93.4842 43.7215 94.3207C43.6811 95.1572 46.146 94.5749 47.3906 94.2551C49.7019 99.5036 53.9367 103.145 55.254 103.563C57.5492 104.293 61.1779 100.463 63.1013 97.4944C65.0247 94.5257 63.57 91.188 63.5781 89.8595C63.5862 88.5309 67.9018 85.6114 69.5019 84.6848C71.1021 83.7581 72.5891 79.5429 71.9426 75.4507Z" fill="white"/>
</mask>
<g mask="url(#mask3_206_1760)">
<g style="mix-blend-mode:multiply" opacity="0.5">
<path d="M41.4344 78.1815C41.3774 79.516 41.5834 80.8487 42.0405 82.1015C43.1396 85.0784 43.8912 87.022 44.8448 88.4407C44.5539 89.8266 43.7942 93.4842 43.7538 94.3207C43.7134 95.1571 46.1783 94.5749 47.4229 94.2551C49.7342 99.5036 53.969 103.145 55.2863 103.563C57.5815 104.293 61.2101 100.463 63.1336 97.4944C63.6141 96.7532 63.9261 95.9128 64.0468 95.0341C63.9417 94.6487 63.869 94.4109 63.869 94.4109C63.869 94.4109 62.7861 98.6343 60.6364 98.0848C58.4866 97.5354 55.1974 93.1644 53.3629 91.6554C51.5283 90.1465 52.2799 88.1619 51.9163 85.9148C51.5526 83.6678 46.1217 81.6914 45.7581 80.4039C45.3944 79.1164 46.6632 73.7858 46.6632 73.7858C46.6632 73.7858 48.724 70.9976 48.2795 72.1457C47.9654 73.1412 47.8514 74.1906 47.9444 75.2316C48.0374 76.2727 48.3355 77.2841 48.821 78.2061C49.1617 78.9335 49.7021 79.5457 50.3773 79.9691C51.0526 80.3924 51.8339 80.6089 52.6274 80.5925L54.5994 70.6777L50.4373 67.1842L45.5883 69.2344C41.9678 73.6382 40.7313 74.8355 41.4344 78.1815Z" fill="#076372"/>
</g>
</g>
<path d="M71.9426 75.4507C71.288 71.3503 66.6572 63.01 59.311 63.3299C54.5428 63.5431 52.3123 64.519 50.2434 65.7081C48.557 66.7163 46.985 67.9099 45.556 69.2672C41.9678 73.6383 40.7071 74.8356 41.4021 78.1815C41.3451 79.5161 41.5511 80.8488 42.0082 82.1015C43.1073 85.0784 43.8589 87.022 44.8125 88.4407C44.5216 89.8267 43.7619 93.4842 43.7215 94.3207C43.6811 95.1572 46.146 94.5749 47.3906 94.2551C49.7019 99.5036 53.9367 103.145 55.254 103.563C57.5492 104.293 61.1779 100.463 63.1013 97.4944C65.0247 94.5257 63.57 91.188 63.5781 89.8595C63.5862 88.5309 67.9018 85.6114 69.5019 84.6848C71.1021 83.7581 72.5891 79.5429 71.9426 75.4507Z" stroke="#263238" stroke-miterlimit="10"/>
<path d="M45.8147 85.964L46.6229 88.3094C46.6229 88.3094 48.3604 88.8917 50.4778 86.5463" stroke="#263238" stroke-miterlimit="10" stroke-linecap="round"/>
<path d="M51.787 96.9203C51.787 96.9203 53.7104 96.7234 54.4863 93.9844" stroke="#263238" stroke-miterlimit="10" stroke-linecap="round"/>
<path d="M44.465 84.0041C44.465 84.0041 45.0388 82.2409 48.5058 82.2409" stroke="#263238" stroke-miterlimit="10" stroke-linecap="round"/>
<path d="M62.2366 60.0659C59.7174 59.6983 57.1768 59.5011 54.6318 59.4755C54.6318 59.4755 47.0189 55.0224 39.705 59.7707C32.3911 64.519 35.9066 72.8346 35.9066 74.9094C35.9066 76.9842 33.5629 76.9924 35.0257 79.6658C36.4885 82.3393 41.4345 80.8632 41.4345 80.8632C41.4867 79.8548 41.7493 78.8692 42.2049 77.9715C42.6605 77.0738 43.2986 76.2845 44.0772 75.6557C46.7118 73.5809 48.813 73.1298 49.6858 73.7285C49.6858 73.7285 49.1039 78.1815 49.9768 79.9611C49.9768 79.9611 52.9023 81.4454 53.7832 81.4454C54.6641 81.4454 53.2094 82.7001 56.1269 83.8155C56.6584 84.0092 57.227 84.0752 57.7879 84.0083C58.3488 83.9414 58.8867 83.7435 59.3595 83.43C59.7879 81.6258 60.7253 78.9114 62.471 79.5428C65.0328 80.4695 67.3684 86.8661 63.9014 89.0476C68.0715 89.8184 73.1226 82.3311 73.4216 75.508C73.7206 68.685 66.5684 60.8368 62.2366 60.0659Z" fill="#263238"/>
<path d="M49.8151 70.8008C49.8151 70.8008 51.9648 69.6281 54.5994 72.1375C57.234 74.647 62.3578 78.0011 69.1463 76.1559" stroke="white" stroke-width="0.5" stroke-linecap="round" stroke-linejoin="round"/>
<path d="M49.516 68.7915C49.516 68.7915 50.9949 66.446 53.4679 66.446C55.9409 66.446 61.7193 69.9642 66.3339 69.9642" stroke="white" stroke-width="0.5" stroke-linecap="round" stroke-linejoin="round"/>
<path d="M47.835 73.3102C47.835 73.3102 45.0307 69.8003 42.3961 72.6459C39.7615 75.4916 41.4344 78.1815 41.4344 78.1815" stroke="white" stroke-width="0.5" stroke-linecap="round" stroke-linejoin="round"/>
<path d="M36.6259 75.6557C38.2329 74.1851 39.2319 72.1518 39.4221 69.9643C39.7534 66.2822 44.7075 63.1003 47.8351 66.1182" stroke="white" stroke-width="0.5" stroke-linecap="round" stroke-linejoin="round"/>
<path d="M41.7335 62.2637C41.7335 62.2637 46.6875 57.4088 50.8091 63.6004" stroke="white" stroke-width="0.5" stroke-linecap="round" stroke-linejoin="round"/>
<path d="M82.0527 300.965C82.0527 300.965 85.0995 305.77 84.7601 308.862L84.4287 311.954C84.4287 311.954 73.2518 315.062 70.8839 315.062C68.516 315.062 55.9814 313.856 55.9814 313.856L55.4399 311.675C55.402 311.514 55.4199 311.344 55.4905 311.195C55.5611 311.046 55.6802 310.925 55.8278 310.855L67.0047 305.565L70.5283 301.653L82.0527 300.965Z" fill="white" stroke="#263238" stroke-width="1.00396" stroke-miterlimit="10"/>
<path d="M72.5811 312.642C75.6117 312.88 81.3659 311.002 84.7036 309.805L84.4692 311.954C84.4692 311.954 73.2519 315.062 70.884 315.062C68.5161 315.062 55.9814 313.856 55.9814 313.856L55.5935 312.298C57.5978 312.306 68.5726 312.331 72.5811 312.642Z" fill="#076372" stroke="#263238" stroke-width="1.00396" stroke-miterlimit="10"/>
<path d="M67.0208 305.565L50.7525 312.749C50.7525 312.749 49.3625 316.284 50.7525 316.989C52.1425 317.694 82.4487 316.989 82.4487 316.989C82.4487 316.989 84.5418 311.404 81.2364 307.656C77.9311 303.909 67.0208 305.565 67.0208 305.565Z" fill="white" stroke="#263238" stroke-width="1.00396" stroke-miterlimit="10"/>
<path d="M82.4487 316.989C82.4487 316.989 52.1426 317.694 50.7525 316.989C50.0818 316.644 50.0575 315.652 50.2111 314.709H82.9821C82.875 315.484 82.6964 316.247 82.4487 316.989Z" fill="#076372" stroke="#263238" stroke-width="1.00396" stroke-miterlimit="10"/>
<path d="M59.3272 180.741C59.3272 180.741 55.0762 199.857 53.468 211.814C51.8597 223.77 50.9142 247.725 51.2536 250.472C51.5931 253.219 68.516 299.251 68.516 299.251L70.2051 303.351L82.0528 300.948C82.0528 300.948 76.6381 283.431 74.6096 273.812C72.5811 264.192 68.1443 248.389 68.1443 245.642C68.1443 242.895 78.6504 190.426 79.402 186.982C80.1536 183.537 83.564 178.248 83.564 178.248L60.8789 177.78L59.3272 180.741Z" fill="#076372" stroke="#263238" stroke-width="1.00396" stroke-miterlimit="10"/>
<path d="M59.3273 180.741C59.3273 180.741 56.8381 198.2 57.8645 210.337C58.8909 222.475 61.0971 248.315 61.0971 252.162C61.0971 256.008 67.215 278.978 67.5625 286.195C68.1039 296.618 67.3443 301.776 67.3443 301.776L66.9806 305.557C66.9806 305.557 74.1167 306.59 75.6764 307.041C77.4779 307.512 79.3371 307.717 81.1962 307.648C81.1962 307.648 83.7904 296.06 83.7904 286.187C83.7904 276.313 81.6326 255.991 80.5577 247.758C79.4829 239.524 82.8691 207.762 84.7925 201.833C86.7159 195.904 90.9184 183.349 88.0898 176.936C85.2612 170.523 59.3273 180.741 59.3273 180.741Z" fill="#076372" stroke="#263238" stroke-width="1.00396" stroke-miterlimit="10"/>
<path d="M91.2335 173.721L90.9749 181.528C90.9749 181.528 86.3684 182.455 80.1617 183.545C75.0379 184.447 62.1719 183.308 57.8402 182.881C57.4454 182.846 57.0805 182.653 56.8247 182.346C56.5689 182.039 56.443 181.642 56.4744 181.241L56.8946 174.188L91.2335 173.721Z" fill="#263238"/>
<path d="M73.2276 95.8951C73.2276 95.8951 65.9541 103.875 63.2144 108.836C60.4748 113.797 59.3918 121.4 58.3654 127.386C57.3391 133.373 60.1192 147.429 59.3352 153.883L56.8542 174.213C56.8542 174.213 56.3208 175.591 58.1068 177.099C59.8929 178.608 68.613 179.158 76.4926 179.56C79.3696 179.707 87.9604 177.829 89.3666 177.739C91.0638 177.633 91.1203 175.443 91.1931 173.721C91.5325 165.627 92.971 144.05 93.9166 134.652C95.8643 115.487 85.2046 96.9858 73.2276 95.8951Z" fill="white" stroke="#263238" stroke-width="1.00396" stroke-miterlimit="10"/>
<g style="mix-blend-mode:multiply">
<path d="M93.0276 145.551C93.3509 141.295 93.6742 137.432 93.957 134.652C94.0378 133.832 94.0863 133.012 94.1267 132.192L74.8035 135.472L58.2039 129.732C58.2057 133.217 58.3999 136.7 58.7857 140.163L75.0702 144.788L93.0276 145.551Z" fill="#076372"/>
</g>
<g style="mix-blend-mode:multiply">
<path d="M72.5083 96.6989C71.4092 97.9372 69.2272 100.455 67.1502 103.128L79.4181 115.782L83.459 114.142L72.5083 96.6989Z" fill="#076372"/>
</g>
<path d="M73.2276 95.8951C73.2276 95.8951 65.9541 103.875 63.2144 108.836C62.4021 110.344 61.744 111.932 61.2506 113.576L75.8784 96.4282C75.0142 96.1625 74.1263 95.984 73.2276 95.8951Z" fill="#263238"/>
<g style="mix-blend-mode:multiply">
<path d="M58.9311 124.155L74.8034 129.453L94.0781 127.206C93.776 122.333 92.7093 117.541 90.9182 113.01L75.3772 119.333L61.4849 112.945C60.3489 116.609 59.4951 120.357 58.9311 124.155Z" fill="#076372"/>
</g>
<g style="mix-blend-mode:multiply">
<path d="M86.2551 165.627C78.2048 166.998 69.9445 166.313 62.2203 163.634L58.3492 162.289L57.1451 172.13L61.5577 173.385C69.9462 175.764 78.7136 176.45 87.3623 175.402L90.9263 174.967C91.1118 174.569 91.2162 174.137 91.2334 173.696C91.3304 171.507 91.5001 168.325 91.7183 164.675L86.2551 165.627Z" fill="#076372"/>
</g>
<g style="mix-blend-mode:multiply">
<path d="M88.413 152.226C80.3623 153.603 72.1 152.916 64.3782 150.225L59.4484 148.511C59.5706 150.298 59.5463 152.092 59.3756 153.875L58.8018 158.607L63.7155 160.001C72.1007 162.383 80.8654 163.071 89.5121 162.026L91.9365 161.731C92.1386 158.451 92.3729 154.957 92.6235 151.505L88.413 152.226Z" fill="#076372"/>
</g>
<path d="M12.5921 117.547L28.2182 130.296L28.8917 129.446L13.2656 116.697L12.5921 117.547Z" fill="#263238"/>
<path d="M80.7516 104.744C80.7516 104.744 86.4815 108.705 86.6108 118.062C86.6674 122.162 86.2471 125.992 85.3177 132.709C84.3884 139.425 78.6181 161.297 74.1247 163.954C69.6313 166.611 62.6568 161.592 62.6568 161.592L28.9241 138.867L20.7697 132.184L16.7289 124.442L17.9977 121.982L27.9462 129.724L22.5881 124.696L23.6387 123.343L25.5783 124.713L31.2354 126.861L32.4719 135.062L34.2175 136.276L66.4875 148.241C66.4875 148.241 66.0834 130.617 66.3825 127.247C66.6815 123.876 67.0936 115.405 70.6496 109.263" fill="white"/>
<mask id="mask4_206_1760" style="mask-type:luminance" maskUnits="userSpaceOnUse" x="16" y="104" width="71" height="61">
<path d="M80.7516 104.744C80.7516 104.744 86.4815 108.705 86.6108 118.062C86.6674 122.162 86.2471 125.992 85.3177 132.709C84.3884 139.425 78.6181 161.297 74.1247 163.954C69.6313 166.611 62.6568 161.592 62.6568 161.592L28.9241 138.867L20.7697 132.184L16.7289 124.442L17.9977 121.982L27.9462 129.724L22.5881 124.696L23.6387 123.343L25.5783 124.713L31.2354 126.861L32.4719 135.062L34.2175 136.276L66.4875 148.241C66.4875 148.241 66.0834 130.617 66.3825 127.247C66.6815 123.876 67.0936 115.405 70.6496 109.263" fill="white"/>
</mask>
<g mask="url(#mask4_206_1760)">
<g style="mix-blend-mode:multiply" opacity="0.5">
<path d="M66.2612 134.923C66.2612 141.008 66.4633 148.241 66.4633 148.241L34.2256 136.325L32.48 135.111L31.2435 126.911L25.5863 124.762L23.6548 123.368L22.6042 124.721L27.9462 129.723L17.9977 121.982L16.7935 124.401L20.8343 132.143L28.9887 138.867L31.0414 140.253L75.6117 154.826L66.2612 134.923Z" fill="#076372"/>
</g>
</g>
<path d="M80.7516 104.744C80.7516 104.744 86.4815 108.705 86.6108 118.062C86.6674 122.162 86.2471 125.992 85.3177 132.709C84.3884 139.425 78.6181 161.297 74.1247 163.954C69.6313 166.611 62.6568 161.592 62.6568 161.592L28.9241 138.867L20.7697 132.184L16.7289 124.442L17.9977 121.982L27.9462 129.724L22.5881 124.696L23.6387 123.343L25.5783 124.713L31.2354 126.861L32.4719 135.062L34.2175 136.276L66.4875 148.241C66.4875 148.241 66.0834 130.617 66.3825 127.247C66.6815 123.876 67.0936 115.405 70.6496 109.263" stroke="#263238" stroke-width="1.00396" stroke-miterlimit="10"/>
<path d="M66.4875 148.241L78.8039 157.262L81.9962 151.521C81.9962 151.521 84.2024 149.758 84.5257 148.43C84.849 147.101 84.4368 144.944 84.7681 143.616C85.0995 142.287 86.7481 141.041 86.9017 137.826C87.0553 134.611 86.9017 131.929 86.9017 131.929C86.9017 131.929 89.5686 120.801 89.2777 115.963C88.9868 111.124 84.3883 102.571 80.7031 102.382C77.0179 102.193 72.2254 102.759 68.5079 108.467C64.7903 114.175 65.55 130.839 64.9681 131.88C64.3863 132.922 65.1944 138.064 65.1944 138.064C64.8714 138.308 64.6035 138.62 64.4084 138.977C64.2133 139.335 64.0955 139.731 64.063 140.138C63.9983 141.475 65.4207 144.764 65.4207 144.764L66.4875 148.241Z" fill="white" stroke="#263238" stroke-width="1.00396" stroke-miterlimit="10"/>
<g style="mix-blend-mode:multiply">
<path d="M65.2914 127.599C65.3168 129.031 65.2112 130.461 64.9762 131.872C64.459 132.807 65.0489 137.03 65.1783 137.891C72.1057 140.075 79.4308 140.636 86.6027 139.532C86.7568 138.961 86.8489 138.376 86.8775 137.785C87.0391 134.578 86.8775 131.889 86.8775 131.889C86.8775 131.889 87.1118 130.896 87.4351 129.387C80.0076 129.866 72.5508 129.264 65.2914 127.599Z" fill="#076372"/>
</g>
<g style="mix-blend-mode:multiply">
<path d="M68.0068 109.377C66.8512 111.731 66.2046 115.265 65.8329 118.849C73.1695 121.69 81.0796 122.667 88.8736 121.695C89.1846 119.798 89.3226 117.877 89.2858 115.954C89.1459 114.435 88.7921 112.944 88.2352 111.526C81.4297 111.687 74.6319 110.965 68.0068 109.377Z" fill="#076372"/>
</g>
<path d="M65.4207 144.854L66.4632 148.241L78.7796 157.262L81.9719 151.521C81.9719 151.521 84.1781 149.758 84.5014 148.43C84.5591 148.199 84.5943 147.962 84.6065 147.724C78.116 147.611 71.6673 146.646 65.4207 144.854Z" fill="#263238"/>
<path d="M74.3348 306.935C74.3348 306.935 74.6096 299.833 75.9511 289.451C77.2927 279.068 74.0681 264.323 73.5266 261.863C72.9851 259.403 73.8014 253.941 73.2599 252.022C72.7185 250.103 70.1 241.919 71.6436 232.422C73.1872 222.926 74.4398 197.823 74.4398 197.823C74.4398 197.823 70.5526 194.616 69.4131 190.442C68.2735 186.268 69.1464 184.956 69.1464 184.956" stroke="#263238" stroke-width="1.00396" stroke-miterlimit="10"/>
<path d="M76.137 185.341L74.6418 193.739" stroke="#263238" stroke-width="1.00396" stroke-miterlimit="10"/>
</svg>
