<svg width="27" height="28" viewBox="0 0 27 28" fill="none" xmlns="http://www.w3.org/2000/svg">
<path d="M26.1897 4.51721C26.4497 4.14323 26.0039 3.68585 25.5745 3.8379C25.1259 3.99676 24.8166 3.36162 25.0972 2.97718C25.2642 2.74838 25.4184 2.50594 25.559 2.25151C25.8648 1.69773 25.2068 1.19757 24.6369 1.47234C24.2481 1.65982 23.8508 1.8202 23.4467 1.9526C23.0204 2.0923 22.5681 1.9169 22.2561 1.59447C21.8468 1.17143 21.3891 0.822714 20.8966 0.560262C20.2011 0.189613 19.4512 -0.00108036 18.6934 4.60384e-06C15.6345 4.60384e-06 13.1541 3.05498 13.1541 6.82445C13.1541 7.61787 12.526 8.33349 11.7458 8.18949C8.87042 7.65881 6.24974 6.17145 4.10323 3.99826C3.01081 2.89226 1.12856 3.12554 1.13045 4.68009C1.12969 5.80369 1.35424 6.91011 1.78415 7.90105C1.97753 8.34678 2.20976 8.76294 2.47582 9.14269C2.78254 9.58047 2.47778 10.2059 1.98503 9.9987C1.70055 9.87908 1.42365 9.73072 1.15725 9.55461C1.12635 9.53419 1.08492 9.55555 1.08522 9.59259C1.08522 12.1774 2.25268 14.4276 3.97328 15.586C4.38604 15.8639 4.33818 16.5419 3.84122 16.5165C3.46765 16.4975 3.14366 16.8356 3.27554 17.1856C3.55087 17.9164 3.92826 18.5771 4.38511 19.1401C5.42484 20.4214 6.02427 22.9444 4.47277 23.5062C3.4563 23.8742 2.39553 24.0638 1.32155 24.0618C0.957756 24.0618 0.770218 24.5437 1.07386 24.7441C3.34933 26.2455 5.89687 27.0352 8.49099 27.0317C18.6798 27.0317 24.2514 16.6335 24.2514 7.61627C24.2514 7.5051 24.2506 7.3941 24.2491 7.28326C24.2443 6.93435 24.3886 6.60057 24.6383 6.35679C25.2026 5.8058 25.722 5.18965 26.1897 4.51721Z" fill="#51B9FF"/>
</svg>
